<?xml version="1.0" standalone="no"?><!DOCTYPE svg PUBLIC "-//W3C//DTD SVG 1.1//EN" "http://www.w3.org/Graphics/SVG/1.1/DTD/svg11.dtd"><svg width="100%" height="100%" viewBox="0 0 93 90" version="1.1" xmlns="http://www.w3.org/2000/svg" xmlns:xlink="http://www.w3.org/1999/xlink" xml:space="preserve" style="fill-rule:evenodd;clip-rule:evenodd;stroke-linejoin:round;stroke-miterlimit:1.41421;"><path d="M15.949,75.47l-0.191,-0.011l-0.189,-0.035l-0.183,-0.057l-0.174,-0.078l-0.164,-0.099l-0.151,-0.119l-0.136,-0.135l-0.118,-0.151l-0.099,-0.164l-0.079,-0.175l-0.057,-0.183l-0.034,-0.188l-0.012,-0.192l0,-4.31l0.001,-0.134l0.001,-0.137l0.002,-0.137l0.003,-0.136l0.004,-0.136l0.005,-0.136l0.005,-0.136l0.007,-0.135l0.007,-0.135l0.008,-0.135l0.009,-0.135l0.01,-0.135l0.011,-0.134l0.011,-0.134l0.012,-0.134l0.014,-0.134l0.013,-0.133l0.015,-0.134l0.016,-0.132l0.016,-0.133l0.018,-0.133l0.018,-0.132l0.019,-0.132l0.019,-0.132l0.021,-0.131l0.021,-0.131l0.022,-0.131l0.023,-0.131l0.024,-0.13l0.024,-0.13l0.026,-0.13l0.026,-0.13l0.027,-0.129l0.027,-0.129l0.029,-0.129l0.029,-0.128l0.03,-0.128l0.031,-0.128l0.031,-0.127l0.033,-0.128l0.033,-0.127l0.033,-0.126l0.035,-0.126l0.035,-0.126l0.036,-0.126l0.038,-0.128l0.075,-0.247l0.079,-0.248l0.082,-0.248l0.085,-0.245l0.088,-0.245l0.09,-0.242l0.094,-0.242l0.096,-0.24l0.099,-0.239l0.102,-0.237l0.105,-0.235l0.108,-0.234l0.11,-0.233l0.113,-0.231l0.116,-0.229l0.118,-0.228l0.121,-0.226l0.124,-0.225l0.126,-0.222l0.129,-0.221l0.132,-0.22l0.134,-0.217l0.136,-0.216l0.139,-0.214l0.142,-0.213l0.144,-0.21l0.146,-0.209l0.149,-0.207l0.152,-0.205l0.153,-0.203l0.157,-0.201l0.158,-0.199l0.161,-0.197l0.163,-0.195l0.165,-0.193l0.168,-0.192l0.17,-0.189l0.172,-0.187l0.174,-0.185l0.177,-0.183l0.178,-0.181l0.181,-0.178l0.183,-0.177l0.185,-0.174l0.187,-0.172l0.189,-0.17l0.191,-0.167l0.194,-0.166l0.195,-0.163l0.197,-0.161l0.199,-0.158l0.201,-0.156l0.203,-0.154l0.205,-0.151l0.207,-0.149l0.209,-0.147l0.21,-0.144l0.212,-0.141l0.215,-0.139l0.215,-0.137l0.218,-0.134l0.219,-0.132l0.221,-0.128l0.223,-0.127l0.225,-0.123l0.226,-0.122l0.228,-0.118l0.229,-0.116l0.231,-0.113l0.232,-0.11l0.234,-0.108l0.236,-0.104l0.237,-0.102l0.239,-0.099l0.24,-0.097l0.241,-0.093l0.243,-0.091l0.244,-0.088l0.246,-0.085l0.247,-0.081l0.249,-0.079l0.247,-0.076l0.128,-0.037l0.125,-0.036l0.126,-0.036l0.127,-0.034l0.126,-0.034l0.127,-0.033l0.127,-0.033l0.128,-0.031l0.127,-0.031l0.129,-0.03l0.128,-0.029l0.129,-0.028l0.129,-0.028l0.129,-0.027l0.13,-0.026l0.129,-0.025l0.131,-0.025l0.13,-0.024l0.13,-0.022l0.131,-0.023l0.132,-0.021l0.131,-0.02l0.132,-0.02l0.132,-0.019l0.132,-0.018l0.132,-0.017l0.133,-0.017l0.133,-0.015l0.133,-0.015l0.134,-0.014l0.134,-0.013l0.133,-0.013l0.135,-0.011l0.134,-0.011l0.135,-0.01l0.134,-0.009l0.135,-0.008l0.136,-0.007l0.135,-0.006l0.136,-0.006l0.136,-0.005l0.136,-0.004l0.136,-0.003l0.137,-0.002l0.136,-0.001l0.135,-0.001l21.494,0l0.134,0.001l0.137,0.001l0.136,0.002l0.136,0.003l0.137,0.004l0.135,0.005l0.136,0.006l0.136,0.006l0.135,0.007l0.135,0.008l0.135,0.009l0.134,0.01l0.135,0.011l0.134,0.011l0.134,0.013l0.133,0.013l0.134,0.014l0.133,0.015l0.133,0.015l0.133,0.017l0.132,0.017l0.132,0.018l0.132,0.019l0.132,0.02l0.132,0.02l0.131,0.021l0.131,0.023l0.13,0.022l0.131,0.024l0.13,0.025l0.13,0.025l0.129,0.026l0.13,0.027l0.128,0.028l0.129,0.028l0.129,0.029l0.128,0.03l0.128,0.031l0.127,0.031l0.127,0.033l0.127,0.033l0.127,0.034l0.126,0.034l0.126,0.036l0.126,0.036l0.127,0.037l0.248,0.076l0.248,0.079l0.247,0.081l0.246,0.085l0.244,0.088l0.243,0.091l0.242,0.093l0.24,0.097l0.238,0.099l0.237,0.102l0.236,0.104l0.234,0.108l0.233,0.11l0.231,0.113l0.229,0.116l0.228,0.118l0.226,0.122l0.224,0.123l0.223,0.127l0.221,0.128l0.22,0.132l0.217,0.134l0.216,0.137l0.214,0.139l0.213,0.141l0.21,0.144l0.209,0.147l0.207,0.149l0.204,0.151l0.203,0.154l0.202,0.156l0.199,0.158l0.197,0.161l0.195,0.163l0.193,0.165l0.192,0.168l0.189,0.17l0.187,0.172l0.185,0.174l0.183,0.177l0.181,0.178l0.178,0.181l0.177,0.183l0.174,0.185l0.172,0.187l0.17,0.189l0.168,0.192l0.165,0.193l0.163,0.195l0.161,0.197l0.158,0.199l0.156,0.201l0.154,0.203l0.151,0.205l0.149,0.207l0.147,0.209l0.144,0.21l0.142,0.213l0.139,0.214l0.136,0.216l0.134,0.217l0.132,0.22l0.129,0.221l0.126,0.222l0.124,0.225l0.121,0.226l0.118,0.228l0.116,0.229l0.113,0.231l0.11,0.233l0.108,0.234l0.105,0.235l0.102,0.237l0.099,0.239l0.096,0.24l0.094,0.242l0.09,0.242l0.088,0.245l0.085,0.245l0.082,0.247l0.079,0.249l0.075,0.247l0.038,0.128l0.036,0.126l0.035,0.126l0.035,0.126l0.034,0.126l0.033,0.127l0.032,0.128l0.032,0.127l0.03,0.128l0.03,0.128l0.03,0.128l0.028,0.129l0.028,0.129l0.027,0.129l0.026,0.13l0.025,0.13l0.024,0.13l0.024,0.13l0.023,0.131l0.022,0.131l0.021,0.131l0.021,0.131l0.02,0.132l0.019,0.132l0.018,0.132l0.017,0.133l0.016,0.133l0.016,0.133l0.015,0.133l0.014,0.133l0.013,0.134l0.012,0.134l0.012,0.134l0.01,0.134l0.01,0.135l0.009,0.135l0.008,0.135l0.008,0.135l0.006,0.135l0.006,0.136l0.004,0.136l0.004,0.136l0.003,0.136l0.002,0.137l0.002,0.137l0,0.134l0,4.31l-0.011,0.192l-0.035,0.188l-0.057,0.183l-0.079,0.175l-0.099,0.164l-0.118,0.151l-0.135,0.135l-0.151,0.119l-0.164,0.099l-0.175,0.078l-0.183,0.057l-0.189,0.035l-0.191,0.011l-0.191,-0.011l-0.189,-0.035l-0.183,-0.057l-0.174,-0.078l-0.164,-0.099l-0.151,-0.119l-0.136,-0.135l-0.118,-0.151l-0.099,-0.164l-0.079,-0.175l-0.057,-0.183l-0.034,-0.188l-0.012,-0.192l0,-4.305l0,-0.119l-0.001,-0.117l-0.002,-0.116l-0.003,-0.116l-0.003,-0.116l-0.004,-0.116l-0.005,-0.116l-0.005,-0.115l-0.007,-0.116l-0.006,-0.115l-0.008,-0.114l-0.008,-0.115l-0.01,-0.114l-0.009,-0.114l-0.011,-0.114l-0.011,-0.114l-0.012,-0.114l-0.012,-0.113l-0.014,-0.113l-0.014,-0.113l-0.014,-0.113l-0.016,-0.112l-0.016,-0.112l-0.017,-0.112l-0.017,-0.112l-0.018,-0.111l-0.019,-0.112l-0.019,-0.111l-0.021,-0.11l-0.02,-0.111l-0.022,-0.11l-0.022,-0.11l-0.023,-0.11l-0.023,-0.11l-0.025,-0.109l-0.024,-0.109l-0.026,-0.109l-0.026,-0.108l-0.027,-0.109l-0.027,-0.108l-0.028,-0.108l-0.029,-0.107l-0.029,-0.107l-0.03,-0.107l-0.031,-0.107l-0.031,-0.104l-0.065,-0.214l-0.067,-0.211l-0.07,-0.21l-0.072,-0.209l-0.074,-0.207l-0.077,-0.206l-0.079,-0.206l-0.082,-0.203l-0.085,-0.203l-0.086,-0.201l-0.089,-0.201l-0.092,-0.198l-0.093,-0.198l-0.096,-0.196l-0.099,-0.195l-0.1,-0.194l-0.103,-0.192l-0.105,-0.191l-0.108,-0.189l-0.109,-0.188l-0.112,-0.186l-0.114,-0.186l-0.116,-0.183l-0.119,-0.182l-0.12,-0.181l-0.123,-0.179l-0.124,-0.177l-0.127,-0.176l-0.129,-0.175l-0.13,-0.172l-0.133,-0.171l-0.135,-0.17l-0.137,-0.168l-0.139,-0.166l-0.14,-0.164l-0.143,-0.163l-0.145,-0.161l-0.146,-0.159l-0.149,-0.158l-0.15,-0.155l-0.152,-0.154l-0.154,-0.152l-0.155,-0.15l-0.158,-0.149l-0.159,-0.146l-0.161,-0.145l-0.163,-0.142l-0.164,-0.141l-0.166,-0.139l-0.168,-0.137l-0.17,-0.134l-0.171,-0.133l-0.172,-0.131l-0.175,-0.129l-0.176,-0.127l-0.177,-0.124l-0.179,-0.123l-0.181,-0.12l-0.182,-0.118l-0.183,-0.116l-0.186,-0.114l-0.186,-0.112l-0.188,-0.11l-0.189,-0.107l-0.191,-0.105l-0.192,-0.103l-0.194,-0.101l-0.195,-0.098l-0.196,-0.096l-0.198,-0.094l-0.199,-0.091l-0.2,-0.089l-0.201,-0.087l-0.203,-0.084l-0.204,-0.082l-0.205,-0.079l-0.206,-0.077l-0.208,-0.075l-0.208,-0.072l-0.21,-0.07l-0.211,-0.067l-0.214,-0.065l-0.104,-0.03l-0.107,-0.031l-0.107,-0.03l-0.107,-0.029l-0.108,-0.029l-0.108,-0.028l-0.108,-0.028l-0.108,-0.026l-0.109,-0.027l-0.108,-0.025l-0.109,-0.025l-0.11,-0.024l-0.109,-0.024l-0.11,-0.022l-0.11,-0.023l-0.11,-0.021l-0.111,-0.021l-0.111,-0.02l-0.111,-0.019l-0.111,-0.019l-0.111,-0.018l-0.112,-0.018l-0.112,-0.017l-0.112,-0.016l-0.113,-0.015l-0.113,-0.015l-0.112,-0.014l-0.113,-0.013l-0.114,-0.013l-0.113,-0.011l-0.114,-0.012l-0.114,-0.01l-0.114,-0.01l-0.115,-0.009l-0.114,-0.008l-0.115,-0.008l-0.115,-0.007l-0.115,-0.006l-0.116,-0.006l-0.115,-0.004l-0.116,-0.004l-0.116,-0.004l-0.116,-0.002l-0.116,-0.002l-0.117,-0.001l-0.119,-0.001l-21.484,0l-0.12,0.001l-0.116,0.001l-0.117,0.002l-0.116,0.002l-0.116,0.004l-0.116,0.004l-0.115,0.004l-0.116,0.006l-0.115,0.006l-0.115,0.007l-0.115,0.008l-0.114,0.008l-0.115,0.009l-0.114,0.01l-0.114,0.01l-0.114,0.012l-0.113,0.011l-0.113,0.013l-0.113,0.013l-0.113,0.014l-0.113,0.015l-0.112,0.015l-0.113,0.016l-0.112,0.017l-0.111,0.018l-0.112,0.018l-0.111,0.019l-0.111,0.019l-0.111,0.02l-0.11,0.021l-0.111,0.021l-0.11,0.023l-0.11,0.022l-0.109,0.024l-0.109,0.024l-0.109,0.025l-0.109,0.025l-0.109,0.027l-0.108,0.026l-0.108,0.028l-0.108,0.028l-0.107,0.029l-0.108,0.029l-0.107,0.03l-0.106,0.031l-0.104,0.03l-0.215,0.065l-0.211,0.067l-0.209,0.07l-0.209,0.072l-0.208,0.075l-0.206,0.077l-0.205,0.079l-0.204,0.082l-0.202,0.084l-0.202,0.087l-0.2,0.089l-0.199,0.091l-0.197,0.094l-0.197,0.096l-0.195,0.098l-0.193,0.101l-0.192,0.103l-0.191,0.105l-0.189,0.107l-0.188,0.11l-0.187,0.112l-0.185,0.114l-0.184,0.116l-0.182,0.118l-0.18,0.12l-0.179,0.123l-0.178,0.124l-0.176,0.127l-0.174,0.129l-0.173,0.131l-0.171,0.133l-0.169,0.134l-0.168,0.137l-0.166,0.139l-0.164,0.141l-0.163,0.142l-0.161,0.145l-0.159,0.146l-0.158,0.149l-0.156,0.15l-0.153,0.152l-0.152,0.154l-0.151,0.155l-0.148,0.158l-0.146,0.159l-0.145,0.161l-0.143,0.163l-0.14,0.164l-0.139,0.166l-0.137,0.168l-0.135,0.17l-0.133,0.171l-0.13,0.172l-0.129,0.175l-0.127,0.176l-0.124,0.177l-0.123,0.179l-0.12,0.181l-0.119,0.182l-0.116,0.183l-0.114,0.185l-0.112,0.187l-0.109,0.188l-0.108,0.189l-0.105,0.191l-0.103,0.192l-0.1,0.194l-0.098,0.195l-0.097,0.196l-0.093,0.197l-0.092,0.199l-0.089,0.2l-0.086,0.202l-0.084,0.202l-0.082,0.204l-0.08,0.206l-0.077,0.206l-0.074,0.207l-0.072,0.209l-0.07,0.21l-0.067,0.211l-0.065,0.214l-0.031,0.104l-0.03,0.107l-0.03,0.107l-0.03,0.107l-0.028,0.107l-0.029,0.108l-0.027,0.108l-0.027,0.109l-0.026,0.108l-0.025,0.109l-0.025,0.109l-0.024,0.109l-0.024,0.11l-0.023,0.11l-0.022,0.11l-0.021,0.11l-0.021,0.111l-0.02,0.11l-0.02,0.111l-0.019,0.112l-0.018,0.111l-0.017,0.112l-0.017,0.112l-0.016,0.112l-0.015,0.112l-0.015,0.113l-0.014,0.113l-0.013,0.113l-0.013,0.113l-0.012,0.114l-0.011,0.114l-0.01,0.114l-0.01,0.114l-0.009,0.114l-0.009,0.115l-0.007,0.115l-0.007,0.114l-0.006,0.116l-0.006,0.115l-0.005,0.116l-0.004,0.115l-0.003,0.117l-0.003,0.116l-0.001,0.116l-0.001,0.117l-0.001,0.119l0,4.305l-0.011,0.192l-0.035,0.188l-0.057,0.183l-0.079,0.175l-0.099,0.164l-0.118,0.151l-0.135,0.135l-0.151,0.119l-0.164,0.099l-0.175,0.078l-0.183,0.057l-0.189,0.035l-0.191,0.011Z" style="fill:#3f3f3f;"/><path d="M46.518,51.553l-0.198,-0.001l-0.197,-0.004l-0.198,-0.006l-0.196,-0.009l-0.196,-0.011l-0.195,-0.014l-0.195,-0.016l-0.194,-0.018l-0.193,-0.021l-0.193,-0.023l-0.191,-0.026l-0.192,-0.028l-0.19,-0.03l-0.19,-0.033l-0.188,-0.035l-0.189,-0.037l-0.187,-0.039l-0.186,-0.042l-0.186,-0.044l-0.184,-0.047l-0.184,-0.048l-0.183,-0.051l-0.182,-0.053l-0.181,-0.055l-0.18,-0.057l-0.179,-0.059l-0.178,-0.062l-0.178,-0.064l-0.176,-0.065l-0.175,-0.068l-0.174,-0.07l-0.173,-0.072l-0.172,-0.074l-0.171,-0.076l-0.169,-0.078l-0.169,-0.08l-0.167,-0.082l-0.166,-0.083l-0.166,-0.086l-0.164,-0.088l-0.162,-0.09l-0.162,-0.091l-0.16,-0.094l-0.159,-0.095l-0.158,-0.097l-0.156,-0.099l-0.156,-0.101l-0.153,-0.103l-0.153,-0.104l-0.151,-0.106l-0.15,-0.108l-0.149,-0.11l-0.147,-0.111l-0.146,-0.113l-0.144,-0.115l-0.143,-0.117l-0.141,-0.118l-0.14,-0.12l-0.139,-0.121l-0.137,-0.123l-0.136,-0.125l-0.134,-0.127l-0.132,-0.127l-0.131,-0.13l-0.13,-0.131l-0.128,-0.132l-0.126,-0.135l-0.125,-0.135l-0.123,-0.137l-0.121,-0.139l-0.12,-0.14l-0.118,-0.141l-0.117,-0.143l-0.115,-0.145l-0.113,-0.145l-0.111,-0.147l-0.11,-0.149l-0.108,-0.15l-0.106,-0.151l-0.105,-0.153l-0.102,-0.154l-0.101,-0.155l-0.099,-0.156l-0.097,-0.158l-0.096,-0.159l-0.093,-0.16l-0.092,-0.162l-0.089,-0.163l-0.088,-0.164l-0.086,-0.165l-0.084,-0.166l-0.082,-0.167l-0.08,-0.169l-0.078,-0.17l-0.076,-0.17l-0.074,-0.172l-0.072,-0.173l-0.069,-0.174l-0.068,-0.175l-0.066,-0.177l-0.064,-0.177l-0.061,-0.178l-0.059,-0.179l-0.058,-0.18l-0.055,-0.181l-0.053,-0.182l-0.05,-0.183l-0.049,-0.184l-0.046,-0.185l-0.044,-0.185l-0.042,-0.187l-0.04,-0.187l-0.037,-0.188l-0.035,-0.189l-0.032,-0.189l-0.031,-0.191l-0.028,-0.191l-0.025,-0.192l-0.024,-0.192l-0.021,-0.194l-0.018,-0.194l-0.016,-0.194l-0.014,-0.196l-0.011,-0.195l-0.009,-0.197l-0.006,-0.197l-0.004,-0.198l-0.001,-0.193l0,-6.471l0.001,-0.193l0.004,-0.198l0.006,-0.197l0.009,-0.196l0.011,-0.196l0.014,-0.195l0.016,-0.195l0.018,-0.194l0.021,-0.193l0.024,-0.193l0.025,-0.192l0.028,-0.191l0.031,-0.19l0.032,-0.19l0.035,-0.189l0.037,-0.188l0.04,-0.187l0.042,-0.186l0.044,-0.186l0.046,-0.185l0.049,-0.183l0.05,-0.183l0.053,-0.182l0.055,-0.181l0.058,-0.18l0.059,-0.179l0.061,-0.179l0.064,-0.177l0.066,-0.176l0.068,-0.175l0.069,-0.174l0.072,-0.173l0.074,-0.172l0.076,-0.171l0.078,-0.169l0.08,-0.169l0.082,-0.167l0.084,-0.167l0.086,-0.165l0.088,-0.164l0.089,-0.162l0.092,-0.162l0.093,-0.16l0.096,-0.159l0.097,-0.158l0.099,-0.156l0.101,-0.156l0.102,-0.154l0.105,-0.152l0.106,-0.151l0.108,-0.15l0.11,-0.149l0.111,-0.147l0.113,-0.146l0.115,-0.144l0.117,-0.143l0.118,-0.141l0.12,-0.14l0.121,-0.139l0.123,-0.137l0.125,-0.136l0.126,-0.134l0.128,-0.132l0.13,-0.131l0.131,-0.13l0.132,-0.128l0.134,-0.126l0.136,-0.125l0.137,-0.123l0.139,-0.121l0.14,-0.12l0.141,-0.118l0.143,-0.117l0.144,-0.115l0.146,-0.113l0.147,-0.111l0.149,-0.11l0.15,-0.108l0.151,-0.106l0.153,-0.105l0.153,-0.102l0.156,-0.101l0.156,-0.099l0.158,-0.097l0.159,-0.096l0.16,-0.093l0.162,-0.092l0.162,-0.089l0.164,-0.088l0.165,-0.086l0.167,-0.084l0.167,-0.082l0.169,-0.08l0.169,-0.078l0.171,-0.076l0.172,-0.074l0.173,-0.072l0.174,-0.07l0.175,-0.067l0.176,-0.066l0.178,-0.064l0.178,-0.061l0.179,-0.06l0.18,-0.057l0.181,-0.055l0.182,-0.053l0.183,-0.051l0.184,-0.048l0.184,-0.046l0.186,-0.044l0.186,-0.042l0.187,-0.04l0.188,-0.037l0.189,-0.035l0.19,-0.033l0.19,-0.03l0.191,-0.028l0.192,-0.026l0.193,-0.023l0.193,-0.021l0.194,-0.018l0.195,-0.016l0.195,-0.014l0.196,-0.011l0.196,-0.009l0.198,-0.006l0.197,-0.004l0.198,-0.001l0.198,0.001l0.198,0.004l0.197,0.006l0.197,0.009l0.195,0.011l0.196,0.014l0.194,0.016l0.194,0.018l0.194,0.021l0.192,0.023l0.192,0.026l0.191,0.028l0.191,0.03l0.189,0.033l0.189,0.035l0.188,0.037l0.187,0.04l0.187,0.042l0.185,0.044l0.185,0.046l0.184,0.048l0.183,0.051l0.182,0.053l0.181,0.055l0.18,0.057l0.179,0.06l0.178,0.061l0.177,0.064l0.176,0.066l0.175,0.067l0.174,0.07l0.173,0.072l0.172,0.074l0.171,0.076l0.17,0.078l0.168,0.08l0.168,0.082l0.166,0.084l0.165,0.086l0.164,0.088l0.163,0.089l0.161,0.092l0.161,0.093l0.159,0.096l0.157,0.097l0.157,0.099l0.155,0.101l0.154,0.102l0.153,0.105l0.151,0.106l0.15,0.108l0.148,0.11l0.147,0.111l0.146,0.113l0.144,0.115l0.143,0.116l0.142,0.119l0.14,0.12l0.138,0.121l0.138,0.123l0.135,0.125l0.134,0.126l0.133,0.128l0.131,0.13l0.129,0.131l0.128,0.132l0.127,0.134l0.124,0.136l0.123,0.137l0.122,0.139l0.12,0.14l0.118,0.141l0.116,0.143l0.115,0.144l0.113,0.146l0.112,0.147l0.11,0.149l0.108,0.15l0.106,0.151l0.104,0.152l0.103,0.154l0.101,0.156l0.099,0.156l0.097,0.158l0.095,0.159l0.094,0.16l0.091,0.162l0.09,0.162l0.088,0.164l0.085,0.165l0.084,0.167l0.082,0.167l0.08,0.169l0.078,0.169l0.076,0.171l0.074,0.172l0.072,0.173l0.07,0.174l0.068,0.175l0.065,0.176l0.064,0.177l0.062,0.179l0.059,0.179l0.057,0.18l0.055,0.181l0.053,0.182l0.051,0.183l0.048,0.183l0.047,0.185l0.044,0.186l0.042,0.186l0.039,0.187l0.037,0.188l0.035,0.189l0.033,0.19l0.03,0.19l0.028,0.191l0.026,0.192l0.023,0.193l0.021,0.193l0.018,0.194l0.017,0.195l0.013,0.195l0.011,0.196l0.009,0.196l0.006,0.197l0.004,0.198l0.001,0.193l0,6.471l-0.001,0.193l-0.004,0.198l-0.006,0.197l-0.009,0.197l-0.011,0.195l-0.013,0.196l-0.017,0.194l-0.018,0.194l-0.021,0.194l-0.023,0.192l-0.026,0.192l-0.028,0.191l-0.03,0.191l-0.033,0.189l-0.035,0.189l-0.037,0.188l-0.039,0.187l-0.042,0.187l-0.044,0.185l-0.047,0.185l-0.048,0.184l-0.051,0.183l-0.053,0.182l-0.055,0.181l-0.057,0.18l-0.059,0.179l-0.062,0.178l-0.064,0.177l-0.065,0.177l-0.068,0.175l-0.07,0.174l-0.072,0.173l-0.074,0.172l-0.076,0.17l-0.078,0.17l-0.08,0.169l-0.082,0.167l-0.084,0.166l-0.085,0.165l-0.088,0.164l-0.09,0.163l-0.091,0.162l-0.094,0.16l-0.095,0.159l-0.097,0.158l-0.099,0.156l-0.101,0.155l-0.103,0.154l-0.104,0.153l-0.106,0.151l-0.108,0.15l-0.11,0.149l-0.112,0.147l-0.113,0.145l-0.115,0.145l-0.116,0.143l-0.118,0.141l-0.12,0.14l-0.122,0.139l-0.123,0.137l-0.125,0.135l-0.126,0.135l-0.128,0.132l-0.129,0.131l-0.131,0.13l-0.133,0.128l-0.134,0.126l-0.136,0.125l-0.137,0.123l-0.138,0.121l-0.14,0.12l-0.142,0.118l-0.143,0.117l-0.144,0.114l-0.146,0.114l-0.147,0.111l-0.148,0.11l-0.15,0.108l-0.151,0.106l-0.153,0.104l-0.154,0.103l-0.155,0.101l-0.157,0.099l-0.157,0.097l-0.159,0.095l-0.161,0.094l-0.161,0.091l-0.163,0.09l-0.164,0.088l-0.165,0.086l-0.166,0.083l-0.168,0.082l-0.168,0.08l-0.17,0.078l-0.171,0.076l-0.172,0.074l-0.173,0.072l-0.174,0.07l-0.175,0.068l-0.176,0.065l-0.177,0.064l-0.178,0.062l-0.179,0.059l-0.18,0.057l-0.181,0.055l-0.182,0.053l-0.183,0.051l-0.184,0.048l-0.185,0.047l-0.185,0.044l-0.187,0.042l-0.187,0.039l-0.188,0.037l-0.189,0.035l-0.189,0.033l-0.191,0.03l-0.191,0.028l-0.192,0.026l-0.192,0.023l-0.194,0.021l-0.194,0.018l-0.194,0.016l-0.196,0.014l-0.195,0.011l-0.197,0.009l-0.197,0.006l-0.198,0.004l-0.198,0.001ZM46.518,48.379l0.158,-0.001l0.158,-0.003l0.157,-0.005l0.156,-0.007l0.156,-0.009l0.155,-0.01l0.155,-0.013l0.154,-0.015l0.153,-0.016l0.153,-0.019l0.152,-0.02l0.152,-0.022l0.151,-0.024l0.15,-0.026l0.15,-0.028l0.149,-0.03l0.148,-0.031l0.148,-0.033l0.147,-0.035l0.146,-0.037l0.146,-0.038l0.144,-0.04l0.145,-0.042l0.143,-0.044l0.143,-0.045l0.141,-0.047l0.141,-0.049l0.141,-0.05l0.139,-0.052l0.139,-0.054l0.138,-0.055l0.137,-0.057l0.136,-0.059l0.135,-0.06l0.135,-0.062l0.134,-0.063l0.132,-0.065l0.132,-0.067l0.131,-0.068l0.13,-0.069l0.129,-0.071l0.128,-0.073l0.127,-0.074l0.126,-0.076l0.126,-0.077l0.124,-0.078l0.123,-0.08l0.122,-0.082l0.121,-0.083l0.12,-0.084l0.119,-0.086l0.118,-0.087l0.117,-0.088l0.116,-0.09l0.115,-0.091l0.113,-0.093l0.112,-0.094l0.112,-0.095l0.11,-0.097l0.109,-0.097l0.107,-0.099l0.107,-0.101l0.105,-0.101l0.104,-0.103l0.103,-0.104l0.102,-0.106l0.1,-0.106l0.099,-0.108l0.098,-0.109l0.097,-0.11l0.095,-0.111l0.094,-0.113l0.092,-0.113l0.092,-0.115l0.09,-0.116l0.088,-0.117l0.087,-0.117l0.086,-0.119l0.084,-0.121l0.083,-0.121l0.082,-0.122l0.08,-0.123l0.078,-0.124l0.077,-0.125l0.076,-0.126l0.074,-0.128l0.073,-0.128l0.071,-0.129l0.069,-0.13l0.068,-0.131l0.067,-0.131l0.065,-0.133l0.063,-0.134l0.062,-0.134l0.06,-0.136l0.059,-0.136l0.057,-0.137l0.055,-0.138l0.054,-0.138l0.052,-0.14l0.05,-0.14l0.049,-0.141l0.047,-0.142l0.045,-0.143l0.044,-0.143l0.042,-0.144l0.04,-0.145l0.038,-0.146l0.037,-0.146l0.035,-0.147l0.033,-0.148l0.032,-0.148l0.029,-0.149l0.028,-0.15l0.026,-0.15l0.024,-0.151l0.022,-0.152l0.02,-0.152l0.019,-0.153l0.016,-0.153l0.015,-0.154l0.013,-0.155l0.01,-0.155l0.009,-0.156l0.007,-0.156l0.005,-0.157l0.003,-0.158l0.001,-0.163l0,-6.451l-0.001,-0.163l-0.003,-0.157l-0.005,-0.157l-0.007,-0.157l-0.009,-0.155l-0.01,-0.155l-0.013,-0.155l-0.015,-0.154l-0.016,-0.154l-0.019,-0.152l-0.02,-0.153l-0.022,-0.151l-0.024,-0.151l-0.026,-0.151l-0.028,-0.149l-0.029,-0.149l-0.032,-0.149l-0.033,-0.147l-0.035,-0.147l-0.037,-0.147l-0.038,-0.145l-0.04,-0.145l-0.042,-0.144l-0.044,-0.143l-0.045,-0.143l-0.047,-0.142l-0.049,-0.141l-0.05,-0.14l-0.052,-0.14l-0.054,-0.139l-0.055,-0.137l-0.057,-0.137l-0.059,-0.137l-0.06,-0.135l-0.062,-0.134l-0.063,-0.134l-0.065,-0.133l-0.067,-0.132l-0.068,-0.131l-0.069,-0.129l-0.071,-0.13l-0.073,-0.128l-0.074,-0.127l-0.076,-0.126l-0.077,-0.125l-0.078,-0.124l-0.08,-0.123l-0.082,-0.123l-0.083,-0.121l-0.084,-0.12l-0.086,-0.119l-0.087,-0.118l-0.088,-0.117l-0.09,-0.115l-0.092,-0.115l-0.092,-0.114l-0.094,-0.112l-0.095,-0.111l-0.097,-0.11l-0.098,-0.109l-0.099,-0.108l-0.1,-0.107l-0.102,-0.105l-0.103,-0.104l-0.104,-0.103l-0.105,-0.102l-0.107,-0.1l-0.107,-0.099l-0.109,-0.098l-0.11,-0.096l-0.112,-0.096l-0.112,-0.093l-0.114,-0.093l-0.114,-0.091l-0.116,-0.09l-0.117,-0.089l-0.118,-0.087l-0.119,-0.085l-0.12,-0.085l-0.121,-0.083l-0.122,-0.081l-0.123,-0.08l-0.124,-0.079l-0.126,-0.077l-0.126,-0.075l-0.127,-0.075l-0.128,-0.072l-0.129,-0.071l-0.13,-0.07l-0.131,-0.068l-0.132,-0.066l-0.133,-0.065l-0.133,-0.064l-0.135,-0.062l-0.135,-0.06l-0.136,-0.058l-0.137,-0.057l-0.138,-0.056l-0.139,-0.053l-0.139,-0.052l-0.141,-0.051l-0.141,-0.049l-0.141,-0.047l-0.143,-0.045l-0.143,-0.044l-0.145,-0.041l-0.144,-0.041l-0.146,-0.038l-0.146,-0.037l-0.147,-0.035l-0.148,-0.033l-0.148,-0.031l-0.149,-0.03l-0.15,-0.027l-0.15,-0.026l-0.151,-0.024l-0.152,-0.022l-0.152,-0.021l-0.153,-0.018l-0.153,-0.017l-0.154,-0.014l-0.155,-0.013l-0.155,-0.011l-0.156,-0.009l-0.156,-0.007l-0.157,-0.005l-0.158,-0.003l-0.158,-0.001l-0.158,0.001l-0.157,0.003l-0.157,0.005l-0.156,0.007l-0.156,0.009l-0.155,0.011l-0.155,0.013l-0.154,0.014l-0.154,0.017l-0.152,0.018l-0.153,0.021l-0.151,0.022l-0.151,0.024l-0.15,0.026l-0.15,0.027l-0.149,0.03l-0.149,0.031l-0.147,0.033l-0.147,0.035l-0.146,0.037l-0.146,0.038l-0.145,0.041l-0.144,0.041l-0.143,0.044l-0.143,0.045l-0.142,0.047l-0.141,0.049l-0.14,0.051l-0.14,0.052l-0.138,0.053l-0.138,0.056l-0.137,0.057l-0.137,0.058l-0.135,0.06l-0.134,0.062l-0.134,0.064l-0.133,0.065l-0.132,0.066l-0.13,0.068l-0.13,0.07l-0.129,0.071l-0.129,0.072l-0.127,0.075l-0.126,0.075l-0.125,0.077l-0.124,0.079l-0.123,0.08l-0.123,0.081l-0.121,0.083l-0.12,0.085l-0.119,0.085l-0.118,0.087l-0.117,0.089l-0.115,0.09l-0.115,0.091l-0.113,0.092l-0.113,0.094l-0.111,0.096l-0.11,0.096l-0.109,0.098l-0.108,0.099l-0.106,0.1l-0.106,0.102l-0.104,0.103l-0.103,0.104l-0.101,0.105l-0.101,0.107l-0.099,0.108l-0.098,0.109l-0.096,0.11l-0.095,0.111l-0.094,0.112l-0.093,0.114l-0.091,0.115l-0.09,0.115l-0.089,0.117l-0.087,0.118l-0.085,0.119l-0.085,0.12l-0.083,0.121l-0.081,0.123l-0.08,0.123l-0.079,0.124l-0.077,0.125l-0.075,0.126l-0.074,0.127l-0.073,0.128l-0.071,0.129l-0.07,0.13l-0.068,0.131l-0.066,0.132l-0.065,0.133l-0.064,0.134l-0.062,0.134l-0.06,0.135l-0.058,0.137l-0.057,0.137l-0.056,0.137l-0.053,0.139l-0.052,0.14l-0.051,0.14l-0.048,0.141l-0.048,0.142l-0.045,0.143l-0.043,0.143l-0.042,0.144l-0.041,0.145l-0.038,0.145l-0.037,0.147l-0.035,0.147l-0.033,0.147l-0.031,0.149l-0.03,0.149l-0.027,0.149l-0.026,0.151l-0.024,0.151l-0.022,0.151l-0.021,0.153l-0.018,0.152l-0.017,0.154l-0.014,0.154l-0.013,0.155l-0.011,0.155l-0.009,0.156l-0.007,0.156l-0.005,0.157l-0.003,0.157l-0.001,0.163l0,6.451l0.001,0.163l0.003,0.158l0.005,0.157l0.007,0.156l0.009,0.156l0.011,0.155l0.013,0.155l0.014,0.154l0.017,0.153l0.018,0.153l0.021,0.152l0.022,0.152l0.024,0.151l0.026,0.15l0.027,0.15l0.03,0.149l0.031,0.148l0.033,0.148l0.035,0.147l0.037,0.146l0.038,0.146l0.041,0.145l0.042,0.144l0.043,0.143l0.045,0.143l0.048,0.142l0.048,0.141l0.051,0.14l0.052,0.14l0.053,0.138l0.056,0.138l0.057,0.137l0.058,0.136l0.061,0.136l0.061,0.134l0.064,0.134l0.065,0.133l0.066,0.131l0.068,0.131l0.07,0.13l0.071,0.129l0.073,0.128l0.074,0.128l0.075,0.126l0.077,0.125l0.079,0.124l0.08,0.123l0.081,0.122l0.083,0.122l0.085,0.12l0.085,0.119l0.087,0.118l0.089,0.116l0.09,0.116l0.091,0.115l0.093,0.113l0.094,0.113l0.095,0.111l0.096,0.11l0.098,0.109l0.099,0.108l0.101,0.106l0.101,0.106l0.103,0.104l0.104,0.103l0.106,0.101l0.106,0.101l0.108,0.099l0.109,0.097l0.11,0.097l0.111,0.095l0.112,0.094l0.114,0.093l0.115,0.091l0.115,0.09l0.117,0.088l0.118,0.087l0.119,0.086l0.12,0.084l0.121,0.083l0.123,0.082l0.123,0.08l0.124,0.078l0.125,0.077l0.126,0.076l0.127,0.074l0.128,0.073l0.13,0.071l0.13,0.069l0.13,0.068l0.132,0.067l0.133,0.065l0.134,0.063l0.134,0.062l0.135,0.06l0.137,0.059l0.137,0.057l0.137,0.055l0.139,0.054l0.14,0.052l0.14,0.05l0.141,0.049l0.142,0.047l0.143,0.045l0.143,0.044l0.144,0.042l0.145,0.04l0.145,0.038l0.147,0.037l0.147,0.035l0.147,0.033l0.149,0.031l0.149,0.03l0.149,0.028l0.151,0.026l0.151,0.024l0.151,0.022l0.153,0.02l0.152,0.019l0.154,0.016l0.154,0.015l0.155,0.013l0.155,0.01l0.156,0.009l0.156,0.007l0.157,0.005l0.157,0.003l0.158,0.001Z" style="fill:#3f3f3f;"/></svg>