<?xml version="1.0" standalone="no"?><!DOCTYPE svg PUBLIC "-//W3C//DTD SVG 1.1//EN" "http://www.w3.org/Graphics/SVG/1.1/DTD/svg11.dtd"><svg width="100%" height="100%" viewBox="0 0 687 385" version="1.1" xmlns="http://www.w3.org/2000/svg" xmlns:xlink="http://www.w3.org/1999/xlink" xml:space="preserve" style="fill-rule:evenodd;clip-rule:evenodd;stroke-linejoin:round;stroke-miterlimit:1.41421;"><path d="M86.224,102.259l9.368,0l-4.699,-15.115l-4.669,15.115ZM98.107,110.371l-14.398,0l-2.514,8.141l-11.225,0l15.984,-43.581l9.878,0l16.103,43.581l-11.285,0l-2.543,-8.141Z" style="fill:#00324a;fill-rule:nonzero;"/><path d="M142.826,106.509l5.118,-20.383l10.627,0l-10.566,32.386l-10.298,0l-10.566,-32.386l10.656,0l5.029,20.383Z" style="fill:#00324a;fill-rule:nonzero;"/><path d="M172.219,118.512l-10.117,0l0,-32.386l10.117,0l0,32.386ZM161.503,77.745c0,-1.446 0.519,-2.63 1.557,-3.554c1.037,-0.923 2.385,-1.385 4.041,-1.385c1.655,0 3.003,0.462 4.041,1.385c1.036,0.924 1.555,2.108 1.555,3.554c0,1.445 -0.519,2.63 -1.555,3.553c-1.038,0.924 -2.386,1.385 -4.041,1.385c-1.656,0 -3.004,-0.461 -4.041,-1.385c-1.038,-0.923 -1.557,-2.108 -1.557,-3.553" style="fill:#00324a;fill-rule:nonzero;"/><path d="M195.387,109.413c0,-0.857 -0.449,-1.546 -1.348,-2.065c-0.898,-0.519 -2.604,-1.057 -5.118,-1.617c-2.514,-0.558 -4.589,-1.291 -6.226,-2.199c-1.636,-0.908 -2.883,-2.011 -3.741,-3.308c-0.859,-1.297 -1.288,-2.784 -1.288,-4.46c0,-2.973 1.228,-5.422 3.683,-7.348c2.454,-1.926 5.666,-2.889 9.637,-2.889c4.27,0 7.703,0.969 10.296,2.903c2.595,1.937 3.892,4.481 3.892,7.634l-10.117,0c0,-2.594 -1.367,-3.892 -4.101,-3.892c-1.058,0 -1.944,0.295 -2.663,0.883c-0.718,0.589 -1.078,1.322 -1.078,2.201c0,0.897 0.439,1.626 1.317,2.184c0.878,0.559 2.279,1.018 4.206,1.377c1.924,0.36 3.617,0.789 5.072,1.288c4.87,1.676 7.305,4.679 7.305,9.009c0,2.953 -1.313,5.358 -3.937,7.214c-2.624,1.855 -6.022,2.783 -10.192,2.783c-2.774,0 -5.249,-0.499 -7.423,-1.496c-2.175,-0.998 -3.871,-2.355 -5.088,-4.071c-1.217,-1.716 -1.826,-3.522 -1.826,-5.417l9.428,0c0.041,1.496 0.539,2.588 1.498,3.277c0.957,0.688 2.185,1.032 3.681,1.032c1.377,0 2.409,-0.279 3.098,-0.838c0.689,-0.558 1.033,-1.287 1.033,-2.185" style="fill:#00324a;fill-rule:nonzero;"/><path d="M220.469,118.512l-10.117,0l0,-32.386l10.117,0l0,32.386ZM209.753,77.745c0,-1.446 0.519,-2.63 1.557,-3.554c1.037,-0.923 2.385,-1.385 4.041,-1.385c1.655,0 3.003,0.462 4.041,1.385c1.037,0.924 1.556,2.108 1.556,3.554c0,1.445 -0.519,2.63 -1.556,3.553c-1.038,0.924 -2.386,1.385 -4.041,1.385c-1.656,0 -3.004,-0.461 -4.041,-1.385c-1.038,-0.923 -1.557,-2.108 -1.557,-3.553" style="fill:#00324a;fill-rule:nonzero;"/><path d="M235.494,102.648c0,2.993 0.469,5.189 1.407,6.585c0.938,1.397 2.325,2.095 4.161,2.095c3.592,0 5.428,-2.763 5.508,-8.291l0,-1.018c0,-5.806 -1.856,-8.71 -5.569,-8.71c-3.372,0 -5.197,2.505 -5.476,7.513l-0.031,1.826ZM225.408,102.019c0,-3.233 0.628,-6.11 1.886,-8.635c1.256,-2.524 3.062,-4.465 5.417,-5.822c2.354,-1.357 5.119,-2.036 8.29,-2.036c4.85,0 8.671,1.503 11.466,4.506c2.792,3.003 4.19,7.089 4.19,12.257l0,0.359c0,5.048 -1.402,9.054 -4.206,12.018c-2.803,2.963 -6.6,4.444 -11.389,4.444c-4.61,0 -8.311,-1.381 -11.105,-4.145c-2.794,-2.764 -4.3,-6.51 -4.519,-11.239l-0.03,-1.707Z" style="fill:#00324a;fill-rule:nonzero;"/><path d="M270.367,86.126l0.329,3.801c2.235,-2.933 5.317,-4.4 9.249,-4.4c3.371,0 5.891,1.008 7.557,3.023c1.666,2.016 2.529,5.049 2.59,9.1l0,20.862l-10.117,0l0,-20.443c0,-1.636 -0.329,-2.839 -0.988,-3.607c-0.658,-0.768 -1.856,-1.152 -3.593,-1.152c-1.974,0 -3.442,0.778 -4.399,2.334l0,22.868l-10.088,0l0,-32.386l9.46,0Z" style="fill:#00324a;fill-rule:nonzero;"/><path d="M170.296,172.889c0,2.993 0.469,5.189 1.407,6.585c0.938,1.397 2.325,2.095 4.161,2.095c3.592,0 5.428,-2.763 5.508,-8.291l0,-1.018c0,-5.806 -1.856,-8.71 -5.569,-8.71c-3.372,0 -5.197,2.505 -5.476,7.513l-0.031,1.826ZM160.21,172.26c0,-3.233 0.628,-6.11 1.886,-8.635c1.256,-2.524 3.062,-4.465 5.417,-5.822c2.354,-1.357 5.119,-2.036 8.29,-2.036c4.85,0 8.671,1.503 11.466,4.506c2.792,3.003 4.19,7.089 4.19,12.257l0,0.359c0,5.048 -1.402,9.054 -4.206,12.018c-2.803,2.963 -6.6,4.444 -11.389,4.444c-4.61,0 -8.311,-1.381 -11.105,-4.145c-2.794,-2.764 -4.3,-6.51 -4.519,-11.239l-0.03,-1.707Z" style="fill:#00324a;fill-rule:nonzero;"/><path d="M198.132,188.753l0,-25.383l-4.7,0l0,-7.003l4.7,0l0,-2.575c0,-3.691 1.088,-6.555 3.262,-8.59c2.175,-2.036 5.228,-3.053 9.16,-3.053c1.437,0 3.013,0.209 4.728,0.628l0.032,7.423c-0.619,-0.179 -1.448,-0.269 -2.486,-0.269c-3.053,0 -4.579,1.317 -4.579,3.951l0,2.485l6.315,0l0,7.003l-6.315,0l0,25.383l-10.117,0Z" style="fill:#00324a;fill-rule:nonzero;"/><path d="M242.192,172.889c0,2.993 0.469,5.189 1.407,6.585c0.938,1.397 2.325,2.095 4.161,2.095c3.592,0 5.428,-2.763 5.508,-8.291l0,-1.018c0,-5.806 -1.856,-8.71 -5.569,-8.71c-3.372,0 -5.197,2.505 -5.476,7.513l-0.031,1.826ZM232.106,172.26c0,-3.233 0.628,-6.11 1.886,-8.635c1.256,-2.524 3.062,-4.465 5.417,-5.822c2.354,-1.357 5.119,-2.036 8.29,-2.036c4.85,0 8.671,1.503 11.466,4.506c2.792,3.003 4.19,7.089 4.19,12.257l0,0.359c0,5.048 -1.402,9.054 -4.206,12.018c-2.803,2.963 -6.6,4.444 -11.389,4.444c-4.61,0 -8.311,-1.381 -11.105,-4.145c-2.794,-2.764 -4.3,-6.51 -4.519,-11.239l-0.03,-1.707Z" style="fill:#00324a;fill-rule:nonzero;"/><path d="M287.091,185.251c-2.135,2.733 -5.02,4.1 -8.651,4.1c-3.551,0 -6.241,-1.032 -8.066,-3.098c-1.827,-2.065 -2.74,-5.033 -2.74,-8.905l0,-20.981l10.088,0l0,21.041c0,2.774 1.346,4.161 4.041,4.161c2.314,0 3.961,-0.828 4.938,-2.485l0,-22.717l10.147,0l0,32.386l-9.458,0l-0.299,-3.502Z" style="fill:#00324a;fill-rule:nonzero;"/><path d="M321.962,165.496l-3.323,-0.24c-3.172,0 -5.208,0.998 -6.105,2.994l0,20.503l-10.088,0l0,-32.386l9.458,0l0.33,4.16c1.696,-3.173 4.06,-4.759 7.094,-4.759c1.077,0 2.015,0.12 2.813,0.359l-0.179,9.369Z" style="fill:#00324a;fill-rule:nonzero;"/><path d="M346.095,188.753l0,-25.383l-4.7,0l0,-7.003l4.7,0l0,-2.575c0,-3.691 1.088,-6.555 3.262,-8.59c2.175,-2.036 5.228,-3.053 9.16,-3.053c1.437,0 3.013,0.209 4.728,0.628l0.032,7.423c-0.619,-0.179 -1.448,-0.269 -2.486,-0.269c-3.053,0 -4.579,1.317 -4.579,3.951l0,2.485l6.315,0l0,7.003l-6.315,0l0,25.383l-10.117,0Z" style="fill:#00324a;fill-rule:nonzero;"/><path d="M385.365,185.251c-2.135,2.733 -5.02,4.1 -8.651,4.1c-3.551,0 -6.241,-1.032 -8.066,-3.098c-1.827,-2.065 -2.74,-5.033 -2.74,-8.905l0,-20.981l10.088,0l0,21.041c0,2.774 1.346,4.161 4.041,4.161c2.314,0 3.961,-0.828 4.938,-2.485l0,-22.717l10.147,0l0,32.386l-9.458,0l-0.299,-3.502Z" style="fill:#00324a;fill-rule:nonzero;"/><path d="M412.394,148.314l0,8.052l5.327,0l0,7.005l-5.327,0l0,14.816c0,1.218 0.218,2.065 0.658,2.544c0.439,0.48 1.307,0.718 2.604,0.718c0.997,0 1.836,-0.06 2.515,-0.179l0,7.214c-1.817,0.578 -3.712,0.868 -5.688,0.868c-3.472,0 -6.036,-0.817 -7.693,-2.456c-1.656,-1.635 -2.484,-4.119 -2.484,-7.453l0,-16.072l-4.131,0l0,-7.005l4.131,0l0,-8.052l10.088,0Z" style="fill:#00324a;fill-rule:nonzero;"/><path d="M440.979,185.251c-2.135,2.733 -5.02,4.1 -8.651,4.1c-3.551,0 -6.241,-1.032 -8.066,-3.098c-1.827,-2.065 -2.74,-5.033 -2.74,-8.905l0,-20.981l10.088,0l0,21.041c0,2.774 1.346,4.161 4.041,4.161c2.314,0 3.961,-0.828 4.938,-2.485l0,-22.717l10.147,0l0,32.386l-9.458,0l-0.299,-3.502Z" style="fill:#00324a;fill-rule:nonzero;"/><path d="M475.85,165.496l-3.323,-0.24c-3.172,0 -5.208,0.998 -6.105,2.994l0,20.503l-10.088,0l0,-32.386l9.458,0l0.33,4.16c1.696,-3.173 4.06,-4.759 7.094,-4.759c1.077,0 2.015,0.12 2.813,0.359l-0.179,9.369Z" style="fill:#00324a;fill-rule:nonzero;"/><path d="M493.45,163.55c-2.953,0 -4.71,1.956 -5.267,5.867l10.176,0l0,-0.779c0.039,-1.616 -0.369,-2.868 -1.228,-3.756c-0.857,-0.888 -2.085,-1.332 -3.681,-1.332M494.588,189.351c-4.97,0 -8.991,-1.481 -12.064,-4.444c-3.073,-2.964 -4.608,-6.82 -4.608,-11.569l0,-0.839c0,-3.311 0.612,-6.235 1.84,-8.77c1.227,-2.534 3.017,-4.494 5.372,-5.881c2.355,-1.387 5.149,-2.081 8.381,-2.081c4.551,0 8.143,1.412 10.777,4.236c2.633,2.824 3.95,6.76 3.95,11.808l0,3.921l-20.053,0c0.358,1.816 1.147,3.243 2.364,4.28c1.217,1.038 2.792,1.557 4.729,1.557c3.192,0 5.687,-1.117 7.482,-3.353l4.61,5.448c-1.257,1.737 -3.037,3.118 -5.342,4.146c-2.305,1.028 -4.784,1.541 -7.438,1.541" style="fill:#00324a;fill-rule:nonzero;"/><path d="M148.483,233.791c-2.953,0 -4.71,1.956 -5.267,5.866l10.176,0l0,-0.778c0.039,-1.616 -0.369,-2.867 -1.228,-3.756c-0.857,-0.888 -2.085,-1.332 -3.681,-1.332M149.621,259.592c-4.97,0 -8.991,-1.482 -12.064,-4.444c-3.073,-2.965 -4.608,-6.82 -4.608,-11.569l0,-0.838c0,-3.313 0.612,-6.237 1.84,-8.771c1.227,-2.534 3.017,-4.494 5.372,-5.881c2.355,-1.387 5.149,-2.081 8.381,-2.081c4.551,0 8.143,1.412 10.777,4.236c2.633,2.824 3.95,6.76 3.95,11.808l0,3.921l-20.053,0c0.358,1.816 1.147,3.243 2.364,4.281c1.217,1.038 2.792,1.555 4.729,1.555c3.192,0 5.687,-1.117 7.482,-3.352l4.61,5.448c-1.257,1.737 -3.037,3.119 -5.342,4.146c-2.305,1.027 -4.784,1.541 -7.438,1.541" style="fill:#00324a;fill-rule:nonzero;"/><path d="M176.589,226.607l0.329,3.803c2.235,-2.935 5.317,-4.401 9.249,-4.401c3.371,0 5.891,1.008 7.557,3.023c1.666,2.015 2.529,5.049 2.59,9.099l0,20.863l-10.117,0l0,-20.443c0,-1.637 -0.329,-2.84 -0.988,-3.608c-0.658,-0.767 -1.856,-1.152 -3.593,-1.152c-1.974,0 -3.442,0.778 -4.399,2.335l0,22.868l-10.088,0l0,-32.387l9.46,0Z" style="fill:#00324a;fill-rule:nonzero;"/><path d="M216.428,233.791c-2.953,0 -4.71,1.956 -5.267,5.866l10.176,0l0,-0.778c0.039,-1.616 -0.369,-2.867 -1.228,-3.756c-0.857,-0.888 -2.085,-1.332 -3.681,-1.332M217.566,259.592c-4.97,0 -8.991,-1.482 -12.064,-4.444c-3.073,-2.965 -4.608,-6.82 -4.608,-11.569l0,-0.838c0,-3.313 0.612,-6.237 1.84,-8.771c1.227,-2.534 3.017,-4.494 5.372,-5.881c2.355,-1.387 5.149,-2.081 8.381,-2.081c4.551,0 8.143,1.412 10.777,4.236c2.633,2.824 3.95,6.76 3.95,11.808l0,3.921l-20.053,0c0.358,1.816 1.147,3.243 2.364,4.281c1.217,1.038 2.792,1.555 4.729,1.555c3.192,0 5.687,-1.117 7.482,-3.352l4.61,5.448c-1.257,1.737 -3.037,3.119 -5.342,4.146c-2.305,1.027 -4.784,1.541 -7.438,1.541" style="fill:#00324a;fill-rule:nonzero;"/><path d="M254.862,235.736l-3.323,-0.238c-3.172,0 -5.208,0.997 -6.105,2.992l0,20.504l-10.088,0l0,-32.387l9.458,0l0.33,4.161c1.696,-3.173 4.06,-4.76 7.094,-4.76c1.077,0 2.015,0.12 2.813,0.36l-0.179,9.368Z" style="fill:#00324a;fill-rule:nonzero;"/><path d="M266.863,243.19c0,2.654 0.499,4.755 1.498,6.301c0.997,1.546 2.393,2.319 4.19,2.319c2.174,0 3.761,-0.728 4.758,-2.185l0,-13.619c-0.977,-1.476 -2.543,-2.215 -4.699,-2.215c-1.795,0 -3.202,0.803 -4.22,2.41c-1.017,1.606 -1.527,3.936 -1.527,6.989M256.746,242.56c0,-3.271 0.539,-6.165 1.617,-8.678c1.077,-2.516 2.623,-4.456 4.64,-5.823c2.015,-1.366 4.359,-2.051 7.033,-2.051c3.372,0 6.006,1.138 7.903,3.413l0.358,-2.814l9.16,0l0,31.16c0,2.852 -0.663,5.332 -1.991,7.437c-1.326,2.106 -3.248,3.722 -5.762,4.85c-2.513,1.127 -5.428,1.691 -8.739,1.691c-2.375,0 -4.675,-0.449 -6.901,-1.347c-2.224,-0.897 -3.926,-2.065 -5.102,-3.501l4.22,-5.927c1.875,2.214 4.35,3.322 7.423,3.322c4.469,0 6.704,-2.295 6.704,-6.885l0,-1.017c-1.936,2.135 -4.379,3.202 -7.332,3.202c-3.952,0 -7.144,-1.511 -9.578,-4.535c-2.436,-3.023 -3.653,-7.067 -3.653,-12.137l0,-0.36Z" style="fill:#00324a;fill-rule:nonzero;"/><path d="M306.135,244.865l5.387,-18.258l10.806,0l-13.199,37.804l-0.569,1.377c-1.876,4.191 -5.19,6.285 -9.938,6.285c-1.317,0 -2.704,-0.198 -4.161,-0.595l0,-7.186l1.317,0c1.416,0 2.499,-0.206 3.248,-0.614c0.749,-0.41 1.302,-1.144 1.661,-2.202l0.809,-2.157l-11.255,-32.712l10.776,0l5.118,18.258Z" style="fill:#00324a;fill-rule:nonzero;"/><path d="M273.03,320.135c0,-0.857 -0.449,-1.546 -1.348,-2.065c-0.898,-0.519 -2.604,-1.058 -5.118,-1.616c-2.514,-0.559 -4.589,-1.292 -6.226,-2.2c-1.636,-0.907 -2.883,-2.011 -3.742,-3.307c-0.858,-1.299 -1.287,-2.785 -1.287,-4.461c0,-2.973 1.228,-5.423 3.683,-7.348c2.454,-1.926 5.666,-2.889 9.637,-2.889c4.27,0 7.703,0.968 10.296,2.904c2.595,1.935 3.892,4.48 3.892,7.633l-10.117,0c0,-2.594 -1.367,-3.892 -4.101,-3.892c-1.058,0 -1.944,0.295 -2.663,0.884c-0.718,0.587 -1.078,1.321 -1.078,2.199c0,0.899 0.439,1.627 1.317,2.185c0.878,0.559 2.279,1.017 4.206,1.377c1.924,0.359 3.617,0.789 5.072,1.288c4.87,1.675 7.305,4.68 7.305,9.009c0,2.953 -1.313,5.358 -3.937,7.214c-2.624,1.856 -6.022,2.783 -10.192,2.783c-2.774,0 -5.249,-0.499 -7.423,-1.496c-2.175,-0.997 -3.871,-2.355 -5.088,-4.071c-1.217,-1.715 -1.826,-3.522 -1.826,-5.418l9.428,0c0.041,1.497 0.539,2.59 1.498,3.277c0.957,0.689 2.185,1.033 3.681,1.033c1.377,0 2.409,-0.279 3.098,-0.838c0.689,-0.558 1.033,-1.287 1.033,-2.185" style="fill:#00324a;fill-rule:nonzero;"/><path d="M300.417,315.106l5.387,-18.258l10.806,0l-13.199,37.804l-0.569,1.377c-1.876,4.191 -5.19,6.285 -9.938,6.285c-1.317,0 -2.704,-0.198 -4.161,-0.595l0,-7.186l1.317,0c1.416,0 2.499,-0.206 3.248,-0.614c0.749,-0.41 1.302,-1.144 1.661,-2.202l0.809,-2.157l-11.255,-32.712l10.776,0l5.118,18.258Z" style="fill:#00324a;fill-rule:nonzero;"/><path d="M336.186,320.135c0,-0.857 -0.449,-1.546 -1.348,-2.065c-0.898,-0.519 -2.604,-1.058 -5.118,-1.616c-2.514,-0.559 -4.589,-1.292 -6.226,-2.2c-1.636,-0.907 -2.883,-2.011 -3.741,-3.307c-0.859,-1.299 -1.288,-2.785 -1.288,-4.461c0,-2.973 1.228,-5.423 3.683,-7.348c2.454,-1.926 5.666,-2.889 9.637,-2.889c4.27,0 7.703,0.968 10.296,2.904c2.595,1.935 3.892,4.48 3.892,7.633l-10.117,0c0,-2.594 -1.367,-3.892 -4.101,-3.892c-1.058,0 -1.944,0.295 -2.663,0.884c-0.718,0.587 -1.078,1.321 -1.078,2.199c0,0.899 0.439,1.627 1.317,2.185c0.878,0.559 2.279,1.017 4.206,1.377c1.924,0.359 3.617,0.789 5.072,1.288c4.87,1.675 7.305,4.68 7.305,9.009c0,2.953 -1.313,5.358 -3.937,7.214c-2.624,1.856 -6.022,2.783 -10.192,2.783c-2.774,0 -5.249,-0.499 -7.423,-1.496c-2.175,-0.997 -3.871,-2.355 -5.088,-4.071c-1.217,-1.715 -1.826,-3.522 -1.826,-5.418l9.428,0c0.041,1.497 0.539,2.59 1.498,3.277c0.957,0.689 2.185,1.033 3.681,1.033c1.377,0 2.409,-0.279 3.098,-0.838c0.689,-0.558 1.033,-1.287 1.033,-2.185" style="fill:#00324a;fill-rule:nonzero;"/><path d="M362.377,288.797l0,8.051l5.327,0l0,7.005l-5.327,0l0,14.816c0,1.217 0.218,2.065 0.658,2.545c0.439,0.478 1.307,0.718 2.604,0.718c0.997,0 1.836,-0.061 2.515,-0.181l0,7.214c-1.817,0.578 -3.712,0.868 -5.688,0.868c-3.472,0 -6.036,-0.818 -7.693,-2.454c-1.656,-1.637 -2.484,-4.121 -2.484,-7.453l0,-16.073l-4.131,0l0,-7.005l4.131,0l0,-8.051l10.088,0Z" style="fill:#00324a;fill-rule:nonzero;"/><path d="M386.203,304.032c-2.953,0 -4.71,1.956 -5.267,5.866l10.176,0l0,-0.778c0.039,-1.616 -0.369,-2.867 -1.228,-3.756c-0.857,-0.888 -2.085,-1.332 -3.681,-1.332M387.341,329.833c-4.97,0 -8.991,-1.482 -12.064,-4.444c-3.073,-2.965 -4.608,-6.82 -4.608,-11.569l0,-0.838c0,-3.313 0.612,-6.237 1.84,-8.771c1.227,-2.534 3.017,-4.494 5.372,-5.881c2.355,-1.387 5.149,-2.081 8.381,-2.081c4.551,0 8.143,1.412 10.777,4.236c2.633,2.824 3.95,6.76 3.95,11.808l0,3.921l-20.053,0c0.358,1.816 1.147,3.243 2.364,4.281c1.217,1.038 2.792,1.555 4.729,1.555c3.192,0 5.687,-1.117 7.482,-3.352l4.61,5.448c-1.257,1.737 -3.037,3.119 -5.342,4.146c-2.305,1.027 -4.784,1.541 -7.438,1.541" style="fill:#00324a;fill-rule:nonzero;"/><path d="M414.578,296.848l0.33,3.803c2.294,-2.935 5.377,-4.401 9.25,-4.401c4.089,0 6.853,1.627 8.29,4.879c2.195,-3.252 5.367,-4.879 9.519,-4.879c6.564,0 9.937,3.97 10.116,11.912l0,21.073l-10.116,0l0,-20.443c0,-1.657 -0.28,-2.863 -0.838,-3.622c-0.56,-0.759 -1.577,-1.138 -3.053,-1.138c-1.997,0 -3.483,0.889 -4.46,2.664l0.029,0.419l0,22.12l-10.117,0l0,-20.384c0,-1.696 -0.27,-2.922 -0.807,-3.681c-0.54,-0.759 -1.568,-1.138 -3.084,-1.138c-1.936,0 -3.412,0.889 -4.429,2.664l0,22.539l-10.088,0l0,-32.387l9.458,0Z" style="fill:#00324a;fill-rule:nonzero;"/><path d="M177.208,384.965c-30.807,0 -55.869,-25.157 -55.869,-56.079c0,-30.921 25.062,-56.078 55.869,-56.078c15.264,0 29.505,6.055 40.123,17.054c0.047,0.052 0.775,0.793 0.824,0.842c0,0 -3.316,1.361 -3.673,1.009c-0.039,-0.038 -0.5,-0.581 -0.537,-0.618c-9.878,-9.692 -22.857,-15.008 -36.737,-15.008c-29.006,0 -52.604,23.685 -52.604,52.799c0,29.115 23.598,52.801 52.604,52.801c21.591,0 41.32,-13.579 49.092,-33.791l3.321,0.474c-0.018,0.046 -0.311,0.798 -0.329,0.846c-8.292,21.39 -29.203,35.75 -52.084,35.75" style="fill:#de634d;fill-rule:nonzero;"/><path d="M163.879,333.637l3.95,0l0,-7.078l-3.95,0l0,7.078ZM163.879,336.464l3.95,0l0,-1.554l-3.95,0l0,1.554ZM168.537,308.98l37.112,0l0,1.272l-37.112,0c-2.568,0 -4.658,2.098 -4.658,4.676l0,10.359l3.949,0l0,-10.359c0,-0.393 0.317,-0.711 0.709,-0.711l37.112,0l0,1.271l-36.554,0l0,21.612c0,0.351 -0.284,0.636 -0.633,0.636l-5.218,0c-0.35,0 -0.632,-0.285 -0.632,-0.636l0,-22.172c0,-3.279 2.658,-5.948 5.925,-5.948" style="fill:#ea958b;fill-rule:nonzero;"/><path d="M139.732,360.961l50.155,0l0,-23.21l-50.155,0l0,23.21ZM191.193,362.272l-52.768,0l0,-25.832l52.768,0l0,25.832Z" style="fill:#ea958b;fill-rule:nonzero;"/><path d="M126.924,347.829l11.501,0l0,-3.743l-12.087,0l0.586,3.743ZM139.733,349.14l-14.117,0l0,-6.364l14.117,0l0,6.364Z" style="fill:#ea958b;fill-rule:nonzero;"/><rect x="157.514" y="337.096" width="1.308" height="24.521" style="fill:#ea958b;fill-rule:nonzero;"/><path d="M188.102,357.107c-0.034,-0.034 -0.077,-0.052 -0.124,-0.052l-7.424,0c-0.047,0 -0.09,0.018 -0.124,0.052c-0.034,0.034 -0.052,0.077 -0.052,0.125l0,0.355c0,0.048 0.018,0.089 0.052,0.125c0.034,0.034 0.077,0.052 0.124,0.052l7.424,0c0.047,0 0.09,-0.018 0.124,-0.052c0.034,-0.036 0.052,-0.077 0.052,-0.125l0,-0.355c0,-0.048 -0.018,-0.091 -0.052,-0.125" style="fill:#de634d;fill-rule:nonzero;"/><path d="M186.752,353.125c-0.036,-0.377 -0.145,-0.77 -0.312,-1.137c-0.153,-0.336 -0.353,-0.656 -0.594,-0.953c-0.069,-0.083 -0.137,-0.164 -0.173,-0.2l-0.082,-0.09c-0.019,-0.023 -0.037,-0.042 -0.054,-0.059l-0.024,-0.024c-0.026,-0.027 -0.054,-0.054 -0.077,-0.082c-0.002,-0.003 -0.005,-0.005 -0.006,-0.007c-0.012,-0.013 -0.023,-0.026 -0.036,-0.039c-0.018,-0.018 -0.038,-0.038 -0.056,-0.059c-0.002,-0.003 -0.003,-0.007 -0.006,-0.008c-0.126,-0.14 -0.231,-0.264 -0.322,-0.384c-0.106,-0.141 -0.183,-0.259 -0.245,-0.38c-0.072,-0.138 -0.127,-0.292 -0.162,-0.459c-0.032,-0.151 -0.05,-0.324 -0.055,-0.516c-0.005,-0.169 0.005,-0.333 0.015,-0.469c0.008,-0.092 0.017,-0.172 0.026,-0.242c0.006,-0.056 -0.015,-0.11 -0.058,-0.146c-0.04,-0.038 -0.097,-0.051 -0.151,-0.038c-0.08,0.021 -0.162,0.049 -0.244,0.084c-0.169,0.068 -0.338,0.167 -0.498,0.288c-0.205,0.156 -0.383,0.349 -0.534,0.572c-0.181,0.274 -0.311,0.595 -0.373,0.928c-0.071,0.367 -0.062,0.781 0.022,1.166c0.08,0.371 0.236,0.751 0.449,1.099c0.115,0.181 0.223,0.332 0.33,0.46c0.033,0.039 0.119,0.143 0.121,0.144l0.036,0.041c0.025,0.028 0.043,0.049 0.06,0.071c0.017,0.019 0.03,0.036 0.045,0.052l0.003,0.004c0.168,0.199 0.286,0.347 0.383,0.478c0.108,0.144 0.203,0.284 0.289,0.426c0.094,0.154 0.16,0.287 0.209,0.42c0.056,0.152 0.094,0.316 0.11,0.49c0.014,0.152 0.014,0.323 0,0.521c-0.015,0.18 -0.043,0.344 -0.065,0.464c-0.017,0.082 -0.033,0.157 -0.048,0.223c-0.011,0.055 0.003,0.114 0.044,0.154c0.031,0.032 0.075,0.05 0.121,0.05c0.01,0 0.021,0 0.031,-0.001c0.078,-0.017 0.155,-0.036 0.23,-0.062c0.175,-0.056 0.348,-0.14 0.513,-0.246c0.214,-0.136 0.407,-0.31 0.575,-0.518c0.202,-0.253 0.361,-0.553 0.457,-0.872c0.108,-0.356 0.145,-0.752 0.106,-1.144" style="fill:#de634d;fill-rule:nonzero;"/><path d="M183.466,354.156c-0.07,-0.152 -0.162,-0.3 -0.271,-0.434c-0.028,-0.035 -0.06,-0.074 -0.077,-0.09l-0.039,-0.043c-0.01,-0.012 -0.018,-0.018 -0.025,-0.026l-0.011,-0.012c-0.011,-0.011 -0.024,-0.024 -0.034,-0.037c-0.002,-0.002 -0.004,-0.004 -0.007,-0.007l-0.014,-0.015c-0.009,-0.008 -0.017,-0.016 -0.023,-0.026c-0.004,-0.002 -0.005,-0.005 -0.007,-0.007c-0.055,-0.06 -0.103,-0.118 -0.143,-0.172c-0.036,-0.047 -0.077,-0.105 -0.113,-0.173c-0.033,-0.064 -0.059,-0.135 -0.074,-0.21c-0.014,-0.069 -0.024,-0.149 -0.026,-0.236c-0.001,-0.072 0.002,-0.141 0.005,-0.185c0.005,-0.061 -0.023,-0.118 -0.072,-0.151c-0.05,-0.035 -0.112,-0.039 -0.166,-0.013c-0.064,0.029 -0.124,0.065 -0.183,0.111c-0.093,0.071 -0.175,0.159 -0.242,0.261c-0.058,0.087 -0.135,0.231 -0.171,0.423c-0.031,0.167 -0.028,0.357 0.01,0.532c0.037,0.169 0.107,0.343 0.205,0.503c0.053,0.082 0.102,0.151 0.149,0.209c0.015,0.016 0.044,0.052 0.059,0.067l-0.002,0l0.016,0.018c0.012,0.013 0.02,0.023 0.028,0.033c0.007,0.008 0.013,0.016 0.018,0.021l0.003,0.003c0.053,0.062 0.12,0.143 0.175,0.22c0.051,0.065 0.093,0.129 0.132,0.195c0.043,0.069 0.074,0.129 0.095,0.19c0.026,0.069 0.042,0.144 0.051,0.224c0.008,0.069 0.008,0.148 0,0.236c-0.004,0.055 -0.012,0.11 -0.022,0.172c-0.011,0.061 0.012,0.122 0.059,0.159c0.031,0.025 0.069,0.038 0.106,0.038c0.022,0 0.043,-0.005 0.062,-0.013c0.059,-0.023 0.116,-0.054 0.172,-0.088c0.098,-0.063 0.186,-0.141 0.263,-0.238c0.091,-0.113 0.163,-0.251 0.207,-0.397c0.049,-0.16 0.067,-0.346 0.049,-0.523c-0.016,-0.172 -0.065,-0.35 -0.142,-0.519" style="fill:#de634d;fill-rule:nonzero;"/><path d="M178.61,357.107c-0.034,-0.034 -0.077,-0.052 -0.124,-0.052l-7.424,0c-0.047,0 -0.09,0.018 -0.124,0.052c-0.035,0.034 -0.053,0.077 -0.053,0.125l0,0.355c0,0.048 0.018,0.089 0.053,0.125c0.034,0.034 0.077,0.052 0.124,0.052l7.424,0c0.047,0 0.09,-0.018 0.124,-0.052c0.034,-0.036 0.052,-0.077 0.052,-0.125l0,-0.355c0,-0.048 -0.018,-0.091 -0.052,-0.125" style="fill:#de634d;fill-rule:nonzero;"/><path d="M177.26,353.125c-0.036,-0.377 -0.144,-0.77 -0.312,-1.137c-0.153,-0.336 -0.353,-0.656 -0.594,-0.953c-0.069,-0.083 -0.137,-0.164 -0.173,-0.2l-0.082,-0.09c-0.019,-0.023 -0.038,-0.042 -0.054,-0.059l-0.024,-0.024c-0.026,-0.027 -0.054,-0.054 -0.077,-0.082c-0.002,-0.003 -0.005,-0.005 -0.007,-0.007c-0.011,-0.013 -0.022,-0.026 -0.036,-0.039c-0.017,-0.018 -0.037,-0.038 -0.055,-0.059c-0.002,-0.003 -0.003,-0.007 -0.007,-0.008c-0.125,-0.14 -0.23,-0.264 -0.321,-0.384c-0.106,-0.141 -0.181,-0.259 -0.245,-0.38c-0.072,-0.138 -0.127,-0.292 -0.162,-0.459c-0.032,-0.151 -0.05,-0.324 -0.055,-0.516c-0.005,-0.169 0.005,-0.333 0.014,-0.469c0.009,-0.092 0.018,-0.172 0.027,-0.242c0.006,-0.056 -0.015,-0.11 -0.058,-0.146c-0.04,-0.038 -0.097,-0.051 -0.151,-0.038c-0.08,0.021 -0.162,0.049 -0.244,0.084c-0.169,0.068 -0.338,0.167 -0.498,0.288c-0.205,0.156 -0.383,0.349 -0.534,0.572c-0.181,0.274 -0.311,0.595 -0.373,0.928c-0.071,0.367 -0.062,0.781 0.022,1.166c0.08,0.371 0.236,0.751 0.449,1.099c0.115,0.181 0.222,0.332 0.33,0.46c0.033,0.039 0.119,0.143 0.121,0.144l0.036,0.041c0.024,0.028 0.042,0.049 0.06,0.071c0.017,0.019 0.03,0.036 0.044,0.052l0.004,0.004c0.168,0.199 0.285,0.347 0.383,0.478c0.108,0.144 0.203,0.284 0.289,0.426c0.093,0.154 0.16,0.287 0.209,0.42c0.056,0.152 0.094,0.316 0.11,0.49c0.014,0.152 0.014,0.323 0,0.521c-0.015,0.18 -0.043,0.344 -0.065,0.464c-0.017,0.082 -0.033,0.157 -0.048,0.223c-0.011,0.055 0.003,0.114 0.044,0.154c0.031,0.032 0.075,0.05 0.121,0.05c0.01,0 0.021,0 0.031,-0.001c0.078,-0.017 0.155,-0.036 0.23,-0.062c0.175,-0.056 0.348,-0.14 0.513,-0.246c0.214,-0.136 0.407,-0.31 0.575,-0.518c0.202,-0.253 0.361,-0.553 0.457,-0.872c0.108,-0.356 0.145,-0.752 0.106,-1.144" style="fill:#de634d;fill-rule:nonzero;"/><path d="M173.974,354.156c-0.07,-0.152 -0.162,-0.3 -0.271,-0.434c-0.028,-0.035 -0.06,-0.074 -0.077,-0.09l-0.039,-0.043c-0.01,-0.012 -0.018,-0.018 -0.024,-0.026l-0.012,-0.012c-0.011,-0.011 -0.024,-0.024 -0.034,-0.037c-0.002,-0.002 -0.003,-0.004 -0.007,-0.007l-0.014,-0.015c-0.009,-0.008 -0.017,-0.016 -0.023,-0.026c-0.004,-0.002 -0.005,-0.005 -0.007,-0.007c-0.055,-0.06 -0.103,-0.118 -0.144,-0.172c-0.035,-0.047 -0.076,-0.105 -0.112,-0.173c-0.033,-0.064 -0.059,-0.135 -0.074,-0.21c-0.014,-0.069 -0.024,-0.149 -0.026,-0.236c-0.001,-0.072 0.002,-0.141 0.005,-0.185c0.005,-0.061 -0.023,-0.118 -0.072,-0.151c-0.05,-0.035 -0.112,-0.039 -0.166,-0.013c-0.064,0.029 -0.124,0.065 -0.183,0.111c-0.093,0.071 -0.175,0.159 -0.242,0.261c-0.058,0.087 -0.135,0.231 -0.171,0.423c-0.031,0.167 -0.028,0.357 0.01,0.532c0.037,0.169 0.107,0.343 0.205,0.503c0.053,0.082 0.102,0.151 0.149,0.209c0.015,0.016 0.044,0.052 0.059,0.067l-0.002,0l0.016,0.018c0.012,0.013 0.02,0.023 0.028,0.033c0.007,0.008 0.013,0.016 0.018,0.021l0.003,0.003c0.053,0.062 0.12,0.143 0.175,0.22c0.051,0.065 0.093,0.129 0.132,0.195c0.043,0.069 0.074,0.129 0.095,0.19c0.026,0.069 0.042,0.144 0.051,0.224c0.008,0.069 0.008,0.148 0,0.236c-0.004,0.055 -0.012,0.11 -0.021,0.172c-0.012,0.061 0.011,0.122 0.058,0.159c0.031,0.025 0.067,0.038 0.106,0.038c0.022,0 0.043,-0.005 0.062,-0.013c0.059,-0.023 0.116,-0.054 0.172,-0.088c0.098,-0.063 0.186,-0.141 0.263,-0.238c0.091,-0.113 0.163,-0.251 0.207,-0.397c0.049,-0.16 0.067,-0.346 0.049,-0.523c-0.016,-0.172 -0.065,-0.35 -0.142,-0.519" style="fill:#de634d;fill-rule:nonzero;"/><path d="M169.051,357.107c-0.034,-0.034 -0.077,-0.052 -0.124,-0.052l-7.424,0c-0.048,0 -0.09,0.018 -0.124,0.052c-0.035,0.034 -0.052,0.077 -0.052,0.125l0,0.355c0,0.048 0.017,0.089 0.052,0.125c0.034,0.034 0.076,0.052 0.124,0.052l7.424,0c0.047,0 0.09,-0.018 0.124,-0.052c0.034,-0.036 0.052,-0.077 0.052,-0.125l0,-0.355c0,-0.048 -0.016,-0.091 -0.052,-0.125" style="fill:#de634d;fill-rule:nonzero;"/><path d="M167.702,353.125c-0.036,-0.377 -0.144,-0.77 -0.312,-1.137c-0.153,-0.336 -0.352,-0.656 -0.594,-0.953c-0.069,-0.083 -0.137,-0.164 -0.173,-0.2l-0.082,-0.09c-0.019,-0.023 -0.037,-0.042 -0.054,-0.059l-0.024,-0.024c-0.026,-0.027 -0.054,-0.054 -0.077,-0.082c-0.002,-0.003 -0.005,-0.005 -0.007,-0.007c-0.011,-0.013 -0.022,-0.026 -0.035,-0.039c-0.018,-0.018 -0.038,-0.038 -0.056,-0.059c-0.002,-0.003 -0.003,-0.007 -0.006,-0.008c-0.126,-0.14 -0.231,-0.264 -0.322,-0.384c-0.106,-0.141 -0.183,-0.259 -0.245,-0.38c-0.072,-0.138 -0.127,-0.292 -0.162,-0.459c-0.032,-0.151 -0.05,-0.324 -0.055,-0.516c-0.005,-0.169 0.005,-0.333 0.015,-0.469c0.008,-0.092 0.017,-0.172 0.026,-0.242c0.006,-0.056 -0.015,-0.11 -0.058,-0.146c-0.04,-0.038 -0.097,-0.051 -0.151,-0.038c-0.08,0.021 -0.162,0.049 -0.244,0.084c-0.169,0.068 -0.337,0.167 -0.498,0.288c-0.205,0.156 -0.383,0.349 -0.533,0.572c-0.182,0.274 -0.312,0.595 -0.374,0.928c-0.071,0.367 -0.062,0.781 0.023,1.166c0.079,0.371 0.235,0.751 0.449,1.099c0.114,0.181 0.221,0.332 0.329,0.46c0.033,0.039 0.119,0.143 0.121,0.144l0.036,0.041c0.024,0.028 0.042,0.049 0.06,0.071c0.017,0.019 0.03,0.036 0.045,0.052l0.003,0.004c0.168,0.199 0.285,0.347 0.383,0.478c0.108,0.144 0.203,0.284 0.289,0.426c0.094,0.154 0.16,0.287 0.209,0.42c0.056,0.152 0.094,0.316 0.11,0.49c0.015,0.152 0.015,0.323 0,0.521c-0.015,0.18 -0.043,0.344 -0.065,0.464c-0.017,0.082 -0.033,0.157 -0.048,0.223c-0.011,0.055 0.003,0.114 0.044,0.154c0.031,0.032 0.075,0.05 0.121,0.05c0.01,0 0.021,0 0.031,-0.001c0.079,-0.017 0.155,-0.036 0.23,-0.062c0.175,-0.056 0.348,-0.14 0.513,-0.246c0.214,-0.136 0.407,-0.31 0.575,-0.518c0.202,-0.253 0.361,-0.553 0.457,-0.872c0.108,-0.356 0.145,-0.752 0.106,-1.144" style="fill:#de634d;fill-rule:nonzero;"/><path d="M164.416,354.156c-0.07,-0.152 -0.162,-0.3 -0.271,-0.434c-0.028,-0.035 -0.06,-0.074 -0.077,-0.09l-0.039,-0.043c-0.01,-0.012 -0.018,-0.018 -0.025,-0.026l-0.011,-0.012c-0.011,-0.011 -0.024,-0.024 -0.034,-0.037c-0.002,-0.002 -0.004,-0.004 -0.007,-0.007l-0.014,-0.015c-0.009,-0.008 -0.017,-0.016 -0.023,-0.026c-0.004,-0.002 -0.005,-0.005 -0.007,-0.007c-0.055,-0.06 -0.103,-0.118 -0.144,-0.172c-0.035,-0.047 -0.076,-0.105 -0.112,-0.173c-0.033,-0.064 -0.059,-0.135 -0.074,-0.21c-0.014,-0.069 -0.024,-0.149 -0.026,-0.236c-0.001,-0.072 0.002,-0.141 0.005,-0.185c0.005,-0.061 -0.023,-0.118 -0.072,-0.151c-0.049,-0.035 -0.112,-0.039 -0.166,-0.013c-0.064,0.029 -0.124,0.065 -0.183,0.111c-0.093,0.071 -0.175,0.159 -0.242,0.261c-0.058,0.087 -0.135,0.231 -0.171,0.423c-0.031,0.167 -0.028,0.357 0.01,0.532c0.037,0.169 0.107,0.343 0.205,0.503c0.053,0.082 0.102,0.151 0.149,0.209c0.015,0.016 0.044,0.052 0.059,0.067l-0.002,0l0.016,0.018c0.012,0.013 0.02,0.023 0.028,0.033c0.007,0.008 0.013,0.016 0.018,0.021l0.003,0.003c0.053,0.062 0.12,0.143 0.175,0.22c0.051,0.065 0.093,0.129 0.132,0.195c0.043,0.069 0.074,0.129 0.095,0.19c0.026,0.069 0.042,0.144 0.051,0.224c0.008,0.069 0.008,0.148 0,0.236c-0.004,0.055 -0.012,0.11 -0.022,0.172c-0.011,0.061 0.012,0.122 0.059,0.159c0.031,0.025 0.069,0.038 0.106,0.038c0.022,0 0.043,-0.005 0.062,-0.013c0.059,-0.023 0.116,-0.054 0.172,-0.088c0.098,-0.063 0.186,-0.141 0.263,-0.238c0.091,-0.113 0.163,-0.251 0.207,-0.397c0.049,-0.16 0.067,-0.346 0.049,-0.523c-0.016,-0.172 -0.065,-0.35 -0.142,-0.519" style="fill:#de634d;fill-rule:nonzero;"/><path d="M148.472,347.563c-0.462,0 -0.836,-0.375 -0.836,-0.839c0,-0.464 0.374,-0.839 0.836,-0.839c0.462,0 0.836,0.375 0.836,0.839c0,0.464 -0.374,0.839 -0.836,0.839M154.423,347.984l-4.328,-1.391c-0.01,-0.13 -0.034,-0.254 -0.073,-0.374c0.182,-0.062 0.37,-0.129 0.561,-0.201c1.723,-0.651 2.714,-1.38 2.949,-2.166c0.157,-0.524 -0.01,-1.041 -0.495,-1.541c-0.382,-0.396 -1.226,-0.986 -1.262,-1.01c-0.135,-0.095 -0.322,-0.062 -0.418,0.072l-2.674,3.731c-0.069,-0.011 -0.139,-0.016 -0.211,-0.016c-0.049,0 -0.098,0.005 -0.145,0.007c-0.012,-1.373 -0.182,-3.121 -0.898,-3.916c-0.28,-0.308 -0.618,-0.464 -1.008,-0.464l-0.001,0c-0.268,0 -0.559,0.077 -0.866,0.228c-0.38,0.188 -0.956,0.604 -1.214,0.794c-0.077,0.058 -0.125,0.094 -0.133,0.101c-0.081,0.062 -0.124,0.159 -0.119,0.254c0.003,0.058 0.021,0.115 0.059,0.164l2.815,3.856c-0.031,0.077 -0.056,0.156 -0.075,0.238c-0.921,-0.303 -2.074,-0.602 -3.024,-0.602c-0.748,0 -1.29,0.19 -1.613,0.563c-0.284,0.329 -0.387,0.786 -0.306,1.354c0.079,0.545 0.417,1.521 0.431,1.562c0.044,0.125 0.16,0.204 0.286,0.204c0.031,0 0.062,-0.005 0.095,-0.017l4.583,-1.517c0.05,0.05 0.104,0.095 0.161,0.138c-0.16,0.221 -0.324,0.457 -0.486,0.704c-1.012,1.543 -1.388,2.719 -1.119,3.493c0.182,0.516 0.619,0.837 1.303,0.954c0.355,0.063 0.913,0.075 1.32,0.075c0.176,0 0.294,-0.002 0.294,-0.002c0.165,-0.003 0.295,-0.139 0.295,-0.305l-0.019,-4.715c0.089,-0.038 0.176,-0.082 0.256,-0.135c0.134,0.183 0.276,0.373 0.428,0.56c1.139,1.435 2.13,2.162 2.943,2.162c0.384,0 0.928,-0.163 1.339,-0.948c0.255,-0.488 0.554,-1.476 0.567,-1.517c0.047,-0.159 -0.041,-0.326 -0.198,-0.377" style="fill:#de634d;fill-rule:nonzero;"/><rect x="139.195" y="355.701" width="18.974" height="5.916" style="fill:#ea958b;fill-rule:nonzero;"/><path d="M232.463,307.153l-13.671,0c-0.411,0 -0.746,0.334 -0.746,0.747c0,0.415 0.335,0.749 0.746,0.749l13.671,0l0,38.339l-13.774,0l0,-31.845c0,-0.415 -0.335,-0.749 -0.746,-0.749c-0.411,0 -0.744,0.334 -0.744,0.749l0,5.355l-7.815,0l0,-5.355c0,-0.415 -0.335,-0.749 -0.746,-0.749c-0.411,0 -0.746,0.334 -0.746,0.749l0,31.845l-1.688,0l0,-40.745c0,-0.385 0.011,-0.755 0.034,-1.116l21.15,0c0.412,0 0.747,-0.334 0.747,-0.747c0,-0.415 -0.335,-0.749 -0.747,-0.749l-20.99,0c1.342,-8.57 9.326,-9.563 12.936,-9.563c3.948,0 13.129,1.187 13.129,12.175l0,0.91ZM209.384,341.704l7.814,0l0,5.282l-7.814,0l0,-5.282ZM217.199,327.067l-7.814,0l0,-5.072l7.814,0l0,5.072ZM209.384,335.135l7.814,0l0,5.074l-7.814,0l0,-5.074ZM217.199,333.637l-7.814,0l0,-5.074l7.814,0l0,5.074ZM216.679,292.013l5.308,0c0.617,0 1.145,0.388 1.355,0.934c-1.253,-0.247 -2.592,-0.377 -4.008,-0.377c-1.415,0 -2.756,0.13 -4.01,0.377c0.211,-0.546 0.738,-0.934 1.355,-0.934M229.607,295.768c-1.303,-1.08 -2.881,-1.895 -4.681,-2.433c-0.072,-1.565 -1.36,-2.818 -2.939,-2.818l-5.308,0c-1.579,0 -2.867,1.252 -2.939,2.818c-1.799,0.538 -3.378,1.353 -4.681,2.433c-2.885,2.391 -4.346,5.916 -4.346,10.475l0,41.492c0,0.413 0.333,0.749 0.744,0.749l27.752,0c0.412,0 0.745,-0.336 0.745,-0.749l0,-41.492c0,-4.559 -1.462,-8.084 -4.347,-10.475" style="fill:#de634d;fill-rule:nonzero;"/><path d="M320.189,205.58l-203.765,0l0,-3.191l203.765,0c5.532,0 10.033,-4.501 10.033,-10.034l0,-81.027l3.192,0l0,81.027c0,7.292 -5.933,13.225 -13.225,13.225" style="fill:#e8ac43;fill-rule:nonzero;"/><path d="M126.924,350.987l-70.4,0c-10.571,0 -19.17,-8.6 -19.17,-19.17l0,-84.241l3.191,0l0,84.241c0,8.811 7.169,15.979 15.979,15.979l70.4,0l0,3.191Z" style="fill:#de634d;fill-rule:nonzero;"/><path d="M670.574,290.958l-101.581,-0.001l0,-2.943l101.581,0c7.385,0 13.393,-6.008 13.393,-13.393l0,-59.291c0,-7.385 -6.008,-13.393 -13.393,-13.393l-117.349,0c-9.007,0 -16.336,-7.328 -16.336,-16.335l0,-78.574c0,-9.813 -7.983,-17.796 -17.795,-17.796l-100.244,0l0,-2.943l100.244,0c11.435,0 20.739,9.304 20.739,20.739l0,78.574c0,7.384 6.008,13.392 13.392,13.392l117.349,0c9.008,0 16.336,7.328 16.336,16.336l0,59.291c0,9.008 -7.328,16.336 -16.336,16.336" style="fill:#7299a8;fill-rule:nonzero;"/><path d="M9.472,196.765l-3.259,0.425l0,-0.674c0.133,-30.75 25.097,-55.727 55.763,-55.727c11.084,0 21.791,3.257 30.967,9.418l-1.813,2.719c-8.636,-5.799 -18.717,-8.865 -29.154,-8.865c-28.95,0 -52.504,23.643 -52.504,52.704" style="fill:#e8ac43;fill-rule:nonzero;"/><path d="M61.977,252.739c-21.921,0 -41.862,-12.945 -50.865,-32.998c-0.031,-0.069 -0.448,-0.885 -0.477,-0.954l3.363,-0.586c8.434,18.994 27.269,31.266 47.979,31.266c28.952,0 52.504,-23.643 52.504,-52.702c0,-4.696 -0.616,-9.355 -1.83,-13.847c-0.008,-0.031 -0.016,-0.064 -0.026,-0.097c-0.151,-0.558 2.195,-4.247 2.195,-4.247c0.023,0.077 0.485,1.778 0.509,1.854c0.165,0.541 0.319,1.086 0.468,1.634c1.29,4.769 1.944,9.717 1.944,14.703c0,30.864 -25.015,55.974 -55.764,55.974" style="fill:#e8ac43;fill-rule:nonzero;"/><path d="M113.419,156.538c2.275,2.576 3.527,5.892 3.527,9.339c0,7.765 -6.296,14.085 -14.034,14.085c-7.738,0 -14.032,-6.32 -14.032,-14.087c0,-7.767 6.294,-14.084 14.032,-14.084c2.463,0 4.885,0.649 7.005,1.876c0.332,0.193 0.446,0.618 0.254,0.952c-0.191,0.332 -0.614,0.447 -0.947,0.255c-1.91,-1.107 -4.092,-1.691 -6.312,-1.691c-6.972,0 -12.645,5.694 -12.645,12.694c0,6.998 5.673,12.693 12.645,12.693c6.974,0 12.647,-5.695 12.647,-12.695c0,-3.104 -1.128,-6.093 -3.178,-8.414c-0.254,-0.287 -0.228,-0.728 0.059,-0.982c0.286,-0.255 0.725,-0.229 0.979,0.059" style="fill:#f9d67c;fill-rule:nonzero;"/><path d="M118.449,169.724c-0.152,0.167 -0.213,0.398 -0.165,0.618l1.115,5.088l-4.949,1.572c-0.217,0.069 -0.385,0.237 -0.453,0.453l-1.565,4.968l-5.07,-1.117c-0.22,-0.049 -0.45,0.013 -0.616,0.165l-3.833,3.51l-3.835,-3.51c-0.129,-0.119 -0.296,-0.181 -0.467,-0.181c-0.049,0 -0.1,0.004 -0.149,0.016l-5.068,1.117l-1.566,-4.968c-0.069,-0.216 -0.237,-0.384 -0.452,-0.453l-4.949,-1.572l1.113,-5.088c0.049,-0.22 -0.013,-0.451 -0.165,-0.618l-3.497,-3.849l3.497,-3.848c0.152,-0.168 0.214,-0.399 0.165,-0.62l-1.113,-5.087l4.949,-1.571c0.215,-0.068 0.383,-0.237 0.452,-0.454l1.566,-4.968l5.068,1.118c0.22,0.05 0.45,-0.013 0.616,-0.165l3.835,-3.512l3.833,3.512c0.168,0.152 0.398,0.215 0.618,0.165l5.068,-1.118l1.565,4.968c0.068,0.217 0.236,0.386 0.453,0.454l4.949,1.571l-1.115,5.087c-0.048,0.221 0.013,0.452 0.165,0.62l3.499,3.848l-3.499,3.849ZM123.398,165.405l-3.681,-4.05l1.173,-5.357c0.077,-0.352 -0.127,-0.705 -0.469,-0.813l-5.21,-1.654l-1.648,-5.23c-0.107,-0.344 -0.459,-0.548 -0.81,-0.471l-5.337,1.178l-4.035,-3.696c-0.266,-0.242 -0.672,-0.242 -0.936,0l-4.037,3.696l-5.337,-1.178c-0.35,-0.077 -0.701,0.127 -0.81,0.471l-1.647,5.23l-5.211,1.654c-0.342,0.108 -0.546,0.461 -0.467,0.813l1.173,5.357l-3.683,4.05c-0.241,0.267 -0.241,0.674 0,0.939l3.683,4.052l-1.173,5.358c-0.079,0.351 0.125,0.703 0.467,0.813l5.211,1.654l1.647,5.229c0.109,0.344 0.46,0.548 0.81,0.47l5.337,-1.178l4.037,3.697c0.132,0.121 0.3,0.182 0.468,0.182c0.166,0 0.334,-0.061 0.468,-0.182l4.035,-3.697l5.337,1.178c0.351,0.078 0.703,-0.126 0.81,-0.47l1.648,-5.229l5.21,-1.656c0.342,-0.108 0.546,-0.46 0.469,-0.811l-1.175,-5.358l3.683,-4.052c0.242,-0.265 0.242,-0.672 0,-0.939" style="fill:#e8ac43;fill-rule:nonzero;"/><path d="M23.417,219.734l-2.495,-3.164l0.018,-0.963l3.82,-1.474l1.028,0.448l2.347,2.994l-4.718,2.159ZM19.137,221.689l-3.252,-4.147l3.64,-1.4l0.985,0.432l2.597,3.297l-3.97,1.818ZM12.508,213.228l3.619,-1.295l1.131,0.495l1.99,2.539l-0.053,0.736l-3.65,1.409l-3.037,-3.884ZM10.713,217.493l-0.004,-3.218l2.513,3.216l-2.509,0.002ZM9.164,203.012l1.067,0.473l2.148,2.739l-0.055,0.754l-3.749,1.235l-3.173,-4.047l3.762,-1.154ZM2.029,199.865l4.47,-1.135l2.379,3.036l-0.06,0.808l-3.761,1.147l-3.028,-3.856ZM12.208,197.284l2.185,2.779l-0.06,0.821l-4.121,1.26l-0.982,-0.465l-2.384,-3.036l5.362,-1.359ZM17.54,195.926l2.026,2.583l-0.067,0.795l-3.619,1.109l-1.262,-0.599l-2.058,-2.625l4.98,-1.263ZM22.193,194.74l2.386,3.015l-3.613,1.106l-1.128,-0.539l-1.954,-2.483l4.309,-1.099ZM27.814,201.854l-3.611,1.196l-1.047,-0.497l-1.91,-2.441l0.005,-0.785l3.674,-1.126l2.889,3.653ZM26.227,206.999l-0.057,0.782l-3.613,1.29l-1.071,-0.505l-1.979,-2.526l0.013,-0.885l3.674,-1.213l0.958,0.418l2.075,2.639ZM14.053,207.818l0.011,-0.863l4.022,-1.328l1.035,0.457l2.111,2.688l-0.059,0.795l-4.078,1.456l-0.839,-0.396l-2.203,-2.809ZM16.074,201.668l0.009,-0.766l3.845,-1.174l0.906,0.402l2.013,2.56l-0.066,0.828l-3.689,1.225l-0.973,-0.466l-2.045,-2.609ZM17.834,204.444l-0.054,0.729l-4.102,1.353l-1.019,-0.489l-2.107,-2.675l0.012,-0.772l4.284,-1.307l0.771,0.344l2.215,2.817ZM8.921,208.658l3.755,-1.24l0.984,0.427l2.246,2.858l-0.064,0.768l-3.681,1.317l-3.24,-4.13ZM24.545,212.991l-0.051,0.681l-4.037,1.545l-0.95,-0.449l-1.934,-2.469l0.013,-0.887l4.003,-1.433l0.899,0.393l2.057,2.619ZM31.424,216.071l-2.979,1.36l-2.228,-2.837l0.016,-1.025l2.163,-0.833l-0.385,-0.424l-2.314,0.89l-0.904,-0.427l-1.881,-2.398l0.01,-0.872l3.58,-1.279l0.173,0.073l0.125,-0.651c0.01,-0.021 0.01,-0.044 0.022,-0.065c0.011,-0.033 0.011,-0.052 0.032,-0.074c0.012,-0.044 0.033,-0.088 0.052,-0.129c0.01,-0.011 0.022,-0.021 0.033,-0.044c0.033,-0.041 0.073,-0.085 0.127,-0.106c0,0 0,-0.012 0.011,-0.012l0.116,-0.038l-0.644,-0.304l-2.033,-2.583l0.019,-0.798l3.626,-1.196l2.855,3.614l1.003,-0.332l-9.603,-12.156c-0.189,-0.234 -0.418,-0.339 -0.591,-0.264l-21.283,5.346c-0.006,0 -0.006,0.007 -0.006,0.007c-0.034,0.011 -0.062,0.036 -0.085,0.06c-0.008,0.013 -0.015,0.02 -0.021,0.026c-0.015,0.025 -0.029,0.051 -0.039,0.077c-0.015,0.012 -0.015,0.025 -0.023,0.045c-0.008,0.013 -0.01,0.026 -0.016,0.039l-0.328,1.214c-0.075,0.274 0.03,0.675 0.254,0.952l7.981,10.214l0.008,6.808l0.002,0.995l6.082,-0.007l3.553,4.546c0.189,0.226 0.412,0.324 0.578,0.249l1.148,-0.52l0.171,-0.082l7.206,-3.294l0.59,-0.27l2.782,-1.273l0.562,-0.259l1.602,-0.731l-1.119,-1.232Z" style="fill:#e8ac43;fill-rule:nonzero;"/><path d="M81.345,230.234l-3.694,-4.049l-0.085,-1.421l5.438,-2.575l4.345,4.744l-6.004,3.301ZM74.063,234.242l-3.908,-4.284l-0.094,-1.648l5.398,-2.552l1.587,0.557l3.83,4.187l-6.813,3.74ZM66.273,238.536l-4.377,-4.777l-0.085,-1.547l5.952,-2.82l1.703,0.597l4.118,4.521l-7.311,4.026ZM59.641,242.182l-5.708,-6.263l5.673,-2.682l1.63,0.578l4.557,4.978l-6.152,3.389ZM48.006,229.403l5.652,-2.511l1.872,0.661l3.494,3.836l0,1.186l-5.686,2.692l-5.332,-5.864ZM45.306,236.902l0,-5.541l5.029,5.541l-5.029,0ZM47.589,220.064l1.63,0.566l3.937,4.317l-0.01,1.238l-5.748,2.552l-5.684,-6.239l5.875,-2.434ZM41.106,221.826l-5.567,-6.112l5.898,-2.296l1.768,0.628l3.768,4.137l0,1.217l-5.867,2.426ZM29.62,209.218l7.037,-2.352l4.173,4.584l0,1.305l-5.896,2.287l-5.314,-5.824ZM45.641,203.866l3.833,4.197l0,1.325l-6.46,2.511l-1.63,-0.629l-4.183,-4.584l8.44,-2.82ZM54.031,201.054l3.554,3.9l-0.011,1.282l-5.673,2.21l-2.096,-0.808l-3.611,-3.967l7.837,-2.617ZM61.353,198.597l4.184,4.552l-5.663,2.202l-1.871,-0.728l-3.429,-3.751l6.779,-2.275ZM71.21,209.336l-5.652,2.349l-1.736,-0.672l-3.35,-3.687l-0.085,-1.262l5.758,-2.242l5.065,5.514ZM76.969,215.619l-5.663,2.511l-1.532,-0.589l-3.567,-3.899l-0.062,-1.283l5.673,-2.351l5.151,5.611ZM64.357,223.589l-0.088,-1.4l5.59,-2.478l1.724,0.597l3.194,3.517l-0.009,1.313l-5.612,2.65l-1.499,-0.577l-3.3,-3.622ZM62.185,223.108l1.491,0.522l3.608,3.956l0,1.1l-6.292,2.96l-1.576,-0.61l-3.395,-3.729l-0.085,-1.423l6.249,-2.776ZM56.054,216.547l1.714,0.608l3.703,4.061l0,1.282l-6.366,2.82l-1.395,-0.533l-3.864,-4.242l-0.085,-1.387l6.293,-2.609ZM55.509,214.679l0,1.176l-6.418,2.658l-1.693,-0.662l-3.694,-4.039l-0.074,-1.24l6.718,-2.608l1.278,0.46l3.883,4.255ZM64.046,213.234l1.587,0.558l3.641,3.985l0,1.261l-5.642,2.5l-1.777,-0.684l-3.471,-3.815l-0.085,-1.42l5.747,-2.385ZM63.335,212.604l-5.772,2.405l-1.615,-0.631l-3.589,-3.943l-0.075,-1.228l6.025,-2.341l1.503,0.536l3.531,3.868l-0.008,1.334ZM82.399,221.538l-5.555,2.629l-1.597,-0.632l-3.098,-3.386l-0.097,-1.423l5.525,-2.444l4.822,5.256ZM89.627,227.145c-0.117,-0.224 -0.267,-0.403 -0.425,-0.554l-27.647,-30.131c-0.329,-0.353 -0.71,-0.492 -0.977,-0.353l-33.501,11.112c-0.011,0 -0.011,0.01 -0.011,0.01c-0.054,0.023 -0.095,0.065 -0.127,0.108c-0.012,0.021 -0.023,0.033 -0.033,0.043c-0.019,0.04 -0.041,0.085 -0.052,0.129c-0.021,0.021 -0.021,0.041 -0.033,0.073c-0.011,0.022 -0.011,0.045 -0.021,0.066l-0.381,1.986c-0.088,0.448 0.127,1.081 0.52,1.497l14.432,15.897l0,11.49l10.432,0l6.071,6.687c0.329,0.342 0.701,0.47 0.957,0.331l1.779,-0.972l0.264,-0.15l11.167,-6.143l0.916,-0.504l4.312,-2.372l0.872,-0.481l11.423,-6.283l0.008,-0.012c0.363,-0.191 0.384,-0.852 0.055,-1.474" style="fill:#e8ac43;fill-rule:nonzero;"/><path d="M69.406,195.467c-0.228,0 -0.456,-0.096 -0.616,-0.283c-0.295,-0.342 -0.258,-0.859 0.083,-1.153l14.04,-12.161c0.339,-0.295 0.856,-0.259 1.149,0.085c0.295,0.342 0.256,0.859 -0.085,1.153l-14.038,12.159c-0.155,0.135 -0.344,0.2 -0.533,0.2" style="fill:#f9d67c;fill-rule:nonzero;"/><path d="M73.651,195.587l-0.024,0l-4.244,-0.119c-0.45,-0.014 -0.804,-0.39 -0.791,-0.841l0.113,-4.067c0.013,-0.451 0.415,-0.815 0.837,-0.795c0.45,0.013 0.806,0.389 0.793,0.841l-0.092,3.249l3.431,0.096c0.45,0.013 0.803,0.389 0.792,0.841c-0.013,0.443 -0.375,0.795 -0.815,0.795" style="fill:#f9d67c;fill-rule:nonzero;"/><path d="M82.695,199.665c-0.228,0 -0.456,-0.096 -0.616,-0.283c-0.295,-0.342 -0.258,-0.859 0.083,-1.153l11.089,-9.604c0.335,-0.293 0.852,-0.26 1.149,0.085c0.293,0.342 0.256,0.859 -0.087,1.153l-11.085,9.602c-0.155,0.135 -0.344,0.2 -0.533,0.2" style="fill:#f9d67c;fill-rule:nonzero;"/><path d="M86.94,199.785l-0.024,0l-4.244,-0.119c-0.45,-0.014 -0.804,-0.39 -0.791,-0.841l0.113,-4.069c0.013,-0.451 0.409,-0.791 0.837,-0.795c0.45,0.013 0.805,0.39 0.793,0.843l-0.092,3.249l3.431,0.096c0.45,0.013 0.803,0.389 0.792,0.841c-0.013,0.443 -0.375,0.795 -0.815,0.795" style="fill:#f9d67c;fill-rule:nonzero;"/><path d="M57.585,190.897c-0.222,0 -0.442,-0.09 -0.605,-0.268c-0.301,-0.336 -0.277,-0.853 0.057,-1.157l20.647,-18.792c0.334,-0.303 0.848,-0.277 1.152,0.057c0.302,0.334 0.276,0.852 -0.057,1.155l-20.646,18.794c-0.157,0.141 -0.352,0.211 -0.548,0.211" style="fill:#f9d67c;fill-rule:nonzero;"/><path d="M61.83,191.016l-0.024,0l-4.244,-0.119c-0.215,-0.007 -0.419,-0.099 -0.569,-0.256c-0.148,-0.158 -0.228,-0.368 -0.222,-0.585l0.113,-4.067c0.014,-0.451 0.386,-0.777 0.837,-0.795c0.45,0.013 0.806,0.389 0.792,0.841l-0.091,3.249l3.431,0.096c0.45,0.013 0.803,0.39 0.792,0.841c-0.013,0.443 -0.375,0.795 -0.815,0.795" style="fill:#f9d67c;fill-rule:nonzero;"/><path d="M367.486,126.53c-30.993,0 -56.209,-25.215 -56.209,-56.209c0,-6.283 1.687,-15.115 3.94,-20.675c0.029,-0.072 0.482,-1.144 0.511,-1.215c0,0 2.311,3.036 2.16,3.451c-1.892,5.185 -3.314,12.983 -3.314,18.439c0,29.175 23.736,52.912 52.912,52.912c29.176,0 52.913,-23.737 52.913,-52.912c0,-28.875 -23.248,-52.421 -52.009,-52.905c-0.301,-0.005 -2.887,-3.304 -2.887,-3.304c0.059,0 2.102,0 2.161,0c30.913,0.096 56.031,25.275 56.031,56.209c0,30.994 -25.215,56.209 -56.209,56.209" style="fill:#00324d;fill-rule:nonzero;"/><path d="M339.277,4.852c0.221,7.606 0.781,23.423 1.3,29.698c0.106,1.294 0.801,2.515 1.906,3.348c1.202,0.908 2.73,1.264 4.188,0.973c2.263,-0.447 3.384,-1.809 3.926,-2.871c0.815,-1.599 0.805,-3.436 0.381,-4.354c-1.49,-3.229 -8.48,-19.352 -11.701,-26.794M345.667,40.617c-1.491,0 -2.961,-0.486 -4.177,-1.403c-1.479,-1.117 -2.411,-2.768 -2.557,-4.529c-0.645,-7.826 -1.356,-30.417 -1.401,-33.641l-0.012,-0.677l1.387,-0.367l0.356,0.669c1.159,2.682 11.379,26.317 13.212,30.287c0.582,1.261 0.702,3.612 -0.409,5.792c-0.708,1.389 -2.164,3.164 -5.075,3.74c-0.439,0.086 -0.883,0.129 -1.324,0.129" style="fill:#7299a8;fill-rule:nonzero;"/><path d="M356.562,40.62c-0.625,0 -1.262,0.124 -1.872,0.372c-1.394,0.566 -2.481,1.696 -2.981,3.097c-0.775,2.172 -0.181,3.832 0.454,4.843c0.954,1.518 2.537,2.451 3.542,2.558c3.469,0.368 20.072,2.521 29.006,3.685c-6.645,-3.707 -20.511,-11.332 -26.168,-14.104c-0.612,-0.3 -1.29,-0.451 -1.981,-0.451M389.062,57.348l-0.759,-0.041c-6.661,-0.871 -28.726,-3.748 -32.772,-4.178c-1.382,-0.147 -3.462,-1.249 -4.764,-3.32c-0.829,-1.32 -1.608,-3.479 -0.61,-6.274c0.658,-1.844 2.084,-3.327 3.912,-4.071c1.718,-0.697 3.614,-0.65 5.2,0.127c7.058,3.46 26.825,14.43 29.607,16.039l0.588,0.337l-0.402,1.381Z" style="fill:#7299a8;fill-rule:nonzero;"/><path d="M340.301,44.664l-0.083,0c-1.793,0.027 -3.412,0.894 -4.026,1.697c-2.128,2.789 -12.933,16.278 -18.22,22.871c6.619,-3.751 20.341,-11.639 25.648,-15.032c1.095,-0.699 1.849,-1.884 2.069,-3.251c0.241,-1.486 -0.159,-3 -1.097,-4.156c-1.419,-1.75 -3.101,-2.129 -4.291,-2.129M314.828,72.877l-0.968,-1.048l0.419,-0.628c2.997,-3.734 18.057,-22.506 20.603,-25.839c0.843,-1.104 2.865,-2.31 5.312,-2.345c1.59,-0.028 3.809,0.433 5.678,2.738c1.233,1.519 1.76,3.509 1.445,5.457c-0.296,1.83 -1.32,3.425 -2.81,4.378c-6.621,4.232 -26.27,15.425 -29.087,16.965l-0.396,-0.724l0.396,0.724l-0.592,0.322Z" style="fill:#7299a8;fill-rule:nonzero;"/><path d="M349.182,123.173c-0.91,0 -1.648,-0.738 -1.648,-1.648l0,-66.669c0,-0.91 0.738,-1.648 1.648,-1.648c0.91,0 1.648,0.738 1.648,1.648l0,66.669c0,0.91 -0.738,1.648 -1.648,1.648" style="fill:#00324d;fill-rule:nonzero;"/><path d="M347.215,41.786c-0.805,0 -1.459,0.654 -1.459,1.459c0,0.805 0.654,1.459 1.459,1.459c0.805,0 1.46,-0.654 1.46,-1.459c0,-0.805 -0.655,-1.459 -1.46,-1.459M347.215,46.353c-1.713,0 -3.107,-1.394 -3.107,-3.108c0,-1.713 1.394,-3.107 3.107,-3.107c1.714,0 3.108,1.394 3.108,3.107c0,1.714 -1.394,3.108 -3.108,3.108" style="fill:#7299a8;fill-rule:nonzero;"/><path d="M320.733,60.503c-0.278,0 -0.549,-0.14 -0.704,-0.395c-3.187,-5.225 -4.87,-11.237 -4.87,-17.389c0,-11.749 5.993,-22.425 16.03,-28.561c0.39,-0.236 0.896,-0.115 1.134,0.274c0.237,0.389 0.115,0.896 -0.274,1.133c-9.544,5.833 -15.242,15.984 -15.242,27.154c0,5.848 1.601,11.565 4.629,16.531c0.237,0.389 0.114,0.896 -0.275,1.132c-0.133,0.082 -0.282,0.121 -0.428,0.121" style="fill:#00324d;fill-rule:nonzero;"/><path d="M348.607,76.167c-7.326,0 -14.28,-2.324 -20.113,-6.72c-0.364,-0.275 -0.436,-0.792 -0.162,-1.154c0.275,-0.363 0.791,-0.437 1.154,-0.163c5.544,4.179 12.157,6.389 19.121,6.389c11.87,0 22.67,-6.537 28.184,-17.059c0.211,-0.403 0.712,-0.561 1.113,-0.347c0.403,0.211 0.559,0.709 0.347,1.112c-5.8,11.067 -17.159,17.942 -29.644,17.942" style="fill:#00324d;fill-rule:nonzero;"/><path d="M381.231,43.543c-0.456,0 -0.824,-0.369 -0.824,-0.824c0,-17.534 -14.266,-31.8 -31.8,-31.8c-0.455,0 -0.824,-0.368 -0.824,-0.824c0,-0.456 0.369,-0.824 0.824,-0.824c18.444,0 33.448,15.004 33.448,33.448c0,0.455 -0.368,0.824 -0.824,0.824" style="fill:#00324d;fill-rule:nonzero;"/><path d="M384.93,70.192c0.147,4.57 0.415,11.588 0.665,14.609c0.05,0.626 0.376,1.195 0.916,1.602c0.586,0.443 1.328,0.614 2.042,0.475c0.895,-0.177 1.546,-0.651 1.931,-1.406c0.426,-0.836 0.377,-1.734 0.205,-2.105c-0.734,-1.593 -3.821,-8.702 -5.759,-13.175M388.065,88.574c-0.91,0 -1.807,-0.297 -2.547,-0.856c-0.907,-0.684 -1.477,-1.698 -1.567,-2.782c-0.359,-4.36 -0.757,-16.967 -0.782,-18.758l0,-0.681l1.346,-0.32l0.318,0.64c0.064,0.149 6.277,14.525 7.353,16.86c0.441,0.952 0.344,2.41 -0.234,3.543c-0.609,1.195 -1.703,2.003 -3.079,2.275c-0.268,0.053 -0.539,0.079 -0.808,0.079" style="fill:#7299a8;fill-rule:nonzero;"/><path d="M394.711,88.466c-0.3,0 -0.607,0.06 -0.907,0.183c-0.68,0.276 -1.21,0.825 -1.454,1.508c-0.306,0.861 -0.233,1.662 0.219,2.381c0.5,0.794 1.296,1.211 1.702,1.254c1.742,0.186 9.384,1.172 14.265,1.807c-4,-2.215 -10.162,-5.582 -12.884,-6.917c-0.295,-0.144 -0.613,-0.216 -0.941,-0.216M413.057,97.817l-0.719,-0.06c-0.642,-0.084 -15.76,-2.062 -18.241,-2.326c-1.044,-0.11 -2.246,-0.939 -2.923,-2.016c-0.714,-1.136 -0.848,-2.489 -0.375,-3.812c0.401,-1.124 1.27,-2.029 2.384,-2.481c1.052,-0.429 2.216,-0.399 3.194,0.08c3.928,1.926 14.947,8.04 16.506,8.941l0.586,0.338l-0.412,1.336Z" style="fill:#7299a8;fill-rule:nonzero;"/><path d="M385.566,90.827l-0.043,0c-0.939,0.014 -1.709,0.477 -1.957,0.802c-1.024,1.34 -5.577,7.034 -8.955,11.25c3.971,-2.267 10.051,-5.784 12.604,-7.415c0.529,-0.338 0.88,-0.893 0.988,-1.561c0.117,-0.724 -0.078,-1.463 -0.534,-2.026c-0.566,-0.697 -1.273,-1.05 -2.103,-1.05M371.284,106.634l-0.916,-1.051l0.426,-0.58c3.049,-3.799 10.16,-12.669 11.462,-14.375c0.637,-0.834 1.97,-1.43 3.242,-1.449c1.344,0.005 2.566,0.57 3.451,1.66c0.752,0.927 1.073,2.14 0.881,3.327c-0.181,1.121 -0.81,2.101 -1.727,2.687c-3.685,2.355 -14.646,8.599 -16.218,9.459l-0.006,0.002l-0.595,0.32Z" style="fill:#7299a8;fill-rule:nonzero;"/><path d="M390.897,120.069c-0.456,0 -0.824,-0.369 -0.824,-0.824l0,-23.108c0,-0.455 0.368,-0.824 0.824,-0.824c0.456,0 0.824,0.369 0.824,0.824l0,23.108c0,0.455 -0.368,0.824 -0.824,0.824" style="fill:#00324d;fill-rule:nonzero;"/><path d="M389.403,89.117c-0.247,0 -0.448,0.2 -0.448,0.447c0,0.495 0.895,0.495 0.895,0c0,-0.247 -0.2,-0.447 -0.447,-0.447M389.403,91.66c-1.156,0 -2.096,-0.94 -2.096,-2.096c0,-1.155 0.94,-2.095 2.096,-2.095c1.156,0 2.096,0.94 2.096,2.095c0,1.156 -0.94,2.096 -2.096,2.096" style="fill:#7299a8;fill-rule:nonzero;"/><path d="M374.181,99.647c-0.278,0 -0.549,-0.14 -0.704,-0.395c-1.809,-2.967 -2.766,-6.38 -2.766,-9.872c0,-6.671 3.402,-12.733 9.101,-16.214c0.39,-0.239 0.897,-0.115 1.134,0.273c0.237,0.389 0.114,0.896 -0.274,1.133c-5.205,3.18 -8.312,8.716 -8.312,14.808c0,3.189 0.873,6.306 2.524,9.014c0.237,0.389 0.114,0.896 -0.275,1.132c-0.133,0.082 -0.282,0.121 -0.428,0.121" style="fill:#00324d;fill-rule:nonzero;"/><path d="M389.701,108.369c-3.865,0 -7.585,-1.154 -10.757,-3.338c-0.375,-0.258 -0.469,-0.771 -0.21,-1.147c0.257,-0.373 0.771,-0.469 1.146,-0.21c2.895,1.993 6.291,3.047 9.821,3.047c6.472,0 12.361,-3.565 15.37,-9.303c0.212,-0.404 0.71,-0.558 1.112,-0.347c0.403,0.211 0.56,0.71 0.348,1.112c-3.294,6.283 -9.743,10.186 -16.83,10.186" style="fill:#00324d;fill-rule:nonzero;"/><path d="M407.866,90.204c-0.456,0 -0.824,-0.369 -0.824,-0.824c0,-9.562 -7.78,-17.341 -17.341,-17.341c-0.456,0 -0.824,-0.369 -0.824,-0.824c0,-0.456 0.368,-0.824 0.824,-0.824c10.471,0 18.989,8.518 18.989,18.989c0,0.455 -0.368,0.824 -0.824,0.824" style="fill:#00324d;fill-rule:nonzero;"/><path d="M384.779,41.841c-0.006,0.006 -0.011,0.011 -0.017,0.017l-3.12,2.95c-0.159,0.15 -0.37,0.231 -0.589,0.225c-0.219,-0.006 -0.426,-0.099 -0.576,-0.258l-2.817,-2.979c-0.312,-0.331 -0.278,-0.829 0.033,-1.165c0.331,-0.313 0.852,-0.298 1.166,0.033l2.249,2.38l2.521,-2.384c0.331,-0.313 0.852,-0.298 1.166,0.033c0.307,0.325 0.298,0.834 -0.016,1.148" style="fill:#00324d;fill-rule:nonzero;"/><path d="M328.724,73.11c-0.001,-0.008 -0.003,-0.016 -0.004,-0.024l-0.65,-4.244c-0.032,-0.216 0.022,-0.436 0.151,-0.612c0.13,-0.177 0.323,-0.294 0.54,-0.328l4.053,-0.619c0.449,-0.068 0.84,0.243 0.939,0.69c0.069,0.45 -0.24,0.87 -0.691,0.94l-3.237,0.494l0.525,3.43c0.068,0.45 -0.241,0.87 -0.691,0.94c-0.442,0.067 -0.856,-0.23 -0.935,-0.667" style="fill:#00324d;fill-rule:nonzero;"/><path d="M376.439,72.21c0.008,0.001 0.016,0.001 0.024,0.002l4.266,0.492c0.216,0.025 0.414,0.135 0.551,0.306c0.136,0.172 0.198,0.39 0.173,0.607l-0.47,4.073c-0.053,0.452 -0.456,0.746 -0.914,0.724c-0.451,-0.052 -0.775,-0.461 -0.724,-0.913l0.376,-3.254l-3.447,-0.397c-0.452,-0.052 -0.776,-0.461 -0.725,-0.914c0.052,-0.443 0.447,-0.765 0.89,-0.726" style="fill:#00324d;fill-rule:nonzero;"/><path d="M411.365,86.937l-0.016,0.018l-2.888,3.178c-0.147,0.161 -0.352,0.258 -0.57,0.269c-0.219,0.01 -0.432,-0.067 -0.594,-0.214l-3.034,-2.758c-0.336,-0.306 -0.34,-0.805 -0.055,-1.164c0.306,-0.337 0.827,-0.362 1.165,-0.056l2.423,2.204l2.333,-2.568c0.306,-0.337 0.827,-0.361 1.165,-0.055c0.33,0.3 0.36,0.809 0.071,1.146" style="fill:#00324d;fill-rule:nonzero;"/><path d="M379.435,108.717c-0.002,-0.008 -0.004,-0.016 -0.006,-0.023l-0.942,-4.19c-0.047,-0.213 -0.009,-0.436 0.108,-0.621c0.117,-0.185 0.303,-0.315 0.516,-0.364l4,-0.898c0.444,-0.099 0.855,0.184 0.985,0.624c0.1,0.444 -0.179,0.884 -0.624,0.985l-3.195,0.717l0.761,3.386c0.1,0.443 -0.18,0.884 -0.624,0.985c-0.436,0.097 -0.87,-0.17 -0.979,-0.601" style="fill:#00324d;fill-rule:nonzero;"/><path d="M327.448,13.364c0.008,0.001 0.016,0.002 0.024,0.003l4.247,0.63c0.216,0.033 0.41,0.149 0.541,0.325c0.13,0.176 0.185,0.396 0.153,0.612l-0.602,4.056c-0.068,0.45 -0.48,0.731 -0.937,0.694c-0.45,-0.067 -0.761,-0.486 -0.694,-0.937l0.482,-3.24l-3.433,-0.509c-0.45,-0.067 -0.76,-0.486 -0.694,-0.937c0.066,-0.442 0.472,-0.75 0.913,-0.697" style="fill:#00324d;fill-rule:nonzero;"/><path d="M516.104,332.623c-30.85,0 -55.947,-25.098 -55.947,-55.948c0,-30.849 25.097,-55.947 55.947,-55.947c7.383,0 14.557,1.416 21.325,4.208l-1.247,3.023c-6.37,-2.628 -13.125,-3.961 -20.078,-3.961c-29.046,0 -52.677,23.631 -52.677,52.677c0,29.047 23.631,52.678 52.677,52.678c29.046,0 52.677,-23.631 52.677,-52.678c0,-9.241 -2.426,-18.331 -7.018,-26.288l2.833,-1.634c4.877,8.453 7.455,18.109 7.455,27.922c0,30.85 -25.097,55.948 -55.947,55.948" style="fill:#7299a8;fill-rule:nonzero;"/><path d="M529.851,294.714c-0.173,-0.15 -0.283,-0.372 -0.282,-0.619c0.001,-0.452 0.368,-0.817 0.819,-0.816l14.693,0.031c0.447,-0.001 0.816,0.363 0.816,0.819c-0.002,0.45 -0.368,0.817 -0.82,0.814l-14.692,-0.029c-0.204,-0.001 -0.391,-0.076 -0.534,-0.2" style="fill:#7299a8;fill-rule:nonzero;"/><path d="M532.605,297.704c-0.006,-0.006 -0.011,-0.011 -0.017,-0.017l-2.913,-3.108c-0.308,-0.329 -0.291,-0.846 0.038,-1.156l2.967,-2.781c0.33,-0.309 0.852,-0.266 1.156,0.038c0.309,0.329 0.292,0.846 -0.037,1.156l-2.371,2.221l2.354,2.512c0.308,0.329 0.291,0.846 -0.038,1.156c-0.324,0.303 -0.829,0.292 -1.139,-0.021" style="fill:#7299a8;fill-rule:nonzero;"/><path d="M490.266,314.425c-0.173,-0.15 -0.283,-0.372 -0.282,-0.619c0.001,-0.452 0.368,-0.817 0.819,-0.816l14.693,0.031c0.447,-0.001 0.816,0.363 0.816,0.819c-0.002,0.45 -0.368,0.817 -0.82,0.814l-14.692,-0.029c-0.204,-0.001 -0.391,-0.076 -0.534,-0.2" style="fill:#7299a8;fill-rule:nonzero;"/><path d="M493.02,317.416c-0.006,-0.006 -0.011,-0.011 -0.017,-0.017l-2.913,-3.108c-0.308,-0.329 -0.291,-0.846 0.038,-1.156l2.967,-2.781c0.33,-0.309 0.852,-0.266 1.156,0.038c0.309,0.329 0.292,0.846 -0.037,1.156l-2.371,2.221l2.354,2.512c0.308,0.329 0.291,0.846 -0.038,1.156c-0.324,0.303 -0.829,0.292 -1.139,-0.021" style="fill:#7299a8;fill-rule:nonzero;"/><path d="M552.123,257.681c0.294,0.278 0.307,0.741 0.029,1.036l-1.571,1.662c-0.144,0.152 -0.338,0.229 -0.533,0.229c-0.18,0 -0.361,-0.066 -0.503,-0.2c-0.294,-0.278 -0.307,-0.742 -0.029,-1.036l1.571,-1.662c0.278,-0.294 0.742,-0.307 1.036,-0.029M556.051,253.525c0.295,0.278 0.308,0.742 0.03,1.036l-1.572,1.662c-0.144,0.153 -0.338,0.229 -0.532,0.229c-0.181,0 -0.362,-0.066 -0.503,-0.2c-0.294,-0.278 -0.307,-0.741 -0.029,-1.036l1.571,-1.662c0.278,-0.294 0.742,-0.307 1.035,-0.029M542.829,257.681c0.295,0.278 0.308,0.741 0.03,1.036l-1.572,1.662c-0.144,0.152 -0.338,0.229 -0.533,0.229c-0.18,0 -0.361,-0.066 -0.503,-0.2c-0.294,-0.278 -0.306,-0.742 -0.029,-1.036l1.572,-1.662c0.278,-0.294 0.742,-0.307 1.035,-0.029M546.758,253.525c0.294,0.278 0.307,0.742 0.029,1.036l-1.571,1.662c-0.144,0.153 -0.338,0.229 -0.533,0.229c-0.18,0 -0.361,-0.066 -0.503,-0.2c-0.294,-0.278 -0.307,-0.741 -0.029,-1.036l1.571,-1.662c0.278,-0.294 0.742,-0.307 1.036,-0.029M533.536,257.681c0.294,0.278 0.307,0.741 0.029,1.036l-1.571,1.662c-0.144,0.152 -0.338,0.229 -0.533,0.229c-0.18,0 -0.361,-0.066 -0.503,-0.2c-0.294,-0.278 -0.307,-0.742 -0.029,-1.036l1.571,-1.662c0.278,-0.294 0.742,-0.307 1.036,-0.029M537.465,253.525c0.294,0.278 0.306,0.742 0.029,1.036l-1.572,1.662c-0.144,0.153 -0.338,0.229 -0.532,0.229c-0.181,0 -0.362,-0.066 -0.503,-0.2c-0.295,-0.278 -0.308,-0.741 -0.03,-1.036l1.572,-1.662c0.278,-0.294 0.741,-0.307 1.036,-0.029M524.243,257.681c0.294,0.278 0.307,0.741 0.029,1.036l-1.572,1.662c-0.144,0.152 -0.338,0.229 -0.532,0.229c-0.181,0 -0.362,-0.066 -0.503,-0.2c-0.294,-0.278 -0.308,-0.742 -0.029,-1.036l1.571,-1.662c0.278,-0.294 0.741,-0.307 1.036,-0.029M528.171,253.525c0.294,0.278 0.307,0.742 0.029,1.036l-1.571,1.662c-0.144,0.153 -0.338,0.229 -0.533,0.229c-0.18,0 -0.361,-0.066 -0.503,-0.2c-0.294,-0.278 -0.307,-0.741 -0.029,-1.036l1.571,-1.662c0.278,-0.294 0.742,-0.307 1.036,-0.029M559.201,250.243l-29.429,0c-3.866,0 -7.012,-3.145 -7.012,-7.011c0,-3.638 2.785,-6.637 6.335,-6.979c0.373,2.605 2.617,4.613 5.323,4.613c0.405,0 0.733,-0.327 0.733,-0.732c0,-0.405 -0.328,-0.733 -0.733,-0.733c-2.158,0 -3.913,-1.756 -3.913,-3.914c0,-0.27 0.027,-0.533 0.079,-0.788c0.353,-1.718 1.835,-3.029 3.633,-3.121c0.067,-0.003 0.134,-0.005 0.201,-0.005c0.022,0 0.044,0.001 0.066,0.002l0.045,0.001c0.367,0.013 0.682,-0.251 0.743,-0.611c0.692,-4.135 4.242,-7.137 8.44,-7.137c4.161,0 7.727,3.06 8.431,7.092c-3.85,0.43 -6.852,3.703 -6.852,7.665c0,0.405 0.327,0.733 0.732,0.733c0.405,0 0.733,-0.328 0.733,-0.733c0,-3.434 2.784,-6.229 6.213,-6.249l0.001,0c0.012,0 0.025,0 0.039,-0.001c0.059,0 0.117,0.003 0.175,0.005c0.049,0.001 0.098,0.001 0.146,0.004c0.061,0.003 0.122,0.009 0.184,0.014c0.044,0.003 0.089,0.006 0.132,0.01c0.063,0.007 0.125,0.016 0.188,0.024c0.041,0.006 0.083,0.01 0.124,0.016c0.065,0.01 0.129,0.022 0.193,0.034c0.038,0.007 0.077,0.013 0.115,0.021c0.066,0.014 0.131,0.03 0.196,0.046c0.035,0.008 0.071,0.015 0.106,0.024c0.067,0.017 0.133,0.037 0.199,0.057c0.032,0.009 0.065,0.017 0.097,0.027c0.068,0.022 0.135,0.045 0.202,0.069c0.029,0.01 0.059,0.019 0.088,0.03c0.067,0.024 0.134,0.052 0.2,0.079c0.028,0.011 0.056,0.021 0.083,0.033c0.065,0.027 0.129,0.057 0.193,0.087c0.028,0.013 0.056,0.025 0.084,0.038c0.061,0.03 0.121,0.062 0.181,0.094c0.03,0.015 0.06,0.029 0.088,0.044c0.057,0.032 0.113,0.065 0.17,0.098c0.03,0.018 0.062,0.035 0.092,0.054c0.052,0.031 0.102,0.065 0.152,0.097c0.034,0.022 0.068,0.043 0.102,0.065c0.043,0.029 0.085,0.061 0.128,0.091c0.039,0.028 0.079,0.055 0.117,0.084c0.036,0.027 0.07,0.055 0.105,0.083c0.044,0.034 0.089,0.068 0.131,0.103c0.029,0.023 0.056,0.049 0.085,0.073c0.047,0.041 0.095,0.081 0.142,0.124c0.019,0.017 0.036,0.034 0.055,0.051c0.054,0.052 0.11,0.103 0.163,0.156c0.007,0.008 0.014,0.016 0.022,0.024c1.117,1.13 1.808,2.681 1.808,4.392c-0.001,0.016 -0.001,0.031 -0.001,0.046c-0.002,0.371 0.273,0.685 0.64,0.731c2.719,0.344 4.77,2.673 4.77,5.418c0,3.012 -2.45,5.462 -5.463,5.462M560.7,238.017c-0.004,-0.041 -0.008,-0.082 -0.012,-0.123c-0.005,-0.053 -0.01,-0.106 -0.016,-0.159c-0.008,-0.072 -0.017,-0.144 -0.027,-0.216c-0.007,-0.051 -0.014,-0.102 -0.022,-0.152c-0.012,-0.075 -0.026,-0.149 -0.04,-0.223c-0.009,-0.046 -0.017,-0.094 -0.026,-0.14c-0.018,-0.083 -0.038,-0.165 -0.058,-0.247c-0.008,-0.037 -0.016,-0.073 -0.025,-0.11c-0.031,-0.116 -0.063,-0.232 -0.099,-0.347c-0.009,-0.029 -0.02,-0.058 -0.03,-0.088c-0.027,-0.085 -0.055,-0.17 -0.086,-0.254c-0.016,-0.044 -0.034,-0.088 -0.051,-0.131c-0.026,-0.069 -0.052,-0.137 -0.08,-0.204c-0.02,-0.047 -0.041,-0.095 -0.062,-0.142c-0.027,-0.062 -0.055,-0.124 -0.084,-0.185c-0.023,-0.049 -0.047,-0.096 -0.07,-0.144c-0.03,-0.059 -0.059,-0.118 -0.09,-0.176c-0.026,-0.048 -0.052,-0.095 -0.078,-0.142c-0.032,-0.057 -0.065,-0.113 -0.098,-0.169c-0.027,-0.047 -0.055,-0.093 -0.084,-0.139c-0.034,-0.056 -0.07,-0.11 -0.105,-0.164c-0.029,-0.045 -0.059,-0.09 -0.089,-0.134c-0.038,-0.055 -0.076,-0.109 -0.115,-0.162c-0.031,-0.042 -0.061,-0.085 -0.093,-0.127c-0.042,-0.055 -0.085,-0.109 -0.128,-0.163c-0.031,-0.038 -0.06,-0.077 -0.092,-0.115c-0.052,-0.062 -0.107,-0.124 -0.161,-0.186c-0.024,-0.026 -0.046,-0.054 -0.071,-0.081c-0.078,-0.085 -0.158,-0.169 -0.24,-0.251c-0.031,-0.031 -0.063,-0.061 -0.094,-0.091c-0.053,-0.052 -0.107,-0.104 -0.161,-0.154c-0.038,-0.034 -0.076,-0.067 -0.114,-0.1c-0.05,-0.045 -0.101,-0.09 -0.153,-0.132c-0.041,-0.035 -0.082,-0.068 -0.123,-0.101c-0.052,-0.041 -0.102,-0.081 -0.154,-0.121c-0.043,-0.032 -0.087,-0.064 -0.13,-0.096c-0.053,-0.038 -0.105,-0.076 -0.158,-0.113c-0.045,-0.03 -0.09,-0.061 -0.135,-0.091c-0.054,-0.035 -0.108,-0.07 -0.164,-0.105c-0.046,-0.028 -0.091,-0.057 -0.138,-0.084c-0.056,-0.034 -0.114,-0.066 -0.171,-0.099c-0.046,-0.026 -0.092,-0.052 -0.139,-0.077c-0.06,-0.032 -0.122,-0.063 -0.183,-0.094c-0.045,-0.023 -0.09,-0.045 -0.135,-0.067c-0.069,-0.033 -0.138,-0.063 -0.207,-0.094c-0.04,-0.018 -0.08,-0.036 -0.12,-0.053c-0.105,-0.045 -0.212,-0.087 -0.321,-0.127c-0.016,-0.006 -0.033,-0.012 -0.05,-0.018c-0.1,-0.036 -0.201,-0.07 -0.303,-0.102c-0.041,-0.013 -0.083,-0.025 -0.124,-0.037c-0.075,-0.022 -0.15,-0.044 -0.225,-0.064c-0.048,-0.012 -0.096,-0.023 -0.144,-0.035c-0.071,-0.017 -0.141,-0.034 -0.212,-0.049c-0.052,-0.011 -0.103,-0.02 -0.154,-0.03c-0.07,-0.013 -0.139,-0.026 -0.21,-0.038c-0.052,-0.008 -0.105,-0.016 -0.158,-0.024c-0.07,-0.009 -0.141,-0.018 -0.212,-0.026c-0.052,-0.006 -0.106,-0.012 -0.159,-0.017c-0.031,-0.003 -0.061,-0.007 -0.092,-0.01c-0.336,-2.247 -1.426,-4.311 -3.111,-5.869c-1.856,-1.716 -4.272,-2.662 -6.802,-2.662c-2.386,0 -4.697,0.853 -6.509,2.401c-1.635,1.398 -2.778,3.286 -3.258,5.364c-0.014,0.001 -0.028,0.004 -0.041,0.005c-0.033,0.003 -0.066,0.007 -0.099,0.011c-0.052,0.005 -0.105,0.012 -0.157,0.02c-0.033,0.005 -0.066,0.01 -0.099,0.015c-0.052,0.009 -0.103,0.018 -0.154,0.028c-0.032,0.006 -0.064,0.012 -0.096,0.019c-0.054,0.011 -0.107,0.024 -0.159,0.036c-0.029,0.008 -0.057,0.014 -0.085,0.021c-0.064,0.017 -0.127,0.035 -0.19,0.054c-0.017,0.005 -0.034,0.009 -0.05,0.015c-0.079,0.024 -0.157,0.051 -0.235,0.079c-0.021,0.008 -0.041,0.017 -0.061,0.024c-0.057,0.022 -0.113,0.044 -0.168,0.066c-0.028,0.012 -0.055,0.024 -0.083,0.037c-0.048,0.021 -0.095,0.042 -0.143,0.064c-0.029,0.014 -0.057,0.028 -0.086,0.043c-0.045,0.022 -0.09,0.045 -0.134,0.068c-0.029,0.016 -0.058,0.031 -0.086,0.047c-0.045,0.024 -0.089,0.05 -0.133,0.076c-0.026,0.016 -0.052,0.031 -0.079,0.047c-0.048,0.03 -0.095,0.06 -0.142,0.092c-0.021,0.013 -0.042,0.026 -0.063,0.04c-0.067,0.045 -0.132,0.092 -0.197,0.141c-0.009,0.007 -0.018,0.014 -0.028,0.021c-0.055,0.042 -0.11,0.085 -0.163,0.129c-0.022,0.018 -0.043,0.036 -0.065,0.054c-0.04,0.035 -0.08,0.069 -0.119,0.104c-0.024,0.022 -0.047,0.043 -0.071,0.065c-0.036,0.034 -0.072,0.068 -0.107,0.102c-0.023,0.023 -0.047,0.047 -0.07,0.07c-0.034,0.035 -0.068,0.071 -0.102,0.107c-0.022,0.023 -0.044,0.047 -0.065,0.071c-0.035,0.039 -0.068,0.078 -0.102,0.118c-0.019,0.022 -0.038,0.044 -0.056,0.066c-0.042,0.051 -0.082,0.102 -0.122,0.155c-0.009,0.012 -0.019,0.024 -0.028,0.036c-0.048,0.065 -0.095,0.131 -0.14,0.197c-0.014,0.021 -0.027,0.042 -0.041,0.063c-0.031,0.047 -0.062,0.094 -0.092,0.142c-0.016,0.027 -0.031,0.053 -0.047,0.08c-0.026,0.044 -0.051,0.087 -0.076,0.132c-0.016,0.028 -0.032,0.058 -0.047,0.087c-0.023,0.044 -0.046,0.087 -0.068,0.132c-0.014,0.029 -0.029,0.059 -0.043,0.088c-0.021,0.047 -0.042,0.093 -0.063,0.14c-0.012,0.029 -0.025,0.057 -0.037,0.086c-0.023,0.053 -0.044,0.107 -0.064,0.162c-0.009,0.022 -0.018,0.045 -0.026,0.067c-0.028,0.078 -0.055,0.156 -0.079,0.234c-0.005,0.015 -0.009,0.03 -0.013,0.045c-0.02,0.064 -0.039,0.129 -0.056,0.195c-0.007,0.028 -0.014,0.056 -0.021,0.084c-0.013,0.053 -0.026,0.107 -0.037,0.16c-0.007,0.032 -0.012,0.064 -0.019,0.096c-0.01,0.051 -0.019,0.103 -0.028,0.155c-0.005,0.032 -0.01,0.065 -0.014,0.098c-0.004,0.021 -0.008,0.043 -0.01,0.065c-4.355,0.35 -7.792,4.006 -7.792,8.45c0,4.674 3.804,8.477 8.478,8.477l29.429,0c3.82,0 6.928,-3.108 6.928,-6.928c0,-3.269 -2.293,-6.073 -5.429,-6.764" style="fill:#7299a8;fill-rule:nonzero;"/><path d="M499.351,273.879c-0.455,-0.154 -0.949,0.09 -1.103,0.545c-0.383,1.132 -1.093,1.681 -2.171,1.681c-1.046,0 -2.009,-0.765 -2.394,-1.904c-0.123,-0.364 -0.462,-0.591 -0.825,-0.591l-0.028,0c-0.363,0 -0.701,0.228 -0.823,0.591c-0.387,1.139 -1.349,1.904 -2.395,1.904c-1.046,0 -2.009,-0.765 -2.394,-1.904c-0.123,-0.364 -0.462,-0.591 -0.825,-0.591l-0.028,0c-0.363,0 -0.701,0.228 -0.824,0.59c-0.385,1.14 -1.348,1.905 -2.394,1.905c-1.047,0 -2.009,-0.765 -2.395,-1.905c-0.123,-0.363 -0.461,-0.591 -0.824,-0.59c-0.005,0 -0.009,0 -0.013,-0.001c-0.005,0.001 -0.01,0.001 -0.015,0.001c-0.363,0 -0.701,0.228 -0.824,0.59c-0.386,1.14 -1.348,1.905 -2.394,1.905c-1.047,0 -2.009,-0.765 -2.395,-1.905c-0.123,-0.363 -0.461,-0.591 -0.825,-0.59c-0.004,0 -0.008,-0.001 -0.012,-0.001c-0.005,0 -0.01,0.001 -0.016,0.001c-0.362,0 -0.7,0.228 -0.823,0.59c-0.386,1.14 -1.348,1.905 -2.395,1.905c-1.078,0 -1.788,-0.549 -2.171,-1.681c-0.154,-0.455 -0.648,-0.699 -1.103,-0.545c-0.455,0.154 -0.699,0.648 -0.545,1.103c0.616,1.819 2.008,2.863 3.819,2.863c1.256,0 2.428,-0.609 3.233,-1.607c0.805,0.998 1.977,1.607 3.232,1.607c1.256,0 2.428,-0.609 3.233,-1.607c0.805,0.998 1.977,1.607 3.233,1.607c1.255,0 2.427,-0.609 3.232,-1.607c0.805,0.998 1.978,1.607 3.233,1.607c1.255,0 2.427,-0.609 3.233,-1.607c0.805,0.998 1.977,1.607 3.232,1.607c1.811,0 3.203,-1.044 3.819,-2.863c0.154,-0.455 -0.09,-0.949 -0.545,-1.103" style="fill:#00324d;fill-rule:nonzero;"/><path d="M552.268,273.879c-0.455,-0.154 -0.949,0.09 -1.103,0.545c-0.383,1.132 -1.093,1.681 -2.171,1.681c-1.046,0 -2.009,-0.765 -2.394,-1.904c-0.123,-0.364 -0.462,-0.591 -0.825,-0.591l-0.028,0c-0.363,0 -0.701,0.228 -0.823,0.591c-0.387,1.139 -1.349,1.904 -2.395,1.904c-1.046,0 -2.009,-0.765 -2.394,-1.904c-0.123,-0.364 -0.462,-0.591 -0.825,-0.591l-0.028,0c-0.363,0 -0.701,0.228 -0.824,0.59c-0.385,1.14 -1.348,1.905 -2.394,1.905c-1.047,0 -2.009,-0.765 -2.395,-1.905c-0.123,-0.363 -0.461,-0.591 -0.824,-0.59c-0.005,0 -0.009,0 -0.013,-0.001c-0.005,0.001 -0.01,0.001 -0.015,0.001c-0.363,0 -0.701,0.228 -0.824,0.59c-0.386,1.14 -1.348,1.905 -2.394,1.905c-1.047,0 -2.009,-0.765 -2.395,-1.905c-0.123,-0.363 -0.461,-0.591 -0.825,-0.59c-0.004,0 -0.008,-0.001 -0.012,-0.001c-0.005,0 -0.01,0.001 -0.016,0.001c-0.362,0 -0.701,0.228 -0.823,0.59c-0.386,1.14 -1.348,1.905 -2.395,1.905c-1.078,0 -1.788,-0.549 -2.171,-1.681c-0.154,-0.455 -0.648,-0.699 -1.103,-0.545c-0.455,0.154 -0.699,0.648 -0.545,1.103c0.616,1.819 2.008,2.863 3.819,2.863c1.256,0 2.428,-0.609 3.233,-1.607c0.805,0.998 1.977,1.607 3.232,1.607c1.256,0 2.428,-0.609 3.233,-1.607c0.805,0.998 1.977,1.607 3.232,1.607c1.256,0 2.428,-0.609 3.233,-1.607c0.805,0.998 1.978,1.607 3.233,1.607c1.255,0 2.427,-0.609 3.233,-1.607c0.805,0.998 1.977,1.607 3.232,1.607c1.811,0 3.203,-1.044 3.819,-2.863c0.154,-0.455 -0.09,-0.949 -0.545,-1.103" style="fill:#00324d;fill-rule:nonzero;"/><path d="M512.658,279.532c-0.455,-0.154 -0.949,0.09 -1.103,0.545c-0.383,1.132 -1.093,1.681 -2.171,1.681c-1.046,0 -2.008,-0.765 -2.394,-1.904c-0.123,-0.363 -0.461,-0.591 -0.824,-0.591l-0.028,0c-0.363,0 -0.702,0.228 -0.824,0.591c-0.386,1.139 -1.348,1.905 -2.395,1.905c-1.046,0 -2.009,-0.766 -2.394,-1.905c-0.123,-0.363 -0.461,-0.591 -0.824,-0.591l-0.028,0c-0.363,0 -0.702,0.228 -0.825,0.591c-0.385,1.139 -1.348,1.905 -2.394,1.905c-1.046,0 -2.009,-0.766 -2.394,-1.905c-0.155,-0.455 -0.648,-0.7 -1.104,-0.545c-0.454,0.154 -0.698,0.647 -0.545,1.103c0.626,1.846 2.25,3.086 4.043,3.086c1.255,0 2.427,-0.609 3.233,-1.607c0.805,0.999 1.977,1.607 3.232,1.607c1.256,0 2.428,-0.609 3.233,-1.607c0.805,0.999 1.977,1.607 3.232,1.607c1.812,0 3.203,-1.043 3.819,-2.863c0.154,-0.455 -0.09,-0.949 -0.545,-1.103" style="fill:#00324d;fill-rule:nonzero;"/><path d="M566.258,278.949c-0.455,-0.154 -0.949,0.09 -1.103,0.545c-0.383,1.132 -1.093,1.681 -2.171,1.681c-1.046,0 -2.008,-0.765 -2.394,-1.904c-0.123,-0.363 -0.461,-0.591 -0.824,-0.591l-0.028,0c-0.363,0 -0.702,0.228 -0.825,0.591c-0.385,1.139 -1.347,1.905 -2.394,1.905c-1.046,0 -2.009,-0.766 -2.394,-1.905c-0.123,-0.363 -0.462,-0.591 -0.824,-0.591l-0.028,0c-0.363,0 -0.702,0.228 -0.825,0.591c-0.385,1.139 -1.348,1.905 -2.394,1.905c-1.046,0 -2.009,-0.766 -2.395,-1.905c-0.154,-0.455 -0.647,-0.7 -1.103,-0.545c-0.454,0.154 -0.698,0.647 -0.545,1.103c0.626,1.846 2.25,3.086 4.043,3.086c1.255,0 2.427,-0.609 3.233,-1.607c0.805,0.999 1.977,1.607 3.232,1.607c1.256,0 2.428,-0.609 3.233,-1.607c0.805,0.999 1.977,1.607 3.232,1.607c1.812,0 3.203,-1.043 3.819,-2.863c0.154,-0.455 -0.09,-0.949 -0.545,-1.103" style="fill:#00324d;fill-rule:nonzero;"/><path d="M525.955,268.957c-0.455,-0.154 -0.949,0.09 -1.103,0.545c-0.383,1.132 -1.093,1.681 -2.171,1.681c-1.046,0 -2.008,-0.765 -2.394,-1.904c-0.123,-0.363 -0.461,-0.591 -0.824,-0.591l-0.028,0c-0.363,0 -0.702,0.228 -0.824,0.591c-0.386,1.139 -1.348,1.905 -2.395,1.905c-1.046,0 -2.008,-0.766 -2.394,-1.905c-0.123,-0.363 -0.461,-0.591 -0.824,-0.591l-0.028,0c-0.363,0 -0.702,0.228 -0.825,0.591c-0.385,1.139 -1.348,1.905 -2.394,1.905c-1.046,0 -2.009,-0.766 -2.394,-1.905c-0.155,-0.455 -0.648,-0.7 -1.104,-0.545c-0.454,0.154 -0.698,0.647 -0.545,1.103c0.626,1.846 2.25,3.086 4.043,3.086c1.255,0 2.427,-0.609 3.233,-1.607c0.805,0.999 1.977,1.607 3.232,1.607c1.256,0 2.428,-0.609 3.233,-1.607c0.805,0.999 1.977,1.607 3.232,1.607c1.812,0 3.203,-1.043 3.819,-2.863c0.154,-0.455 -0.09,-0.949 -0.545,-1.103" style="fill:#00324d;fill-rule:nonzero;"/><path d="M518.885,304.831c0,1.535 -1.245,2.78 -2.78,2.78c-1.536,0 -2.781,-1.245 -2.781,-2.78c0,-1.536 1.245,-2.78 2.781,-2.78c1.535,0 2.78,1.244 2.78,2.78M535.173,303.993c0,2.95 -2.393,5.35 -5.334,5.35c-0.36,0 -0.723,-0.038 -1.083,-0.111c-0.003,-0.001 -0.013,-0.003 -0.029,-0.008l-6.84,-2.393c0.119,-0.343 0.206,-0.695 0.261,-1.054c0.002,-0.015 0.004,-0.03 0.006,-0.044c0.012,-0.078 0.022,-0.156 0.03,-0.234c0.001,-0.009 0.003,-0.018 0.003,-0.026l9.248,0c0.354,0 0.641,-0.288 0.641,-0.642c0,-0.355 -0.287,-0.642 -0.641,-0.642l-9.248,0c0,-0.003 0,-0.006 -0.001,-0.009c-0.009,-0.088 -0.02,-0.176 -0.033,-0.263c-0.002,-0.008 -0.002,-0.016 -0.004,-0.024c-0.015,-0.097 -0.032,-0.193 -0.051,-0.289c-0.001,-0.004 -0.002,-0.007 -0.003,-0.011c-0.021,-0.104 -0.045,-0.208 -0.072,-0.311l12.936,0c0.118,0 0.214,0.096 0.214,0.214l0,0.497ZM517.992,309.28c-0.013,0.006 -0.026,0.011 -0.039,0.016c-0.061,0.025 -0.122,0.05 -0.184,0.073c-0.009,0.003 -0.018,0.006 -0.027,0.01c-0.067,0.023 -0.133,0.046 -0.201,0.067c-0.002,0.001 -0.004,0.002 -0.006,0.002c-0.225,0.07 -0.457,0.124 -0.695,0.161c0,0 -0.003,0 -0.004,0c-0.078,0.012 -0.156,0.022 -0.235,0.03c-0.164,0.017 -0.329,0.025 -0.496,0.025c-0.089,0 -0.178,-0.003 -0.266,-0.007c-0.026,-0.001 -0.051,-0.004 -0.077,-0.006c-0.058,-0.004 -0.116,-0.008 -0.174,-0.015c-0.046,-0.005 -0.092,-0.011 -0.137,-0.017c-0.036,-0.005 -0.072,-0.009 -0.108,-0.015c-0.055,-0.009 -0.11,-0.019 -0.165,-0.03c-0.024,-0.005 -0.049,-0.009 -0.074,-0.015c-0.06,-0.012 -0.12,-0.026 -0.18,-0.041c-0.018,-0.004 -0.035,-0.009 -0.052,-0.014c-0.065,-0.016 -0.129,-0.034 -0.192,-0.054c-0.011,-0.004 -0.022,-0.007 -0.033,-0.011c-1.955,-0.619 -3.376,-2.451 -3.376,-4.608c0,-0.053 0.002,-0.104 0.004,-0.156c0.001,-0.032 0.001,-0.065 0.003,-0.096c0.003,-0.06 0.008,-0.119 0.013,-0.178c0.002,-0.024 0.004,-0.049 0.007,-0.074c0.006,-0.064 0.015,-0.127 0.024,-0.191c0.002,-0.018 0.005,-0.036 0.007,-0.054c0.011,-0.066 0.023,-0.133 0.036,-0.199c0.003,-0.013 0.005,-0.027 0.008,-0.04c0.014,-0.069 0.03,-0.137 0.048,-0.205c0.002,-0.009 0.004,-0.018 0.007,-0.027c0.018,-0.072 0.038,-0.143 0.06,-0.213c0.001,-0.003 0.002,-0.006 0.003,-0.008c0.614,-1.964 2.45,-3.392 4.614,-3.392c0.087,0 0.173,0.002 0.259,0.007c0.043,0.002 0.085,0.006 0.128,0.009c0.041,0.004 0.082,0.007 0.123,0.011c0.056,0.006 0.112,0.013 0.167,0.021c0.026,0.003 0.051,0.007 0.076,0.01c0.063,0.011 0.126,0.022 0.188,0.034c0.016,0.004 0.033,0.007 0.05,0.01c0.067,0.014 0.134,0.03 0.2,0.046c0.01,0.003 0.02,0.006 0.031,0.009c0.07,0.018 0.14,0.038 0.209,0.059c0.004,0.001 0.008,0.002 0.012,0.004c1.355,0.425 2.455,1.431 3.006,2.725c0.005,0.013 0.01,0.025 0.015,0.038c0.026,0.062 0.051,0.123 0.074,0.186c0.003,0.008 0.005,0.016 0.008,0.023c0.131,0.364 0.221,0.747 0.262,1.145c0.016,0.163 0.025,0.329 0.025,0.496c0,0.089 -0.003,0.178 -0.007,0.266c-0.002,0.026 -0.005,0.051 -0.006,0.077c-0.005,0.058 -0.009,0.116 -0.015,0.174c-0.005,0.046 -0.011,0.092 -0.017,0.138c-0.005,0.035 -0.01,0.071 -0.016,0.106c-0.008,0.056 -0.018,0.111 -0.029,0.166c-0.005,0.025 -0.009,0.049 -0.014,0.073c-0.013,0.061 -0.028,0.122 -0.043,0.182c-0.004,0.017 -0.008,0.034 -0.013,0.05c-0.017,0.065 -0.035,0.129 -0.055,0.193c-0.003,0.01 -0.006,0.021 -0.01,0.031c-0.427,1.349 -1.43,2.444 -2.721,2.993M517.653,310.75l0,12.935c0,0.118 -0.096,0.214 -0.214,0.214l-0.497,0c-1.613,0 -3.122,-0.716 -4.142,-1.965c-1.019,-1.25 -1.42,-2.871 -1.097,-4.451c0.001,-0.003 0.003,-0.014 0.009,-0.03l2.392,-6.84c0.343,0.119 0.695,0.205 1.055,0.261c0.015,0.003 0.029,0.004 0.044,0.007c0.077,0.011 0.155,0.021 0.233,0.029c0.009,0.001 0.018,0.003 0.027,0.004l0,9.247c0,0.355 0.287,0.642 0.642,0.642c0.354,0 0.641,-0.287 0.641,-0.642l0,-9.247c0.003,-0.001 0.006,-0.001 0.009,-0.002c0.089,-0.009 0.177,-0.02 0.265,-0.033c0.007,-0.001 0.015,-0.002 0.022,-0.003c0.097,-0.015 0.193,-0.032 0.289,-0.052c0.004,-0.001 0.008,-0.002 0.012,-0.003c0.104,-0.021 0.207,-0.044 0.31,-0.071M510.185,306.379l-12.935,0c-0.118,0 -0.214,-0.096 -0.214,-0.213l0,-0.497c0,-0.066 0.002,-0.131 0.005,-0.196l10.303,0c0.355,0 0.642,-0.288 0.642,-0.642c0,-0.355 -0.287,-0.642 -0.642,-0.642l-10.1,0c0.642,-2.232 2.696,-3.87 5.125,-3.87c0.36,0 0.724,0.037 1.086,0.111c0.003,0.001 0.013,0.003 0.027,0.008l6.84,2.392c-0.121,0.349 -0.208,0.706 -0.263,1.069c0,0.002 -0.001,0.003 -0.001,0.003c-0.014,0.094 -0.026,0.189 -0.036,0.284c-0.001,0.013 -0.003,0.026 -0.004,0.039c-0.008,0.087 -0.015,0.175 -0.02,0.263c-0.001,0.013 -0.002,0.027 -0.002,0.041c-0.005,0.1 -0.008,0.2 -0.008,0.302c0,0.101 0.003,0.201 0.008,0.3c0,0.008 0,0.017 0.001,0.025c0.021,0.416 0.084,0.825 0.188,1.223M514.556,298.912l0,-12.936c0,-0.118 0.096,-0.214 0.214,-0.214l0.497,0c0.065,0 0.131,0.003 0.196,0.006l0,9.208c0,0.354 0.287,0.642 0.642,0.642c0.354,0 0.641,-0.288 0.641,-0.642l0,-9.006c1.035,0.296 1.964,0.901 2.663,1.757c1.019,1.25 1.419,2.871 1.096,4.455c-0.001,0.003 -0.003,0.012 -0.008,0.027l-2.392,6.839c-0.346,-0.12 -0.701,-0.207 -1.063,-0.262c-0.007,-0.001 -0.013,-0.002 -0.02,-0.003c-0.086,-0.013 -0.174,-0.024 -0.262,-0.033c-0.019,-0.002 -0.039,-0.004 -0.059,-0.006c-0.077,-0.007 -0.154,-0.013 -0.232,-0.018c-0.023,-0.001 -0.047,-0.003 -0.071,-0.004c-0.097,-0.005 -0.194,-0.008 -0.292,-0.008l-0.002,0c-0.095,0 -0.191,0.003 -0.285,0.008c-0.017,0 -0.033,0.001 -0.05,0.002c-0.097,0.005 -0.192,0.012 -0.288,0.022l-0.003,0c-0.312,0.032 -0.62,0.087 -0.922,0.166M534.959,301.999l-13.435,0c-0.519,-0.989 -1.301,-1.821 -2.253,-2.399l2.439,-6.972c0.024,-0.07 0.041,-0.135 0.053,-0.194c0.4,-1.958 -0.096,-3.969 -1.36,-5.518c-1.009,-1.235 -2.404,-2.05 -3.943,-2.329c-0.102,-0.068 -0.224,-0.108 -0.355,-0.108c-0.069,0 -0.136,0.011 -0.198,0.031c-0.212,-0.02 -0.425,-0.031 -0.64,-0.031l-0.497,0c-0.826,0 -1.497,0.672 -1.497,1.497l0,13.436c-0.99,0.519 -1.821,1.3 -2.4,2.252l-6.972,-2.439c-0.07,-0.024 -0.135,-0.041 -0.194,-0.053c-0.442,-0.09 -0.892,-0.136 -1.338,-0.136c-3.32,0 -6.076,2.465 -6.546,5.665c-0.005,0.028 -0.009,0.057 -0.01,0.087c-0.039,0.288 -0.061,0.582 -0.061,0.881l0,0.497c0,0.825 0.672,1.497 1.498,1.497l13.435,0c0.52,0.989 1.301,1.821 2.252,2.399l-2.438,6.973c-0.024,0.069 -0.041,0.132 -0.054,0.193c-0.399,1.958 0.097,3.969 1.361,5.517c1.264,1.549 3.137,2.437 5.136,2.437l0.497,0c0.826,0 1.497,-0.671 1.497,-1.497l0,-13.435c0.99,-0.519 1.821,-1.3 2.4,-2.252l6.972,2.439c0.068,0.023 0.133,0.041 0.194,0.053c0.442,0.09 0.891,0.136 1.337,0.136c3.648,0 6.617,-2.975 6.617,-6.633l0,-0.497c0,-0.825 -0.672,-1.497 -1.497,-1.497" style="fill:#00324d;fill-rule:nonzero;"/></svg>