<?xml version="1.0" standalone="no"?><!DOCTYPE svg PUBLIC "-//W3C//DTD SVG 1.1//EN" "http://www.w3.org/Graphics/SVG/1.1/DTD/svg11.dtd"><svg width="100%" height="100%" viewBox="0 0 310 119" version="1.1" xmlns="http://www.w3.org/2000/svg" xmlns:xlink="http://www.w3.org/1999/xlink" xml:space="preserve" style="fill-rule:evenodd;clip-rule:evenodd;stroke-linejoin:round;stroke-miterlimit:1.41421;"><path d="M185.251,48.428l-9.626,0c-0.9,0 -1.629,-0.729 -1.629,-1.629c0,-0.9 0.729,-1.629 1.629,-1.629l9.626,0c3.161,0 5.733,-2.06 5.733,-4.592l0,-12.01l2.924,-0.025l0,-6.968l-2.924,0.022l0,-15.773c0,-1.391 -1.527,-2.565 -3.335,-2.565c-1.22,0 -2.303,0.655 -2.574,1.557l-11.626,38.699c-0.87,2.893 -3.86,4.913 -7.271,4.913c-2.552,0 -4.907,-1.118 -6.3,-2.991c-1.162,-1.562 -1.516,-3.498 -0.971,-5.31l9.843,-32.763c0.319,-1.061 -0.077,-1.906 -0.465,-2.428c-0.781,-1.05 -2.158,-1.677 -3.685,-1.677l-0.195,0c-1.84,0 -3.483,1.02 -3.905,2.426l-11.366,37.831c-0.869,2.892 -3.859,4.912 -7.27,4.912c-2.553,0 -4.909,-1.118 -6.301,-2.991c-1.162,-1.561 -1.516,-3.497 -0.971,-5.309l9.848,-32.775c0.318,-1.058 -0.077,-1.901 -0.464,-2.421c-0.779,-1.048 -2.154,-1.673 -3.678,-1.673c-1.968,0 -3.71,1.088 -4.16,2.588l-11.44,38.076c-0.797,2.653 -3.531,4.505 -6.649,4.505c-3.872,0 -7.023,-2.775 -7.023,-6.186l0,-35.073c0,-3.953 3.672,-7.169 8.186,-7.169l9.344,0c0.9,0 1.63,0.73 1.63,1.63c0,0.899 -0.73,1.629 -1.63,1.629l-9.344,0c-2.717,0 -4.927,1.754 -4.927,3.91l0,35.073c0,1.614 1.688,2.928 3.764,2.928c1.664,0 3.147,-0.919 3.528,-2.184l11.44,-38.077c0.868,-2.89 3.855,-4.909 7.263,-4.909c2.567,0 4.92,1.117 6.311,2.987c1.16,1.56 1.513,3.493 0.969,5.303l-9.847,32.776c-0.319,1.061 0.077,1.905 0.465,2.427c0.78,1.05 2.158,1.677 3.685,1.677c1.954,0 3.699,-1.09 4.15,-2.592l11.366,-37.83c0.84,-2.796 3.729,-4.748 7.026,-4.748l0.195,0c2.552,0 4.907,1.118 6.299,2.991c1.162,1.562 1.516,3.498 0.972,5.311l-9.843,32.762c-0.319,1.062 0.077,1.907 0.465,2.429c0.781,1.05 2.158,1.677 3.685,1.677c1.953,0 3.698,-1.091 4.15,-2.593l11.626,-38.698c0.686,-2.284 3.028,-3.879 5.695,-3.879c3.636,0 6.593,2.613 6.593,5.824l0,12.49l0.025,0c0.803,0 1.573,0.31 2.118,0.853c0.504,0.501 0.782,1.157 0.782,1.847l0,8.084c0,1.479 -1.291,2.69 -2.878,2.7l-0.047,0l0,8.78c0,4.329 -4.033,7.85 -8.991,7.85Z" style="fill:url(#_Linear1);"/><path d="M27.216,83.884c-0.925,-1.176 -2.132,-2.11 -3.623,-2.804c-1.492,-0.693 -2.929,-1.04 -4.316,-1.04c-0.714,0 -1.438,0.064 -2.173,0.19c-0.735,0.126 -1.397,0.368 -1.984,0.724c-0.589,0.358 -1.082,0.82 -1.48,1.386c-0.401,0.568 -0.599,1.292 -0.599,2.174c0,0.756 0.157,1.386 0.473,1.89c0.314,0.504 0.776,0.945 1.385,1.323c0.609,0.378 1.333,0.725 2.173,1.039c0.84,0.315 1.785,0.642 2.835,0.977c1.513,0.503 3.088,1.061 4.726,1.669c1.637,0.61 3.128,1.417 4.472,2.426c1.344,1.008 2.457,2.258 3.339,3.748c0.883,1.492 1.324,3.35 1.324,5.575c0,2.563 -0.473,4.779 -1.417,6.647c-0.946,1.87 -2.216,3.413 -3.812,4.631c-1.597,1.219 -3.424,2.121 -5.481,2.709c-2.059,0.588 -4.18,0.882 -6.364,0.882c-3.192,0 -6.279,-0.557 -9.261,-1.669c-2.982,-1.113 -5.459,-2.699 -7.433,-4.757l7.056,-7.182c1.091,1.345 2.53,2.468 4.315,3.37c1.785,0.904 3.56,1.355 5.323,1.355c0.798,0 1.575,-0.084 2.331,-0.252c0.756,-0.167 1.418,-0.442 1.985,-0.819c0.567,-0.378 1.018,-0.882 1.354,-1.512c0.336,-0.63 0.505,-1.386 0.505,-2.268c0,-0.84 -0.211,-1.553 -0.631,-2.142c-0.42,-0.588 -1.018,-1.123 -1.795,-1.607c-0.777,-0.482 -1.743,-0.923 -2.898,-1.323c-1.155,-0.398 -2.468,-0.828 -3.938,-1.291c-1.427,-0.462 -2.825,-1.008 -4.189,-1.638c-1.365,-0.631 -2.583,-1.438 -3.653,-2.426c-1.072,-0.986 -1.933,-2.183 -2.583,-3.59c-0.653,-1.408 -0.977,-3.119 -0.977,-5.135c0,-2.478 0.504,-4.599 1.512,-6.363c1.008,-1.764 2.331,-3.213 3.968,-4.348c1.638,-1.133 3.486,-1.962 5.544,-2.488c2.058,-0.525 4.137,-0.788 6.238,-0.788c2.519,0 5.092,0.463 7.718,1.387c2.624,0.924 4.923,2.289 6.898,4.095l-6.867,7.245Z" style="fill:#363a3c;fill-rule:nonzero;"/><path d="M84.357,81.49l0,35.406l-10.773,0l0,-35.406l-12.6,0l0,-9.198l35.973,0l0,9.198l-12.6,0Z" style="fill:#363a3c;fill-rule:nonzero;"/><path d="M160.146,94.405c0,-1.931 -0.315,-3.738 -0.945,-5.418c-0.63,-1.679 -1.502,-3.118 -2.614,-4.316c-1.113,-1.197 -2.457,-2.141 -4.032,-2.835c-1.576,-0.693 -3.308,-1.039 -5.198,-1.039c-1.89,0 -3.613,0.346 -5.166,1.039c-1.554,0.694 -2.898,1.638 -4.032,2.835c-1.134,1.198 -2.006,2.637 -2.614,4.316c-0.61,1.68 -0.914,3.487 -0.914,5.418c0,2.016 0.315,3.875 0.945,5.576c0.63,1.7 1.501,3.16 2.614,4.378c1.113,1.219 2.447,2.174 4.001,2.866c1.553,0.693 3.276,1.04 5.166,1.04c1.89,0 3.612,-0.347 5.166,-1.04c1.553,-0.692 2.898,-1.647 4.032,-2.866c1.134,-1.218 2.016,-2.678 2.646,-4.378c0.63,-1.701 0.945,-3.56 0.945,-5.576ZM171.674,94.405c0,3.528 -0.609,6.752 -1.826,9.671c-1.219,2.919 -2.909,5.418 -5.072,7.497c-2.163,2.079 -4.735,3.685 -7.717,4.819c-2.983,1.134 -6.216,1.701 -9.702,1.701c-3.487,0 -6.71,-0.567 -9.671,-1.701c-2.96,-1.134 -5.523,-2.74 -7.685,-4.819c-2.164,-2.079 -3.855,-4.578 -5.072,-7.497c-1.219,-2.919 -1.828,-6.143 -1.828,-9.671c0,-3.57 0.609,-6.793 1.828,-9.67c1.217,-2.877 2.908,-5.324 5.072,-7.34c2.162,-2.016 4.725,-3.57 7.685,-4.663c2.961,-1.092 6.184,-1.637 9.671,-1.637c3.486,0 6.719,0.545 9.702,1.637c2.982,1.093 5.554,2.647 7.717,4.663c2.163,2.016 3.853,4.463 5.072,7.34c1.217,2.877 1.826,6.1 1.826,9.67Z" style="fill:#363a3c;fill-rule:nonzero;"/><path d="M227.429,85.963c0,-1.05 -0.223,-1.9 -0.666,-2.552c-0.442,-0.65 -1.013,-1.155 -1.708,-1.511c-0.697,-0.357 -1.477,-0.599 -2.343,-0.725c-0.866,-0.126 -1.699,-0.189 -2.501,-0.189l-5.76,0l0,10.395l5.128,0c0.885,0 1.793,-0.073 2.722,-0.22c0.929,-0.147 1.773,-0.41 2.532,-0.789c0.76,-0.378 1.382,-0.922 1.868,-1.637c0.485,-0.714 0.728,-1.638 0.728,-2.772ZM227.87,116.896l-9.684,-17.703l-3.672,0l0,17.703l-10.521,0l0,-44.604l17.01,0c2.142,0 4.231,0.22 6.269,0.661c2.036,0.44 3.863,1.187 5.48,2.236c1.617,1.052 2.909,2.437 3.875,4.159c0.965,1.723 1.449,3.864 1.449,6.426c0,3.024 -0.819,5.565 -2.457,7.623c-1.638,2.058 -3.906,3.528 -6.804,4.41l11.655,19.089l-12.6,0Z" style="fill:#363a3c;fill-rule:nonzero;"/><path d="M292.004,97.995l0,18.901l-10.773,0l0,-18.901l-16.758,-25.703l13.041,0l9.513,16.506l9.512,-16.506l12.601,0l-17.136,25.703Z" style="fill:#363a3c;fill-rule:nonzero;"/><defs><linearGradient id="_Linear1" x1="0" y1="0" x2="1" y2="0" gradientUnits="userSpaceOnUse" gradientTransform="matrix(-62.3534,52.3207,-52.3207,-62.3534,164.269,14.252)"><stop offset="0%" style="stop-color:#e06856;stop-opacity:1"/><stop offset="40%" style="stop-color:#65444c;stop-opacity:1"/><stop offset="90%" style="stop-color:#0a3650;stop-opacity:1"/><stop offset="100%" style="stop-color:#023450;stop-opacity:1"/></linearGradient></defs></svg>