<?xml version="1.0" standalone="no"?><!DOCTYPE svg PUBLIC "-//W3C//DTD SVG 1.1//EN" "http://www.w3.org/Graphics/SVG/1.1/DTD/svg11.dtd"><svg width="100%" height="100%" viewBox="0 0 266 30" version="1.1" xmlns="http://www.w3.org/2000/svg" xmlns:xlink="http://www.w3.org/1999/xlink" xml:space="preserve" style="fill-rule:evenodd;clip-rule:evenodd;stroke-linejoin:round;stroke-miterlimit:1.41421;"><path d="M44.69,29.437l-5.796,0c-0.542,0 -0.981,-0.439 -0.981,-0.981c0,-0.542 0.439,-0.981 0.981,-0.981l5.796,0c1.903,0 3.451,-1.24 3.451,-2.765l0,-7.231l1.761,-0.015l0,-4.195l-1.761,0.013l0,-9.497c0,-0.837 -0.919,-1.544 -2.007,-1.544c-0.735,0 -1.387,0.394 -1.55,0.937l-7,23.3c-0.524,1.742 -2.324,2.959 -4.378,2.959c-1.536,0 -2.954,-0.674 -3.793,-1.801c-0.7,-0.941 -0.913,-2.106 -0.585,-3.197l5.927,-19.726c0.192,-0.639 -0.047,-1.148 -0.28,-1.462c-0.47,-0.633 -1.3,-1.01 -2.219,-1.01l-0.117,0c-1.108,0 -2.097,0.614 -2.351,1.461l-6.844,22.777c-0.523,1.741 -2.323,2.958 -4.377,2.958c-1.537,0 -2.956,-0.674 -3.794,-1.801c-0.699,-0.94 -0.912,-2.106 -0.584,-3.197l5.929,-19.733c0.192,-0.637 -0.046,-1.145 -0.279,-1.458c-0.469,-0.631 -1.297,-1.007 -2.215,-1.007c-1.185,0 -2.234,0.655 -2.504,1.558l-6.888,22.925c-0.48,1.597 -2.126,2.713 -4.004,2.713c-2.331,0 -4.228,-1.671 -4.228,-3.725l0,-21.117c0,-2.38 2.211,-4.316 4.929,-4.316l5.626,0c0.541,0 0.981,0.439 0.981,0.981c0,0.541 -0.44,0.981 -0.981,0.981l-5.626,0c-1.636,0 -2.967,1.056 -2.967,2.354l0,21.117c0,0.972 1.017,1.763 2.266,1.763c1.002,0 1.895,-0.553 2.125,-1.315l6.887,-22.926c0.523,-1.74 2.321,-2.955 4.373,-2.955c1.546,0 2.963,0.672 3.8,1.798c0.699,0.939 0.911,2.103 0.584,3.193l-5.929,19.734c-0.192,0.639 0.046,1.147 0.28,1.461c0.469,0.632 1.299,1.01 2.218,1.01c1.177,0 2.228,-0.656 2.499,-1.561l6.843,-22.777c0.506,-1.683 2.246,-2.858 4.231,-2.858l0.117,0c1.537,0 2.955,0.673 3.793,1.801c0.699,0.94 0.912,2.106 0.585,3.197l-5.926,19.726c-0.193,0.639 0.046,1.148 0.279,1.462c0.471,0.632 1.3,1.01 2.219,1.01c1.176,0 2.227,-0.657 2.499,-1.561l7,-23.3c0.413,-1.375 1.823,-2.335 3.429,-2.335c2.189,0 3.969,1.573 3.969,3.506l0,7.52l0.015,0c0.484,0 0.947,0.187 1.275,0.514c0.304,0.302 0.471,0.697 0.471,1.112l0,4.867c0,0.891 -0.777,1.62 -1.733,1.626l-0.028,0l0,5.286c0,2.607 -2.428,4.727 -5.413,4.727l0,0Z" style="fill:url(#_Linear1);"/><path d="M86.033,8.146c-0.589,-0.749 -1.358,-1.344 -2.308,-1.786c-0.95,-0.441 -1.866,-0.662 -2.749,-0.662c-0.455,0 -0.916,0.04 -1.384,0.121c-0.468,0.08 -0.89,0.234 -1.264,0.461c-0.375,0.228 -0.689,0.522 -0.943,0.883c-0.255,0.361 -0.381,0.822 -0.381,1.384c0,0.482 0.1,0.883 0.301,1.204c0.2,0.321 0.494,0.602 0.882,0.843c0.388,0.241 0.849,0.462 1.384,0.662c0.535,0.2 1.137,0.409 1.806,0.622c0.964,0.32 1.967,0.676 3.01,1.063c1.043,0.389 1.993,0.903 2.849,1.545c0.856,0.642 1.565,1.438 2.127,2.388c0.562,0.95 0.843,2.133 0.843,3.551c0,1.632 -0.301,3.044 -0.903,4.233c-0.602,1.191 -1.411,2.174 -2.428,2.95c-1.017,0.777 -2.181,1.351 -3.491,1.726c-1.311,0.374 -2.662,0.561 -4.053,0.561c-2.033,0 -4,-0.354 -5.899,-1.063c-1.9,-0.709 -3.477,-1.719 -4.735,-3.03l4.495,-4.574c0.695,0.856 1.611,1.572 2.748,2.146c1.137,0.576 2.268,0.863 3.391,0.863c0.508,0 1.003,-0.053 1.484,-0.16c0.482,-0.107 0.904,-0.282 1.265,-0.522c0.361,-0.241 0.648,-0.562 0.862,-0.963c0.214,-0.401 0.322,-0.883 0.322,-1.445c0,-0.535 -0.135,-0.989 -0.402,-1.364c-0.268,-0.374 -0.648,-0.715 -1.143,-1.023c-0.495,-0.307 -1.111,-0.588 -1.846,-0.843c-0.736,-0.254 -1.572,-0.528 -2.509,-0.822c-0.909,-0.295 -1.799,-0.642 -2.668,-1.044c-0.869,-0.402 -1.645,-0.916 -2.327,-1.545c-0.682,-0.628 -1.231,-1.39 -1.645,-2.287c-0.416,-0.897 -0.622,-1.986 -0.622,-3.27c0,-1.579 0.321,-2.93 0.963,-4.053c0.642,-1.124 1.485,-2.047 2.527,-2.77c1.044,-0.722 2.221,-1.25 3.532,-1.585c1.31,-0.334 2.635,-0.502 3.973,-0.502c1.604,0 3.243,0.295 4.916,0.884c1.671,0.588 3.136,1.458 4.394,2.608l-4.374,4.615l0,0Z" style="fill:#363a3c;fill-rule:nonzero;"/><path d="M122.429,6.621l0,22.552l-6.862,0l0,-22.552l-8.026,0l0,-5.859l22.913,0l0,5.859l-8.025,0l0,0Z" style="fill:#363a3c;fill-rule:nonzero;"/><path d="M170.703,14.847c0,-1.23 -0.201,-2.381 -0.602,-3.451c-0.401,-1.069 -0.957,-1.986 -1.665,-2.749c-0.709,-0.762 -1.565,-1.363 -2.568,-1.805c-1.004,-0.442 -2.107,-0.662 -3.311,-0.662c-1.204,0 -2.301,0.22 -3.291,0.662c-0.989,0.442 -1.845,1.043 -2.568,1.805c-0.722,0.763 -1.278,1.68 -1.665,2.749c-0.388,1.07 -0.582,2.221 -0.582,3.451c0,1.284 0.201,2.469 0.602,3.552c0.401,1.083 0.956,2.013 1.665,2.789c0.709,0.776 1.559,1.384 2.548,1.825c0.99,0.442 2.087,0.663 3.291,0.663c1.204,0 2.301,-0.221 3.29,-0.663c0.99,-0.441 1.846,-1.049 2.569,-1.825c0.722,-0.776 1.284,-1.706 1.685,-2.789c0.401,-1.083 0.602,-2.268 0.602,-3.552l0,0ZM178.046,14.847c0,2.248 -0.388,4.301 -1.163,6.16c-0.777,1.86 -1.853,3.451 -3.231,4.776c-1.378,1.324 -3.016,2.347 -4.915,3.069c-1.9,0.722 -3.96,1.084 -6.18,1.084c-2.221,0 -4.274,-0.362 -6.16,-1.084c-1.885,-0.722 -3.518,-1.745 -4.895,-3.069c-1.378,-1.325 -2.456,-2.916 -3.231,-4.776c-0.776,-1.859 -1.164,-3.912 -1.164,-6.16c0,-2.274 0.388,-4.326 1.164,-6.159c0.775,-1.832 1.853,-3.391 3.231,-4.675c1.377,-1.284 3.01,-2.274 4.895,-2.97c1.886,-0.696 3.939,-1.043 6.16,-1.043c2.22,0 4.28,0.347 6.18,1.043c1.899,0.696 3.537,1.686 4.915,2.97c1.378,1.284 2.454,2.843 3.231,4.675c0.775,1.833 1.163,3.885 1.163,6.159Z" style="fill:#363a3c;fill-rule:nonzero;"/><path d="M213.559,9.47c0,-0.669 -0.142,-1.21 -0.424,-1.625c-0.282,-0.414 -0.645,-0.736 -1.088,-0.963c-0.444,-0.227 -0.941,-0.381 -1.492,-0.462c-0.552,-0.08 -1.083,-0.12 -1.594,-0.12l-3.668,0l0,6.621l3.266,0c0.564,0 1.142,-0.046 1.734,-0.14c0.591,-0.094 1.129,-0.261 1.612,-0.502c0.485,-0.241 0.881,-0.588 1.19,-1.043c0.309,-0.455 0.464,-1.043 0.464,-1.766l0,0ZM213.84,29.173l-6.168,-11.276l-2.339,0l0,11.276l-6.702,0l0,-28.411l10.835,0c1.364,0 2.695,0.141 3.993,0.421c1.297,0.281 2.461,0.757 3.491,1.425c1.029,0.67 1.852,1.552 2.468,2.649c0.614,1.097 0.923,2.461 0.923,4.093c0,1.926 -0.522,3.544 -1.565,4.855c-1.044,1.311 -2.488,2.248 -4.334,2.809l7.424,12.159l-8.026,0l0,0Z" style="fill:#363a3c;fill-rule:nonzero;"/><path d="M254.69,17.134l0,12.039l-6.862,0l0,-12.039l-10.674,-16.372l8.307,0l6.059,10.514l6.059,-10.514l8.026,0l-10.915,16.372l0,0Z" style="fill:#363a3c;fill-rule:nonzero;"/><defs><linearGradient id="_Linear1" x1="0" y1="0" x2="1" y2="0" gradientUnits="userSpaceOnUse" gradientTransform="matrix(-37.542,31.5015,-31.5015,-37.542,32.0568,8.85969)"><stop offset="0%" style="stop-color:#e06856;stop-opacity:1"/><stop offset="40%" style="stop-color:#65444c;stop-opacity:1"/><stop offset="90%" style="stop-color:#0a3650;stop-opacity:1"/><stop offset="100%" style="stop-color:#023450;stop-opacity:1"/></linearGradient></defs></svg>