<?xml version="1.0" standalone="no"?><!DOCTYPE svg PUBLIC "-//W3C//DTD SVG 1.1//EN" "http://www.w3.org/Graphics/SVG/1.1/DTD/svg11.dtd"><svg width="100%" height="100%" viewBox="0 0 76 77" version="1.1" xmlns="http://www.w3.org/2000/svg" xmlns:xlink="http://www.w3.org/1999/xlink" xml:space="preserve" style="fill-rule:evenodd;clip-rule:evenodd;stroke-linejoin:round;stroke-miterlimit:1.41421;"><path d="M59.98,62.92l-0.166,-0.003l-0.164,-0.021l-0.16,-0.038l-0.156,-0.056l-0.148,-0.072l-0.14,-0.088l-0.13,-0.102l-0.118,-0.116l-12.711,-13.925l-1.154,-1.154l1.244,-1.232l0.146,-0.149l0.144,-0.15l0.143,-0.152l0.141,-0.154l0.139,-0.155l0.137,-0.157l0.135,-0.159l0.133,-0.16l0.132,-0.163l0.129,-0.163l0.127,-0.166l0.126,-0.167l0.123,-0.168l0.122,-0.17l0.119,-0.172l0.117,-0.173l0.116,-0.174l0.113,-0.176l0.111,-0.178l0.109,-0.178l0.107,-0.181l0.104,-0.182l0.103,-0.183l0.1,-0.184l0.098,-0.186l0.096,-0.187l0.094,-0.189l0.091,-0.189l0.089,-0.191l0.087,-0.193l0.084,-0.193l0.083,-0.195l0.079,-0.196l0.078,-0.197l0.075,-0.198l0.072,-0.2l0.071,-0.201l0.068,-0.201l0.065,-0.203l0.063,-0.204l0.06,-0.205l0.058,-0.206l0.056,-0.208l0.053,-0.208l0.05,-0.209l0.048,-0.21l0.045,-0.211l0.043,-0.215l0.02,-0.104l0.019,-0.107l0.019,-0.107l0.019,-0.107l0.017,-0.107l0.017,-0.108l0.017,-0.108l0.015,-0.108l0.015,-0.108l0.015,-0.108l0.013,-0.109l0.013,-0.109l0.013,-0.109l0.011,-0.11l0.011,-0.109l0.01,-0.11l0.01,-0.11l0.009,-0.11l0.008,-0.11l0.007,-0.111l0.007,-0.111l0.006,-0.111l0.006,-0.111l0.004,-0.112l0.004,-0.111l0.003,-0.112l0.003,-0.112l0.002,-0.112l0.001,-0.112l0,-0.113l0,-0.111l-0.001,-0.111l-0.002,-0.111l-0.003,-0.11l-0.003,-0.111l-0.003,-0.11l-0.005,-0.11l-0.005,-0.11l-0.006,-0.11l-0.007,-0.109l-0.007,-0.109l-0.008,-0.11l-0.009,-0.108l-0.009,-0.107l-0.021,-0.219l-0.023,-0.216l-0.026,-0.215l-0.028,-0.214l-0.032,-0.214l-0.033,-0.212l-0.037,-0.212l-0.039,-0.21l-0.041,-0.21l-0.045,-0.209l-0.046,-0.208l-0.049,-0.207l-0.052,-0.206l-0.054,-0.205l-0.057,-0.203l-0.059,-0.203l-0.061,-0.202l-0.064,-0.201l-0.066,-0.2l-0.069,-0.198l-0.07,-0.198l-0.074,-0.196l-0.075,-0.195l-0.078,-0.195l-0.08,-0.192l-0.083,-0.192l-0.085,-0.191l-0.087,-0.189l-0.089,-0.188l-0.091,-0.187l-0.094,-0.185l-0.096,-0.185l-0.098,-0.183l-0.1,-0.181l-0.102,-0.18l-0.104,-0.179l-0.107,-0.178l-0.108,-0.176l-0.111,-0.175l-0.112,-0.173l-0.115,-0.172l-0.117,-0.17l-0.118,-0.169l-0.121,-0.168l-0.122,-0.166l-0.125,-0.164l-0.126,-0.163l-0.129,-0.161l-0.13,-0.16l-0.132,-0.158l-0.134,-0.157l-0.136,-0.155l-0.137,-0.153l-0.14,-0.152l-0.141,-0.149l-0.143,-0.149l-0.145,-0.146l-0.146,-0.145l-0.148,-0.143l-0.15,-0.141l-0.152,-0.139l-0.153,-0.138l-0.155,-0.136l-0.157,-0.134l-0.158,-0.132l-0.159,-0.13l-0.162,-0.128l-0.163,-0.127l-0.164,-0.124l-0.166,-0.123l-0.167,-0.121l-0.169,-0.118l-0.171,-0.117l-0.172,-0.114l-0.173,-0.113l-0.175,-0.111l-0.176,-0.108l-0.177,-0.107l-0.179,-0.104l-0.181,-0.102l-0.181,-0.1l-0.183,-0.098l-0.184,-0.096l-0.186,-0.093l-0.187,-0.092l-0.188,-0.089l-0.189,-0.087l-0.191,-0.085l-0.191,-0.082l-0.193,-0.081l-0.194,-0.077l-0.196,-0.076l-0.196,-0.073l-0.197,-0.071l-0.199,-0.069l-0.2,-0.066l-0.201,-0.064l-0.201,-0.061l-0.203,-0.059l-0.204,-0.057l-0.205,-0.054l-0.206,-0.051l-0.207,-0.05l-0.208,-0.046l-0.209,-0.044l-0.209,-0.042l-0.211,-0.039l-0.212,-0.036l-0.212,-0.034l-0.214,-0.031l-0.214,-0.029l-0.215,-0.026l-0.216,-0.023l-0.219,-0.021l-0.106,-0.009l-0.109,-0.009l-0.109,-0.008l-0.11,-0.007l-0.109,-0.007l-0.11,-0.006l-0.11,-0.005l-0.11,-0.004l-0.11,-0.004l-0.11,-0.003l-0.111,-0.003l-0.111,-0.001l-0.111,-0.002l-0.111,0l-0.111,0l-0.111,0.002l-0.111,0.001l-0.11,0.003l-0.111,0.003l-0.11,0.004l-0.11,0.004l-0.11,0.005l-0.11,0.006l-0.109,0.007l-0.109,0.007l-0.109,0.008l-0.109,0.009l-0.107,0.009l-0.219,0.021l-0.216,0.023l-0.215,0.026l-0.214,0.029l-0.213,0.031l-0.213,0.034l-0.211,0.036l-0.211,0.039l-0.21,0.042l-0.209,0.044l-0.207,0.046l-0.207,0.05l-0.206,0.051l-0.205,0.054l-0.204,0.057l-0.203,0.059l-0.202,0.061l-0.2,0.064l-0.2,0.066l-0.199,0.069l-0.197,0.071l-0.197,0.073l-0.195,0.076l-0.194,0.077l-0.193,0.081l-0.192,0.082l-0.19,0.085l-0.189,0.087l-0.188,0.089l-0.187,0.091l-0.186,0.094l-0.184,0.096l-0.183,0.098l-0.181,0.1l-0.181,0.102l-0.179,0.104l-0.177,0.107l-0.176,0.108l-0.175,0.111l-0.173,0.113l-0.172,0.114l-0.171,0.117l-0.169,0.118l-0.167,0.121l-0.166,0.123l-0.164,0.124l-0.163,0.126l-0.162,0.129l-0.159,0.13l-0.158,0.132l-0.157,0.134l-0.155,0.136l-0.153,0.138l-0.152,0.139l-0.15,0.141l-0.148,0.143l-0.146,0.145l-0.145,0.146l-0.143,0.149l-0.141,0.149l-0.14,0.152l-0.137,0.153l-0.136,0.155l-0.134,0.157l-0.132,0.158l-0.13,0.16l-0.129,0.161l-0.126,0.163l-0.124,0.164l-0.123,0.166l-0.121,0.168l-0.118,0.169l-0.117,0.17l-0.115,0.172l-0.112,0.173l-0.111,0.175l-0.108,0.176l-0.107,0.178l-0.104,0.179l-0.102,0.18l-0.1,0.181l-0.098,0.183l-0.096,0.185l-0.094,0.185l-0.091,0.187l-0.089,0.188l-0.087,0.189l-0.085,0.191l-0.082,0.192l-0.081,0.192l-0.077,0.195l-0.076,0.195l-0.073,0.196l-0.071,0.198l-0.069,0.198l-0.066,0.2l-0.064,0.201l-0.061,0.202l-0.059,0.203l-0.057,0.203l-0.054,0.205l-0.051,0.206l-0.05,0.207l-0.046,0.208l-0.044,0.209l-0.042,0.21l-0.039,0.21l-0.036,0.212l-0.034,0.212l-0.031,0.214l-0.029,0.214l-0.026,0.215l-0.023,0.216l-0.021,0.219l-0.009,0.107l-0.009,0.108l-0.008,0.11l-0.007,0.109l-0.007,0.109l-0.006,0.11l-0.005,0.11l-0.004,0.11l-0.004,0.11l-0.003,0.111l-0.003,0.11l-0.001,0.111l-0.002,0.111l0,0.111l0,0.111l0.002,0.111l0.001,0.111l0.003,0.111l0.003,0.11l0.004,0.11l0.004,0.11l0.005,0.11l0.006,0.11l0.007,0.109l0.007,0.11l0.008,0.109l0.009,0.109l0.009,0.106l0.021,0.219l0.023,0.216l0.026,0.215l0.029,0.214l0.031,0.213l0.034,0.213l0.036,0.212l0.039,0.21l0.042,0.21l0.044,0.209l0.046,0.208l0.05,0.207l0.051,0.205l0.054,0.205l0.057,0.204l0.059,0.203l0.061,0.202l0.064,0.201l0.066,0.199l0.069,0.199l0.071,0.197l0.073,0.197l0.076,0.195l0.077,0.194l0.081,0.193l0.082,0.192l0.085,0.19l0.087,0.19l0.089,0.188l0.091,0.186l0.094,0.186l0.096,0.184l0.098,0.183l0.1,0.182l0.102,0.18l0.104,0.179l0.107,0.177l0.108,0.177l0.111,0.174l0.112,0.174l0.115,0.171l0.117,0.171l0.118,0.169l0.121,0.167l0.122,0.166l0.125,0.165l0.126,0.162l0.129,0.162l0.13,0.16l0.132,0.158l0.134,0.156l0.136,0.155l0.137,0.153l0.14,0.152l0.141,0.15l0.143,0.148l0.145,0.146l0.146,0.145l0.148,0.143l0.15,0.141l0.152,0.14l0.153,0.137l0.155,0.136l0.157,0.134l0.158,0.132l0.159,0.13l0.162,0.129l0.163,0.126l0.164,0.125l0.166,0.122l0.167,0.121l0.169,0.118l0.171,0.117l0.172,0.115l0.173,0.112l0.175,0.111l0.176,0.108l0.177,0.107l0.179,0.104l0.181,0.102l0.181,0.1l0.183,0.098l0.184,0.096l0.186,0.094l0.187,0.091l0.188,0.089l0.189,0.087l0.19,0.085l0.192,0.083l0.193,0.08l0.194,0.078l0.195,0.075l0.197,0.074l0.197,0.07l0.199,0.069l0.2,0.066l0.2,0.064l0.202,0.061l0.203,0.059l0.204,0.057l0.205,0.054l0.206,0.052l0.207,0.049l0.207,0.046l0.209,0.045l0.21,0.041l0.211,0.039l0.211,0.036l0.213,0.034l0.213,0.032l0.214,0.028l0.215,0.026l0.216,0.023l0.219,0.021l0.107,0.009l0.109,0.009l0.109,0.008l0.109,0.007l0.109,0.007l0.11,0.006l0.11,0.005l0.11,0.005l0.11,0.003l0.111,0.003l0.11,0.003l0.111,0.002l0.111,0.001l0.111,0l0.12,0l0.119,-0.002l0.119,-0.002l0.119,-0.002l0.119,-0.004l0.119,-0.004l0.118,-0.006l0.118,-0.006l0.118,-0.007l0.118,-0.007l0.117,-0.009l0.117,-0.009l0.117,-0.01l0.117,-0.011l0.117,-0.011l0.116,-0.012l0.116,-0.013l0.116,-0.014l0.115,-0.015l0.115,-0.015l0.115,-0.016l0.115,-0.017l0.115,-0.018l0.114,-0.018l0.114,-0.019l0.114,-0.02l0.113,-0.021l0.113,-0.021l0.113,-0.023l0.113,-0.022l0.112,-0.024l0.113,-0.024l0.111,-0.025l0.112,-0.026l0.111,-0.027l0.111,-0.027l0.111,-0.028l0.11,-0.029l0.11,-0.029l0.11,-0.03l0.11,-0.031l0.109,-0.031l0.109,-0.033l0.109,-0.032l0.108,-0.034l0.108,-0.034l0.108,-0.035l0.107,-0.036l0.107,-0.036l0.107,-0.038l0.106,-0.037l0.107,-0.039l0.105,-0.039l0.106,-0.04l0.105,-0.04l0.105,-0.041l0.104,-0.042l0.104,-0.042l0.104,-0.043l0.104,-0.044l0.103,-0.045l0.103,-0.045l0.102,-0.046l0.107,-0.048l0.153,-0.06l0.16,-0.043l0.163,-0.026l0.165,-0.008l0.165,0.01l0.163,0.028l0.159,0.045l0.153,0.062l0.146,0.079l0.136,0.093l0.125,0.108l0.113,0.121l0.099,0.132l0.084,0.142l0.068,0.151l0.052,0.157l0.035,0.161l0.016,0.165l-0.001,0.165l-0.019,0.164l-0.036,0.161l-0.054,0.156l-0.07,0.15l-0.087,0.141l-0.1,0.131l-0.115,0.119l-0.126,0.106l-0.138,0.092l-0.146,0.076l-0.116,0.053l-0.121,0.054l-0.121,0.053l-0.122,0.052l-0.122,0.052l-0.122,0.051l-0.123,0.05l-0.123,0.049l-0.124,0.049l-0.124,0.048l-0.124,0.046l-0.125,0.047l-0.125,0.045l-0.126,0.044l-0.125,0.044l-0.127,0.043l-0.126,0.042l-0.128,0.041l-0.127,0.041l-0.128,0.04l-0.128,0.038l-0.128,0.038l-0.129,0.037l-0.129,0.037l-0.13,0.035l-0.13,0.035l-0.13,0.034l-0.131,0.033l-0.131,0.032l-0.131,0.031l-0.131,0.031l-0.132,0.029l-0.133,0.029l-0.132,0.028l-0.133,0.027l-0.133,0.026l-0.133,0.025l-0.134,0.024l-0.134,0.024l-0.135,0.022l-0.134,0.022l-0.135,0.021l-0.135,0.02l-0.136,0.019l-0.136,0.018l-0.136,0.017l-0.136,0.016l-0.137,0.016l-0.137,0.014l-0.137,0.014l-0.137,0.012l-0.138,0.012l-0.138,0.011l-0.138,0.01l-0.138,0.009l-0.139,0.008l-0.139,0.007l-0.139,0.006l-0.139,0.005l-0.14,0.004l-0.139,0.004l-0.14,0.002l-0.141,0.002l-0.14,0l-0.13,0l-0.131,-0.002l-0.13,-0.002l-0.13,-0.002l-0.129,-0.004l-0.13,-0.005l-0.129,-0.005l-0.129,-0.006l-0.129,-0.007l-0.129,-0.008l-0.129,-0.008l-0.128,-0.01l-0.128,-0.01l-0.13,-0.011l-0.253,-0.024l-0.254,-0.028l-0.254,-0.03l-0.252,-0.034l-0.251,-0.037l-0.251,-0.039l-0.249,-0.043l-0.248,-0.046l-0.248,-0.049l-0.246,-0.052l-0.245,-0.055l-0.244,-0.058l-0.243,-0.061l-0.241,-0.064l-0.241,-0.067l-0.239,-0.069l-0.238,-0.073l-0.237,-0.075l-0.236,-0.078l-0.234,-0.081l-0.233,-0.083l-0.231,-0.087l-0.23,-0.089l-0.229,-0.092l-0.228,-0.094l-0.226,-0.098l-0.224,-0.1l-0.224,-0.102l-0.221,-0.105l-0.22,-0.108l-0.219,-0.11l-0.217,-0.113l-0.216,-0.116l-0.214,-0.118l-0.212,-0.12l-0.211,-0.123l-0.209,-0.125l-0.207,-0.128l-0.206,-0.13l-0.204,-0.133l-0.203,-0.135l-0.2,-0.137l-0.199,-0.14l-0.198,-0.142l-0.195,-0.144l-0.193,-0.147l-0.192,-0.149l-0.19,-0.151l-0.188,-0.153l-0.186,-0.155l-0.184,-0.158l-0.183,-0.16l-0.18,-0.162l-0.178,-0.164l-0.177,-0.166l-0.174,-0.168l-0.172,-0.17l-0.171,-0.173l-0.168,-0.174l-0.166,-0.177l-0.164,-0.178l-0.162,-0.18l-0.16,-0.182l-0.157,-0.185l-0.156,-0.186l-0.153,-0.188l-0.151,-0.19l-0.149,-0.191l-0.147,-0.194l-0.144,-0.195l-0.142,-0.197l-0.14,-0.199l-0.137,-0.201l-0.135,-0.202l-0.132,-0.205l-0.131,-0.205l-0.127,-0.208l-0.126,-0.209l-0.123,-0.211l-0.12,-0.212l-0.118,-0.214l-0.116,-0.216l-0.112,-0.217l-0.111,-0.218l-0.107,-0.221l-0.106,-0.221l-0.102,-0.223l-0.1,-0.225l-0.097,-0.226l-0.095,-0.227l-0.092,-0.229l-0.089,-0.231l-0.086,-0.231l-0.084,-0.233l-0.081,-0.234l-0.078,-0.236l-0.075,-0.237l-0.073,-0.238l-0.069,-0.239l-0.067,-0.24l-0.064,-0.242l-0.061,-0.243l-0.057,-0.244l-0.055,-0.245l-0.052,-0.246l-0.049,-0.247l-0.046,-0.249l-0.043,-0.249l-0.04,-0.251l-0.037,-0.251l-0.034,-0.252l-0.03,-0.254l-0.028,-0.254l-0.024,-0.252l-0.011,-0.131l-0.01,-0.128l-0.009,-0.128l-0.009,-0.129l-0.008,-0.128l-0.007,-0.129l-0.006,-0.129l-0.005,-0.13l-0.005,-0.129l-0.003,-0.13l-0.003,-0.13l-0.002,-0.13l-0.001,-0.13l-0.001,-0.131l0.001,-0.13l0.001,-0.131l0.002,-0.13l0.003,-0.13l0.003,-0.129l0.005,-0.13l0.005,-0.129l0.006,-0.13l0.007,-0.128l0.008,-0.129l0.009,-0.129l0.009,-0.128l0.01,-0.128l0.011,-0.13l0.024,-0.253l0.028,-0.254l0.03,-0.254l0.034,-0.252l0.037,-0.251l0.04,-0.251l0.043,-0.249l0.046,-0.249l0.049,-0.247l0.052,-0.246l0.055,-0.245l0.057,-0.244l0.061,-0.243l0.064,-0.242l0.067,-0.24l0.069,-0.24l0.073,-0.238l0.075,-0.236l0.078,-0.236l0.081,-0.234l0.084,-0.233l0.086,-0.232l0.089,-0.23l0.092,-0.229l0.095,-0.227l0.097,-0.226l0.1,-0.225l0.102,-0.223l0.106,-0.222l0.107,-0.22l0.111,-0.219l0.112,-0.217l0.116,-0.215l0.118,-0.214l0.12,-0.213l0.123,-0.211l0.126,-0.209l0.127,-0.207l0.13,-0.206l0.133,-0.204l0.135,-0.203l0.137,-0.2l0.14,-0.199l0.142,-0.197l0.144,-0.196l0.147,-0.193l0.149,-0.192l0.151,-0.19l0.153,-0.188l0.155,-0.186l0.158,-0.184l0.16,-0.182l0.162,-0.181l0.164,-0.178l0.166,-0.176l0.168,-0.175l0.171,-0.172l0.172,-0.17l0.174,-0.169l0.177,-0.166l0.178,-0.164l0.18,-0.162l0.183,-0.16l0.184,-0.157l0.186,-0.156l0.188,-0.153l0.19,-0.151l0.192,-0.149l0.193,-0.147l0.195,-0.144l0.198,-0.142l0.199,-0.14l0.2,-0.137l0.203,-0.135l0.204,-0.132l0.206,-0.131l0.207,-0.127l0.209,-0.126l0.211,-0.123l0.212,-0.12l0.214,-0.118l0.216,-0.115l0.217,-0.113l0.219,-0.111l0.22,-0.107l0.221,-0.106l0.224,-0.102l0.224,-0.1l0.226,-0.097l0.228,-0.095l0.229,-0.092l0.23,-0.089l0.231,-0.086l0.233,-0.084l0.234,-0.081l0.236,-0.078l0.237,-0.075l0.238,-0.073l0.239,-0.069l0.241,-0.067l0.241,-0.064l0.243,-0.061l0.244,-0.057l0.245,-0.055l0.246,-0.052l0.248,-0.049l0.248,-0.046l0.249,-0.043l0.251,-0.04l0.251,-0.037l0.252,-0.034l0.254,-0.03l0.254,-0.028l0.253,-0.024l0.13,-0.011l0.128,-0.01l0.128,-0.009l0.129,-0.009l0.129,-0.008l0.129,-0.007l0.129,-0.006l0.129,-0.005l0.13,-0.005l0.129,-0.003l0.13,-0.003l0.13,-0.002l0.131,-0.001l0.13,-0.001l0.131,0.001l0.13,0.001l0.13,0.002l0.13,0.003l0.13,0.003l0.129,0.005l0.13,0.005l0.129,0.006l0.129,0.007l0.128,0.008l0.129,0.009l0.128,0.009l0.128,0.01l0.131,0.011l0.252,0.024l0.255,0.028l0.253,0.03l0.252,0.034l0.252,0.037l0.25,0.04l0.25,0.043l0.248,0.046l0.247,0.049l0.246,0.052l0.246,0.055l0.243,0.057l0.243,0.061l0.242,0.064l0.241,0.067l0.239,0.069l0.238,0.073l0.237,0.075l0.235,0.078l0.234,0.081l0.233,0.084l0.232,0.086l0.23,0.089l0.229,0.092l0.228,0.095l0.226,0.097l0.224,0.1l0.223,0.102l0.222,0.106l0.22,0.107l0.219,0.111l0.217,0.113l0.216,0.115l0.214,0.118l0.212,0.12l0.211,0.123l0.209,0.126l0.207,0.127l0.206,0.131l0.204,0.132l0.203,0.135l0.2,0.137l0.199,0.14l0.198,0.142l0.195,0.144l0.193,0.147l0.192,0.149l0.19,0.151l0.188,0.153l0.186,0.156l0.184,0.157l0.183,0.16l0.18,0.162l0.178,0.164l0.177,0.166l0.174,0.168l0.172,0.171l0.171,0.172l0.168,0.175l0.166,0.176l0.164,0.178l0.162,0.181l0.16,0.182l0.158,0.184l0.155,0.186l0.153,0.188l0.151,0.19l0.149,0.192l0.147,0.193l0.144,0.196l0.142,0.197l0.14,0.199l0.137,0.2l0.135,0.203l0.133,0.204l0.13,0.206l0.128,0.207l0.125,0.209l0.123,0.211l0.12,0.213l0.118,0.214l0.116,0.215l0.113,0.217l0.11,0.219l0.108,0.22l0.105,0.222l0.102,0.223l0.1,0.225l0.097,0.226l0.095,0.227l0.092,0.229l0.089,0.23l0.087,0.232l0.083,0.233l0.081,0.234l0.078,0.236l0.075,0.236l0.073,0.238l0.069,0.24l0.067,0.24l0.064,0.242l0.061,0.243l0.058,0.244l0.055,0.245l0.052,0.246l0.049,0.247l0.046,0.249l0.043,0.249l0.039,0.251l0.037,0.251l0.034,0.252l0.03,0.254l0.028,0.254l0.024,0.253l0.011,0.13l0.01,0.128l0.01,0.128l0.008,0.129l0.008,0.128l0.007,0.13l0.006,0.129l0.005,0.129l0.005,0.129l0.004,0.13l0.002,0.13l0.002,0.13l0.002,0.131l0,0.13l0,0.132l-0.002,0.132l-0.002,0.132l-0.003,0.131l-0.003,0.132l-0.005,0.131l-0.006,0.131l-0.006,0.131l-0.007,0.13l-0.008,0.13l-0.009,0.131l-0.009,0.129l-0.011,0.13l-0.011,0.13l-0.012,0.129l-0.013,0.129l-0.013,0.129l-0.015,0.128l-0.015,0.128l-0.016,0.128l-0.017,0.128l-0.018,0.128l-0.018,0.127l-0.019,0.127l-0.021,0.127l-0.02,0.126l-0.022,0.127l-0.022,0.126l-0.024,0.126l-0.024,0.127l-0.05,0.248l-0.053,0.249l-0.056,0.248l-0.06,0.247l-0.062,0.246l-0.065,0.244l-0.069,0.243l-0.071,0.242l-0.074,0.241l-0.077,0.239l-0.08,0.238l-0.083,0.237l-0.086,0.235l-0.089,0.234l-0.091,0.232l-0.094,0.232l-0.097,0.229l-0.1,0.229l-0.102,0.226l-0.105,0.226l-0.108,0.223l-0.11,0.223l-0.113,0.22l-0.116,0.219l-0.118,0.218l-0.121,0.215l-0.123,0.215l-0.126,0.212l-0.128,0.211l-0.131,0.209l-0.133,0.207l-0.136,0.206l-0.138,0.204l-0.141,0.202l-0.143,0.2l-0.145,0.198l-0.148,0.197l-0.15,0.195l-0.152,0.192l-0.155,0.191l-0.157,0.189l-0.159,0.187l-0.155,0.177l11.868,13.001l0.105,0.128l0.09,0.139l0.075,0.147l0.058,0.155l0.041,0.16l0.024,0.163l0.006,0.165l-0.012,0.165l-0.03,0.163l-0.047,0.158l-0.064,0.152l-0.08,0.145l-0.095,0.135l-0.11,0.124l-0.122,0.111l-0.133,0.098l-0.143,0.082l-0.151,0.067l-0.158,0.05l-0.162,0.032l-0.164,0.015Z" style="fill:#3f3f3f;"/></svg>