<?xml version="1.0" standalone="no"?><!DOCTYPE svg PUBLIC "-//W3C//DTD SVG 1.1//EN" "http://www.w3.org/Graphics/SVG/1.1/DTD/svg11.dtd"><svg width="100%" height="100%" viewBox="0 0 56 82" version="1.1" xmlns="http://www.w3.org/2000/svg" xmlns:xlink="http://www.w3.org/1999/xlink" xml:space="preserve" style="fill-rule:evenodd;clip-rule:evenodd;stroke-linejoin:round;stroke-miterlimit:1.41421;"><g transform="matrix(1,0,0,1,-134.504,-404.773)"><path d="M152.506,481.858l-3.027,0l0,-11.758l-3.877,0l0,-2.519l10.781,0l0,2.519l-3.877,0l0,11.758Z" style="fill:#3f3f3f;fill-rule:nonzero;"/><path d="M160.822,476.38c0,1.08 0.178,1.897 0.533,2.451c0.354,0.553 0.932,0.83 1.733,0.83c0.794,0 1.365,-0.275 1.714,-0.825c0.348,-0.55 0.522,-1.369 0.522,-2.456c0,-1.081 -0.176,-1.892 -0.527,-2.432c-0.352,-0.54 -0.928,-0.811 -1.729,-0.811c-0.794,0 -1.367,0.269 -1.718,0.806c-0.352,0.537 -0.528,1.349 -0.528,2.437ZM168.371,476.38c0,1.777 -0.469,3.167 -1.406,4.17c-0.938,1.002 -2.243,1.503 -3.916,1.503c-1.048,0 -1.973,-0.229 -2.774,-0.688c-0.8,-0.459 -1.416,-1.118 -1.845,-1.978c-0.43,-0.859 -0.645,-1.862 -0.645,-3.007c0,-1.784 0.466,-3.171 1.397,-4.161c0.931,-0.989 2.239,-1.484 3.925,-1.484c1.049,0 1.973,0.228 2.774,0.684c0.801,0.455 1.416,1.11 1.846,1.963c0.429,0.852 0.644,1.852 0.644,2.998Z" style="fill:#3f3f3f;fill-rule:nonzero;"/><path d="M176.828,482.053c-1.282,0 -2.288,-0.465 -3.017,-1.396l-0.157,0c0.104,0.911 0.157,1.439 0.157,1.582l0,4.424l-2.979,0l0,-15.723l2.422,0l0.42,1.416l0.137,0c0.696,-1.081 1.728,-1.621 3.095,-1.621c1.289,0 2.298,0.498 3.028,1.494c0.729,0.996 1.093,2.38 1.093,4.151c0,1.165 -0.171,2.177 -0.512,3.037c-0.342,0.859 -0.829,1.513 -1.46,1.963c-0.632,0.449 -1.374,0.673 -2.227,0.673ZM175.949,473.118c-0.735,0 -1.273,0.226 -1.611,0.679c-0.339,0.452 -0.514,1.199 -0.527,2.241l0,0.322c0,1.172 0.174,2.012 0.522,2.52c0.348,0.507 0.9,0.761 1.655,0.761c1.335,0 2.002,-1.1 2.002,-3.3c0,-1.075 -0.164,-1.88 -0.493,-2.417c-0.329,-0.538 -0.845,-0.806 -1.548,-0.806Z" style="fill:#3f3f3f;fill-rule:nonzero;"/></g><path d="M15.09,26.583l-0.121,-0.004l-0.12,-0.013l-0.118,-0.023l-0.117,-0.033l-0.113,-0.041l-0.11,-0.051l-0.105,-0.059l-0.1,-0.068l-0.094,-0.075l-0.088,-0.083l-0.081,-0.09l-0.074,-0.096l-0.065,-0.101l-0.058,-0.106l-0.048,-0.111l-0.04,-0.114l-0.03,-0.117l-0.02,-0.119l-0.011,-0.12l-0.002,-0.121l0.009,-0.121l0.018,-0.119l0.028,-0.118l0.037,-0.115l0.046,-0.111l0.055,-0.108l0.064,-0.103l0.071,-0.097l0.079,-0.091l0.087,-0.085l0.092,-0.077l13.976,-10.727l13.305,10.75l0.091,0.08l0.084,0.086l0.077,0.094l0.069,0.099l0.061,0.104l0.053,0.109l0.043,0.112l0.034,0.116l0.025,0.119l0.015,0.119l0.006,0.121l-0.004,0.121l-0.014,0.12l-0.024,0.118l-0.033,0.116l-0.042,0.114l-0.051,0.109l-0.06,0.105l-0.068,0.1l-0.076,0.094l-0.084,0.087l-0.09,0.081l-0.096,0.073l-0.102,0.065l-0.106,0.057l-0.111,0.048l-0.114,0.038l-0.118,0.03l-0.119,0.02l-0.12,0.01l-0.121,0.001l-0.12,-0.009l-0.12,-0.019l-0.117,-0.028l-0.115,-0.038l-0.111,-0.047l-0.108,-0.055l-0.102,-0.064l-0.097,-0.072l-11.468,-9.266l-12.101,9.289l-0.099,0.069l-0.104,0.062l-0.108,0.053l-0.113,0.044l-0.115,0.034l-0.118,0.026l-0.12,0.016l-0.121,0.006Z" style="fill:#3f3f3f;"/><path d="M27.72,47.552l-0.134,-0.012l-0.133,-0.024l-0.129,-0.036l-0.126,-0.047l-0.122,-0.059l-0.115,-0.069l-0.109,-0.079l-0.101,-0.088l-0.093,-0.098l-0.084,-0.105l-0.074,-0.112l-0.064,-0.119l-0.053,-0.124l-0.042,-0.128l-0.03,-0.131l-0.018,-0.133l-0.006,-0.135l0,-30.978l0.006,-0.134l0.018,-0.133l0.03,-0.132l0.042,-0.128l0.053,-0.123l0.064,-0.119l0.074,-0.112l0.084,-0.105l0.093,-0.098l0.101,-0.088l0.109,-0.079l0.115,-0.069l0.122,-0.059l0.126,-0.047l0.129,-0.036l0.133,-0.024l0.134,-0.012l0.135,0l0.134,0.012l0.132,0.024l0.13,0.036l0.126,0.047l0.121,0.059l0.116,0.069l0.108,0.079l0.102,0.088l0.093,0.098l0.084,0.105l0.074,0.112l0.064,0.119l0.053,0.123l0.041,0.128l0.03,0.132l0.018,0.133l0.006,0.134l0,30.978l-0.006,0.135l-0.018,0.133l-0.03,0.131l-0.041,0.128l-0.053,0.124l-0.064,0.119l-0.074,0.112l-0.084,0.105l-0.093,0.098l-0.102,0.088l-0.108,0.079l-0.116,0.069l-0.121,0.059l-0.126,0.047l-0.13,0.036l-0.132,0.024l-0.134,0.012l-0.135,0Z" style="fill:#3f3f3f;"/></svg>