<?xml version="1.0" standalone="no"?><!DOCTYPE svg PUBLIC "-//W3C//DTD SVG 1.1//EN" "http://www.w3.org/Graphics/SVG/1.1/DTD/svg11.dtd"><svg width="100%" height="100%" viewBox="0 0 56 41" version="1.1" xmlns="http://www.w3.org/2000/svg" xmlns:xlink="http://www.w3.org/1999/xlink" xml:space="preserve" style="fill-rule:evenodd;clip-rule:evenodd;stroke-linejoin:round;stroke-miterlimit:1.41421;"><path d="M27.438,26.992l-13.306,-10.75l-0.091,-0.08l-0.084,-0.087l-0.077,-0.093l-0.069,-0.099l-0.061,-0.104l-0.052,-0.109l-0.044,-0.113l-0.034,-0.116l-0.025,-0.118l-0.015,-0.12l-0.005,-0.12l0.004,-0.121l0.014,-0.12l0.024,-0.119l0.033,-0.116l0.042,-0.113l0.051,-0.109l0.06,-0.105l0.068,-0.1l0.076,-0.094l0.083,-0.088l0.09,-0.08l0.096,-0.073l0.102,-0.065l0.107,-0.057l0.111,-0.048l0.114,-0.039l0.117,-0.029l0.119,-0.02l0.121,-0.011l0.121,0l0.12,0.009l0.119,0.019l0.118,0.028l0.115,0.038l0.111,0.046l0.107,0.056l0.103,0.064l0.096,0.072l11.469,9.266l12.1,-9.289l0.099,-0.07l0.104,-0.061l0.109,-0.053l0.112,-0.044l0.116,-0.035l0.118,-0.025l0.12,-0.016l0.12,-0.006l0.121,0.004l0.12,0.013l0.119,0.023l0.116,0.032l0.114,0.042l0.109,0.051l0.105,0.059l0.101,0.067l0.094,0.076l0.088,0.083l0.081,0.089l0.073,0.096l0.066,0.102l0.057,0.106l0.049,0.111l0.039,0.114l0.03,0.117l0.021,0.119l0.011,0.12l0.001,0.121l-0.008,0.12l-0.019,0.12l-0.027,0.117l-0.037,0.115l-0.047,0.112l-0.055,0.107l-0.063,0.103l-0.072,0.098l-0.079,0.091l-0.086,0.084l-0.093,0.078l-13.975,10.727Z" style="fill:#3f3f3f;"/></svg>