<?xml version="1.0" standalone="no"?>
<!DOCTYPE svg PUBLIC "-//W3C//DTD SVG 1.1//EN" "http://www.w3.org/Graphics/SVG/1.1/DTD/svg11.dtd">
<svg width="100%" height="100%" viewBox="0 0 411 400" version="1.1" xmlns="http://www.w3.org/2000/svg" xmlns:xlink="http://www.w3.org/1999/xlink" xml:space="preserve" style="fill-rule:evenodd;clip-rule:evenodd;stroke-linejoin:round;stroke-miterlimit:1.41421;">
    <g transform="matrix(1,0,0,1,-1923.65,-1113.46)">
        <g transform="matrix(4.16667,0,0,4.16667,0,0)">
            <g transform="matrix(0.24,0,0,0.24,0,0)">
                <path d="M1985.93,1463.18C1985.72,1468.97 1984.99,1474.31 1983.73,1479.19C1982.65,1483.38 1980.9,1487.17 1978.48,1490.56C1976.06,1493.95 1972.62,1496.52 1968.16,1498.3C1967.21,1498.63 1966.36,1498.92 1965.61,1499.19C1964.86,1499.45 1964.07,1499.62 1963.24,1499.69C1957.57,1501.04 1952.66,1500.63 1948.52,1498.48C1945.33,1496.63 1942.83,1493.69 1941,1489.67L1940.11,1487.12C1939.1,1483.02 1939.26,1479.37 1940.57,1476.16C1941.88,1472.94 1944.01,1469.92 1946.94,1467.1C1949.87,1464.27 1953.48,1461.58 1957.78,1459.02C1962.08,1456.46 1966.7,1453.79 1971.66,1451C1974.11,1449.51 1976.52,1448.08 1978.9,1446.72C1981.29,1445.36 1983.7,1443.93 1986.15,1442.44L1986.29,1445.57C1986.25,1451.52 1986.13,1457.39 1985.93,1463.18ZM2155.29,1404.03C2155.08,1409.82 2154.35,1415.16 2153.1,1420.05C2152.02,1424.24 2150.27,1428.03 2147.85,1431.42C2145.43,1434.8 2141.99,1437.38 2137.52,1439.15C2136.58,1439.48 2135.73,1439.78 2134.98,1440.04C2134.22,1440.3 2133.43,1440.47 2132.61,1440.55C2126.94,1441.89 2122.03,1441.49 2117.89,1439.34C2114.7,1437.48 2112.19,1434.55 2110.36,1430.52L2109.47,1427.98C2108.47,1423.88 2108.62,1420.22 2109.93,1417.01C2111.25,1413.8 2113.37,1410.78 2116.3,1407.96C2119.24,1405.13 2122.84,1402.44 2127.14,1399.88C2131.44,1397.32 2136.06,1394.64 2141.03,1391.85C2143.47,1390.37 2145.88,1388.94 2148.27,1387.57C2150.66,1386.21 2153.07,1384.79 2155.51,1383.3L2155.66,1386.43C2155.61,1392.37 2155.49,1398.24 2155.29,1404.03ZM1985.4,1322.91C1985.07,1331.07 1984.58,1339.99 1983.93,1349.64C1983.28,1359.3 1982.06,1368.4 1980.28,1376.97C1978.51,1385.53 1975.97,1392.98 1972.68,1399.32C1969.38,1405.67 1964.88,1409.73 1959.15,1411.52C1955.3,1412.65 1952.07,1412.19 1949.45,1410.14C1945.93,1407.34 1943.13,1402.39 1941.08,1395.27C1939.83,1391.68 1938.81,1387.11 1938.03,1381.55C1937.26,1376 1936.74,1369.98 1936.5,1363.5C1936.25,1357.02 1936.34,1350.32 1936.78,1343.38C1937.22,1336.45 1938.08,1329.69 1939.39,1323.09C1941.03,1314.47 1943.58,1306.9 1947.03,1300.4C1950.48,1293.9 1954.91,1289.6 1960.32,1287.5C1960.89,1287.3 1961.39,1287.23 1961.84,1287.28C1966.69,1286.02 1971.12,1286.58 1975.14,1288.99C1979.86,1291.58 1983.34,1296.09 1985.58,1302.51L1986.28,1304.49C1985.9,1309.5 1985.61,1315.64 1985.4,1322.91ZM2154.76,1263.76C2154.44,1271.93 2153.94,1280.84 2153.29,1290.5C2152.64,1300.15 2151.43,1309.26 2149.65,1317.82C2147.88,1326.39 2145.34,1333.84 2142.05,1340.18C2138.75,1346.52 2134.24,1350.58 2128.51,1352.37C2124.66,1353.51 2121.43,1353.05 2118.81,1351C2115.29,1348.2 2112.5,1343.24 2110.44,1336.12C2109.19,1332.54 2108.17,1327.97 2107.4,1322.41C2106.62,1316.85 2106.11,1310.84 2105.86,1304.35C2105.61,1297.88 2105.7,1291.17 2106.14,1284.24C2106.58,1277.3 2107.45,1270.55 2108.75,1263.94C2110.4,1255.32 2112.95,1247.75 2116.4,1241.25C2119.85,1234.76 2124.27,1230.45 2129.68,1228.35C2130.25,1228.15 2130.76,1228.09 2131.2,1228.14C2136.05,1226.87 2140.49,1227.44 2144.51,1229.85C2149.23,1232.44 2152.7,1236.94 2154.95,1243.36L2155.64,1245.35C2155.27,1250.35 2154.98,1256.49 2154.76,1263.76ZM2333.02,1222.8C2331.93,1221.49 2330.49,1220.72 2328.72,1220.49C2326.94,1220.27 2325.35,1220.72 2323.95,1221.84C2322.54,1222.97 2321.72,1224.42 2321.49,1226.19C2320.83,1233.42 2320.08,1240.04 2319.21,1246.05C2318.35,1252.08 2317.29,1257.53 2316.03,1262.42C2314.7,1267.12 2313.31,1271.32 2311.85,1275C2310.38,1278.69 2308.66,1281.94 2306.67,1284.75C2304.93,1287.06 2302.81,1289.17 2300.31,1291.11C2297.43,1293.18 2294.86,1294.6 2292.59,1295.39L2292.3,1295.49C2289.66,1296.42 2287.38,1296.26 2285.47,1295.02C2282.92,1293.79 2280.89,1291.01 2279.37,1286.66L2279.18,1286.1C2278.58,1284.39 2278.08,1282.19 2277.66,1279.47C2277.24,1276.76 2276.98,1273.73 2276.86,1270.38C2276.69,1266.84 2276.48,1263.05 2276.23,1259C2275.98,1254.96 2275.82,1250.72 2275.76,1246.3C2275.7,1232.76 2275.7,1219.57 2275.77,1206.73C2275.84,1193.89 2275.88,1181.11 2275.89,1168.39L2275.79,1148.1C2275.83,1147.02 2275.82,1146.07 2275.75,1145.25C2275.67,1144.43 2275.66,1143.48 2275.71,1142.4C2275.73,1139.43 2275.74,1135.99 2275.75,1132.06C2275.76,1128.14 2275.76,1124.06 2275.77,1119.82C2275.81,1118.12 2275.18,1116.64 2273.9,1115.39C2272.62,1114.14 2271.12,1113.5 2269.41,1113.46C2267.77,1113.61 2266.31,1114.28 2265.03,1115.47C2263.75,1116.66 2263.09,1118.1 2263.05,1119.81C2263.06,1124.69 2263.09,1129.02 2263.14,1132.81C2263.2,1136.6 2263.18,1139.9 2263.09,1142.68L2263.08,1148.09L2263.18,1168.39C2263.18,1181.74 2263.12,1194.94 2263.03,1208C2262.93,1220.43 2262.97,1232.66 2263.13,1244.71C2262.76,1245.45 2262.51,1246.26 2262.4,1247.14C2261.86,1253.48 2261.23,1260.32 2260.51,1267.67C2259.79,1275.02 2258.5,1282.09 2256.63,1288.88C2254.95,1294.98 2252.78,1300.29 2250.13,1304.82C2247.47,1309.35 2243.97,1312.37 2239.63,1313.89L2239.35,1313.99C2236.51,1314.97 2234.11,1314.76 2232.13,1313.33C2230.97,1312.46 2229.98,1311.27 2229.13,1309.77C2228.29,1308.26 2227.57,1306.66 2226.98,1304.96L2226.78,1304.39C2226.12,1302.5 2225.6,1300.25 2225.21,1297.63C2224.83,1295.02 2224.45,1291.97 2224.09,1288.49C2223.91,1284.95 2223.71,1281.21 2223.5,1277.25C2223.28,1273.31 2223.24,1269.08 2223.37,1264.59C2223.4,1262.25 2223.39,1259.5 2223.35,1256.34C2223.3,1253.17 2223.31,1249.57 2223.38,1245.52C2223.45,1241.47 2223.51,1236.79 2223.56,1231.48C2223.61,1226.17 2223.65,1220.22 2223.69,1213.64L2223.76,1205.67L2223.65,1190.77C2223.68,1189.07 2223.06,1187.59 2221.78,1186.34C2220.5,1185.1 2219.03,1184.55 2217.39,1184.69C2215.68,1184.66 2214.2,1185.28 2212.96,1186.56C2211.71,1187.85 2211.16,1189.31 2211.32,1190.94L2211.05,1205.66C2211.08,1207.55 2211.1,1209.14 2211.12,1210.4C2211.13,1211.67 2211.18,1212.71 2211.26,1213.53C2211.01,1218.91 2210.89,1224.3 2210.87,1229.71C2210.85,1235.12 2210.84,1240.26 2210.85,1245.13C2210.86,1250 2210.8,1254.1 2210.69,1257.42C2210.61,1259.99 2210.61,1262.05 2210.68,1263.61C2210.49,1264.17 2210.3,1264.72 2210.29,1265.35C2209.51,1277.06 2208.04,1287.42 2205.89,1296.43C2203.74,1305.44 2200.98,1313.62 2197.61,1320.94C2194.42,1328.19 2190.76,1334.56 2186.63,1340.02C2182.51,1345.49 2177.94,1350.47 2172.95,1354.97C2172.13,1355.67 2171.32,1356.38 2170.51,1357.09C2169.7,1357.8 2168.88,1358.5 2168.08,1359.21C2168.11,1352.63 2168.08,1346.18 2167.99,1339.86C2167.9,1333.53 2167.9,1327.18 2168.01,1320.79C2168.07,1311.87 2168.12,1303.54 2168.17,1295.78C2168.21,1288.04 2168.26,1280.56 2168.28,1273.35C2168.46,1268.41 2168.61,1263.06 2168.71,1257.3C2168.82,1251.55 2168.94,1245.84 2169.08,1240.17C2169.23,1234.51 2169.36,1229.12 2169.47,1223.99C2169.59,1218.87 2169.75,1214.47 2169.95,1210.8L2169.85,1210.51L2170.03,1210.13C2170.07,1208.42 2169.45,1206.95 2168.17,1205.7C2166.88,1204.45 2165.39,1203.81 2163.68,1203.77C2161.91,1203.55 2160.4,1204.07 2159.15,1205.35C2157.9,1206.64 2157.26,1208.13 2157.22,1209.84L2157.32,1210.12L2157.14,1210.5C2157.1,1212.22 2157.09,1214.17 2157.13,1216.39C2157.16,1218.6 2157.06,1220.91 2156.84,1223.32C2155.24,1221.76 2153.23,1220.24 2150.8,1218.75C2147.17,1216.85 2143.4,1215.62 2139.51,1215.07C2135.61,1214.52 2131.7,1214.73 2127.8,1215.67L2125.25,1216.55C2117.38,1219.52 2111.12,1225.1 2106.46,1233.28C2101.8,1241.48 2098.35,1250.85 2096.1,1261.37C2094.74,1268.42 2093.85,1275.72 2093.42,1283.28C2092.99,1290.85 2092.9,1298.19 2093.16,1305.3C2093.17,1305.46 2093.18,1305.61 2093.19,1305.77C2093.16,1305.95 2093.06,1306.1 2093.03,1306.29C2092.49,1312.63 2091.86,1319.47 2091.14,1326.81C2090.43,1334.16 2089.13,1341.23 2087.27,1348.02C2085.59,1354.12 2083.42,1359.44 2080.76,1363.96C2078.11,1368.5 2074.61,1371.52 2070.27,1373.03L2069.98,1373.13C2067.15,1374.12 2064.74,1373.9 2062.76,1372.47C2061.61,1371.6 2060.61,1370.42 2059.77,1368.91C2058.93,1367.41 2058.21,1365.8 2057.61,1364.1L2057.42,1363.54C2056.76,1361.65 2056.23,1359.39 2055.85,1356.77C2055.46,1354.16 2055.09,1351.11 2054.72,1347.64C2054.55,1344.1 2054.35,1340.35 2054.13,1336.4C2053.92,1332.45 2053.88,1328.23 2054.01,1323.74C2054.03,1321.39 2054.02,1318.64 2053.98,1315.48C2053.93,1312.32 2053.95,1308.72 2054.02,1304.67C2054.08,1300.62 2054.15,1295.94 2054.2,1290.62C2054.25,1285.31 2054.29,1279.36 2054.32,1272.78L2054.4,1264.81L2054.28,1249.92C2054.32,1248.21 2053.7,1246.73 2052.42,1245.48C2051.13,1244.24 2049.67,1243.69 2048.03,1243.84C2046.32,1243.8 2044.84,1244.42 2043.6,1245.7C2042.35,1246.99 2041.8,1248.45 2041.95,1250.09L2041.68,1264.8C2041.71,1266.7 2041.73,1268.28 2041.75,1269.55C2041.77,1270.81 2041.81,1271.86 2041.89,1272.67C2041.65,1278.06 2041.52,1283.44 2041.51,1288.86C2041.49,1294.27 2041.48,1299.41 2041.49,1304.27C2041.49,1309.15 2041.44,1313.24 2041.33,1316.56C2041.24,1319.14 2041.24,1321.19 2041.31,1322.75C2041.13,1323.31 2040.94,1323.86 2040.93,1324.49C2040.14,1336.2 2038.68,1346.57 2036.53,1355.58C2034.38,1364.59 2031.61,1372.76 2028.24,1380.08C2025.06,1387.34 2021.4,1393.7 2017.27,1399.16C2013.14,1404.63 2008.58,1409.61 2003.58,1414.11C2002.77,1414.82 2001.96,1415.52 2001.15,1416.23C2000.33,1416.94 1999.52,1417.64 1998.71,1418.35C1998.74,1411.77 1998.71,1405.32 1998.63,1399C1998.53,1392.68 1998.54,1386.32 1998.64,1379.93C1998.7,1371.01 1998.76,1362.68 1998.81,1354.93C1998.85,1347.18 1998.89,1339.7 1998.91,1332.49C1999.1,1327.55 1999.24,1322.2 1999.35,1316.44C1999.45,1310.69 1999.58,1304.98 1999.72,1299.32C1999.86,1293.66 1999.99,1288.26 2000.11,1283.13C2000.23,1278.01 2000.38,1273.62 2000.58,1269.94L2000.48,1269.66L2000.67,1269.27C2000.71,1267.57 2000.08,1266.09 1998.81,1264.84C1997.52,1263.6 1996.03,1262.95 1994.32,1262.91C1992.54,1262.69 1991.03,1263.22 1989.78,1264.5C1988.54,1265.78 1987.9,1267.27 1987.86,1268.98L1987.96,1269.27L1987.77,1269.64C1987.73,1271.36 1987.73,1273.32 1987.76,1275.53C1987.79,1277.75 1987.7,1280.05 1987.48,1282.46C1985.88,1280.9 1983.86,1279.38 1981.44,1277.89C1977.8,1275.99 1974.04,1274.76 1970.14,1274.22C1966.24,1273.67 1962.34,1273.87 1958.43,1274.81L1955.88,1275.7C1948.02,1278.66 1941.76,1284.24 1937.1,1292.42C1932.44,1300.62 1928.98,1309.99 1926.73,1320.52C1925.38,1327.56 1924.48,1334.86 1924.05,1342.42C1923.62,1349.99 1923.54,1357.33 1923.8,1364.44C1924.06,1371.55 1924.65,1378.12 1925.6,1384.14C1926.54,1390.17 1927.61,1395.2 1928.8,1399.24C1930.38,1403.77 1932.23,1407.84 1934.33,1411.44C1936.44,1415.05 1938.93,1417.94 1941.81,1420.11C1947.76,1425.02 1954.83,1426.16 1963.01,1423.51C1968.37,1421.86 1972.93,1419 1976.7,1414.92C1980.47,1410.85 1983.61,1406.05 1986.12,1400.51C1985.99,1405 1985.96,1409.46 1986.03,1413.89C1986.09,1418.32 1986.09,1422.87 1986.03,1427.55C1982.58,1429.81 1979.14,1431.91 1975.69,1433.86C1972.23,1435.81 1968.84,1437.79 1965.53,1439.8C1959.31,1443.24 1953.6,1446.6 1948.4,1449.91C1943.2,1453.2 1938.82,1456.75 1935.27,1460.53C1931.72,1464.31 1929.23,1468.57 1927.81,1473.3C1926.4,1478.03 1926.49,1483.61 1928.1,1490.05C1928.18,1490.86 1928.54,1492.22 1929.2,1494.11C1930.51,1497.25 1932.28,1500.18 1934.49,1502.9C1936.72,1505.62 1939.42,1507.9 1942.61,1509.76C1945.73,1511.42 1949.29,1512.51 1953.28,1513.02C1957.28,1513.54 1961.6,1513.19 1966.26,1511.99C1967.28,1511.84 1968.31,1511.6 1969.34,1511.23C1970.38,1510.87 1971.46,1510.49 1972.6,1510.1C1979.26,1507.34 1984.41,1503.59 1988.04,1498.82C1991.67,1494.06 1994.3,1488.53 1995.92,1482.25C1997.54,1476.6 1998.42,1470.62 1998.56,1464.32C1998.69,1458.03 1998.8,1451.69 1998.9,1445.3L1998.84,1434.2C2001.22,1432.52 2003.49,1430.83 2005.65,1429.12C2007.8,1427.42 2009.91,1425.57 2011.97,1423.57C2017.65,1418.62 2022.84,1413 2027.53,1406.7C2032.21,1400.4 2036.33,1393.25 2039.89,1385.22C2042.16,1380.1 2044.15,1374.57 2045.9,1368.72C2046.87,1371.37 2048.03,1373.87 2049.43,1376.17C2050.93,1378.62 2052.82,1380.71 2055.12,1382.45C2057.68,1384.31 2060.54,1385.54 2063.71,1386.12C2066.88,1386.71 2070.36,1386.35 2074.13,1385.02L2074.42,1384.92C2081.03,1382.62 2086.33,1378.39 2090.32,1372.22C2094.31,1366.06 2097.36,1359.02 2099.46,1351.08C2099.89,1349.45 2100.19,1347.77 2100.57,1346.12C2101.54,1348.31 2102.58,1350.38 2103.7,1352.3C2105.8,1355.91 2108.3,1358.8 2111.17,1360.97C2117.13,1365.88 2124.19,1367.02 2132.38,1364.37C2137.73,1362.71 2142.29,1359.85 2146.06,1355.77C2149.83,1351.71 2152.97,1346.9 2155.49,1341.36C2155.36,1345.86 2155.33,1350.32 2155.39,1354.74C2155.45,1359.17 2155.45,1363.72 2155.4,1368.4C2151.95,1370.67 2148.5,1372.77 2145.05,1374.72C2141.6,1376.67 2138.21,1378.64 2134.89,1380.65C2128.67,1384.09 2122.97,1387.46 2117.76,1390.76C2112.56,1394.06 2108.19,1397.6 2104.63,1401.39C2101.08,1405.17 2098.6,1409.42 2097.18,1414.16C2095.76,1418.89 2095.86,1424.47 2097.46,1430.9C2097.54,1431.72 2097.91,1433.07 2098.56,1434.96C2099.87,1438.1 2101.64,1441.04 2103.86,1443.76C2106.08,1446.48 2108.78,1448.76 2111.98,1450.62C2115.1,1452.28 2118.66,1453.37 2122.65,1453.88C2126.64,1454.39 2130.97,1454.05 2135.63,1452.84C2136.64,1452.7 2137.67,1452.45 2138.7,1452.09C2139.74,1451.72 2140.83,1451.35 2141.96,1450.95C2148.63,1448.19 2153.78,1444.44 2157.41,1439.68C2161.04,1434.92 2163.66,1429.39 2165.28,1423.1C2166.91,1417.45 2167.79,1411.47 2167.92,1405.18C2168.05,1398.89 2168.17,1392.55 2168.27,1386.15L2168.2,1375.05C2170.58,1373.37 2172.86,1371.68 2175.01,1369.97C2177.17,1368.27 2179.28,1366.42 2181.34,1364.43C2187.02,1359.47 2192.2,1353.85 2196.9,1347.56C2201.58,1341.26 2205.7,1334.1 2209.26,1326.08C2211.53,1320.96 2213.51,1315.42 2215.27,1309.57C2216.23,1312.22 2217.4,1314.72 2218.8,1317.03C2220.29,1319.48 2222.19,1321.57 2224.49,1323.3C2227.05,1325.17 2229.91,1326.39 2233.08,1326.98C2236.25,1327.57 2239.72,1327.2 2243.5,1325.88L2243.78,1325.78C2250.39,1323.47 2255.69,1319.24 2259.68,1313.08C2263.47,1307.23 2266.38,1300.56 2268.47,1293.11C2271.04,1299.21 2274.69,1303.67 2279.56,1306.3C2282.17,1307.72 2284.93,1308.5 2287.85,1308.64C2290.76,1308.8 2293.63,1308.37 2296.46,1307.39L2296.75,1307.29C2300.9,1305.84 2304.63,1303.8 2307.95,1301.15C2311.33,1298.7 2314.32,1295.75 2316.93,1292.3C2321.7,1285.34 2325.46,1276.39 2328.22,1265.47C2329.54,1260.14 2330.68,1254.34 2331.67,1248.06C2332.66,1241.79 2333.54,1234.91 2334.32,1227.43C2334.55,1225.66 2334.11,1224.12 2333.02,1222.8ZM2044.97,1225.52C2047.61,1226.72 2050.25,1226.86 2052.89,1225.93C2055.54,1225.01 2057.47,1223.28 2058.7,1220.73C2059.93,1218.18 2060.09,1215.58 2059.16,1212.94C2058.24,1210.3 2056.5,1208.36 2053.96,1207.13C2051.41,1205.9 2048.82,1205.75 2046.17,1206.67C2043.53,1207.6 2041.55,1209.35 2040.22,1211.93C2038.9,1214.51 2038.7,1217.12 2039.62,1219.76C2040.55,1222.41 2042.33,1224.33 2044.97,1225.52ZM2214.33,1166.38C2216.97,1167.57 2219.62,1167.71 2222.26,1166.79C2224.91,1165.87 2226.84,1164.13 2228.07,1161.58C2229.3,1159.04 2229.45,1156.44 2228.53,1153.79C2227.61,1151.15 2225.87,1149.22 2223.32,1147.99C2220.78,1146.76 2218.18,1146.61 2215.53,1147.53C2212.89,1148.45 2210.91,1150.21 2209.59,1152.79C2208.26,1155.37 2208.06,1157.98 2208.98,1160.62C2209.91,1163.27 2211.69,1165.19 2214.33,1166.38Z" style="fill:white;"/>
            </g>
        </g>
    </g>
</svg>
