<?xml version="1.0" standalone="no"?><!DOCTYPE svg PUBLIC "-//W3C//DTD SVG 1.1//EN" "http://www.w3.org/Graphics/SVG/1.1/DTD/svg11.dtd"><svg width="100%" height="100%" viewBox="0 0 85 85" version="1.1" xmlns="http://www.w3.org/2000/svg" xmlns:xlink="http://www.w3.org/1999/xlink" xml:space="preserve" style="fill-rule:evenodd;clip-rule:evenodd;stroke-linejoin:round;stroke-miterlimit:1.41421;"><path d="M46.297,68.577l0.09,-0.001l0.089,-0.003l0.089,-0.006l0.09,-0.007l0.088,-0.01l0.089,-0.011l0.089,-0.014l0.088,-0.016l0.092,-0.019l0.039,-0.009l0.044,-0.01l0.043,-0.011l0.043,-0.011l0.043,-0.012l0.044,-0.012l0.043,-0.013l0.042,-0.014l0.043,-0.014l0.042,-0.014l0.043,-0.015l0.042,-0.016l0.042,-0.016l0.041,-0.016l0.042,-0.018l0.042,-0.017l0.041,-0.018l0.041,-0.019l0.041,-0.019l0.04,-0.02l0.041,-0.02l0.04,-0.021l0.04,-0.021l0.04,-0.022l0.039,-0.022l0.039,-0.023l0.04,-0.023l0.039,-0.024l0.038,-0.025l0.038,-0.025l0.039,-0.025l0.037,-0.026l0.038,-0.026l0.037,-0.028l0.038,-0.027l0.036,-0.028l0.037,-0.029l0.036,-0.029l0.036,-0.03l0.036,-0.03l0.035,-0.031l0.036,-0.031l0.034,-0.032l0.035,-0.033l0.034,-0.033l0.038,-0.037l18.578,-18.576l0.037,-0.037l0.033,-0.034l0.032,-0.035l0.032,-0.035l0.032,-0.035l0.03,-0.036l0.031,-0.035l0.029,-0.037l0.03,-0.036l0.028,-0.036l0.028,-0.037l0.028,-0.037l0.027,-0.038l0.026,-0.037l0.026,-0.038l0.026,-0.038l0.025,-0.039l0.024,-0.038l0.024,-0.039l0.023,-0.039l0.023,-0.04l0.023,-0.039l0.021,-0.04l0.022,-0.04l0.02,-0.04l0.021,-0.041l0.019,-0.041l0.019,-0.04l0.019,-0.041l0.018,-0.042l0.018,-0.041l0.017,-0.042l0.016,-0.042l0.016,-0.041l0.016,-0.043l0.015,-0.042l0.015,-0.042l0.014,-0.043l0.013,-0.043l0.013,-0.043l0.012,-0.043l0.012,-0.043l0.011,-0.043l0.011,-0.044l0.011,-0.043l0.008,-0.04l0.019,-0.092l0.016,-0.088l0.014,-0.088l0.012,-0.089l0.009,-0.089l0.007,-0.089l0.006,-0.089l0.003,-0.09l0.001,-0.089l-0.001,-0.09l-0.003,-0.089l-0.006,-0.089l-0.007,-0.089l-0.009,-0.089l-0.012,-0.089l-0.014,-0.088l-0.016,-0.088l-0.019,-0.093l-0.008,-0.039l-0.011,-0.044l-0.011,-0.043l-0.011,-0.043l-0.012,-0.043l-0.012,-0.044l-0.013,-0.043l-0.013,-0.042l-0.014,-0.043l-0.015,-0.042l-0.015,-0.043l-0.016,-0.042l-0.016,-0.042l-0.016,-0.041l-0.017,-0.042l-0.018,-0.042l-0.018,-0.041l-0.019,-0.041l-0.019,-0.041l-0.019,-0.04l-0.021,-0.041l-0.02,-0.04l-0.022,-0.04l-0.021,-0.04l-0.023,-0.04l-0.023,-0.039l-0.023,-0.039l-0.024,-0.039l-0.024,-0.039l-0.025,-0.038l-0.026,-0.038l-0.026,-0.038l-0.026,-0.038l-0.027,-0.037l-0.028,-0.037l-0.028,-0.037l-0.028,-0.037l-0.03,-0.036l-0.029,-0.036l-0.031,-0.036l-0.03,-0.035l-0.032,-0.035l-0.032,-0.035l-0.032,-0.035l-0.033,-0.034l-0.037,-0.037l-24.077,-24.076l-0.082,-0.081l-0.08,-0.076l-0.083,-0.077l-0.087,-0.076l-0.089,-0.077l-0.092,-0.077l-0.095,-0.077l-0.098,-0.077l-0.1,-0.076l-0.103,-0.076l-0.105,-0.076l-0.108,-0.076l-0.109,-0.075l-0.112,-0.075l-0.114,-0.074l-0.117,-0.073l-0.118,-0.073l-0.119,-0.072l-0.122,-0.071l-0.123,-0.071l-0.125,-0.07l-0.126,-0.068l-0.128,-0.068l-0.129,-0.067l-0.131,-0.066l-0.131,-0.064l-0.132,-0.064l-0.134,-0.062l-0.134,-0.061l-0.136,-0.06l-0.136,-0.059l-0.136,-0.057l-0.137,-0.056l-0.138,-0.055l-0.138,-0.053l-0.138,-0.052l-0.139,-0.05l-0.139,-0.049l-0.138,-0.047l-0.139,-0.046l-0.138,-0.044l-0.139,-0.043l-0.138,-0.04l-0.137,-0.039l-0.137,-0.038l-0.136,-0.035l-0.136,-0.034l-0.135,-0.032l-0.134,-0.03l-0.133,-0.028l-0.132,-0.027l-0.131,-0.024l-0.129,-0.023l-0.129,-0.021l-0.126,-0.018l-0.125,-0.017l-0.123,-0.015l-0.122,-0.013l-0.119,-0.011l-0.118,-0.008l-0.115,-0.007l-0.113,-0.005l-0.111,-0.003l-0.115,-0.001l-15.536,0l-0.053,0l-0.048,0.001l-0.047,0.002l-0.047,0.002l-0.047,0.002l-0.047,0.004l-0.047,0.004l-0.046,0.004l-0.047,0.005l-0.046,0.006l-0.046,0.006l-0.045,0.007l-0.046,0.007l-0.046,0.008l-0.045,0.008l-0.045,0.009l-0.044,0.01l-0.045,0.01l-0.044,0.01l-0.045,0.012l-0.043,0.011l-0.044,0.012l-0.044,0.013l-0.043,0.013l-0.043,0.014l-0.043,0.014l-0.043,0.015l-0.042,0.016l-0.043,0.015l-0.041,0.017l-0.042,0.017l-0.042,0.017l-0.041,0.018l-0.041,0.018l-0.041,0.019l-0.04,0.019l-0.041,0.02l-0.04,0.02l-0.039,0.021l-0.04,0.021l-0.039,0.022l-0.039,0.022l-0.039,0.023l-0.038,0.023l-0.038,0.023l-0.034,0.022l-0.079,0.052l-0.073,0.051l-0.072,0.052l-0.071,0.055l-0.07,0.056l-0.068,0.058l-0.067,0.059l-0.065,0.061l-0.064,0.062l-0.063,0.065l-0.061,0.065l-0.059,0.067l-0.058,0.068l-0.056,0.07l-0.055,0.071l-0.052,0.072l-0.051,0.073l-0.052,0.079l-0.022,0.034l-0.023,0.038l-0.023,0.038l-0.023,0.039l-0.022,0.039l-0.022,0.039l-0.021,0.039l-0.021,0.04l-0.02,0.04l-0.02,0.041l-0.019,0.04l-0.019,0.041l-0.018,0.041l-0.018,0.041l-0.017,0.042l-0.017,0.042l-0.017,0.042l-0.015,0.042l-0.016,0.042l-0.015,0.043l-0.014,0.043l-0.014,0.043l-0.013,0.043l-0.013,0.044l-0.012,0.043l-0.011,0.045l-0.012,0.044l-0.01,0.044l-0.01,0.044l-0.01,0.046l-0.009,0.044l-0.008,0.045l-0.008,0.046l-0.007,0.045l-0.007,0.046l-0.006,0.046l-0.006,0.046l-0.005,0.047l-0.004,0.046l-0.004,0.047l-0.004,0.047l-0.002,0.047l-0.002,0.047l-0.002,0.047l-0.001,0.048l0,0.053l0,15.536l0.001,0.115l0.003,0.111l0.005,0.113l0.007,0.115l0.008,0.118l0.011,0.119l0.013,0.122l0.015,0.123l0.017,0.125l0.018,0.127l0.021,0.128l0.023,0.129l0.024,0.131l0.027,0.132l0.028,0.133l0.03,0.134l0.032,0.135l0.034,0.136l0.035,0.136l0.038,0.137l0.039,0.138l0.04,0.138l0.043,0.138l0.044,0.139l0.046,0.138l0.047,0.139l0.049,0.139l0.05,0.138l0.052,0.138l0.053,0.138l0.055,0.138l0.056,0.137l0.057,0.137l0.059,0.136l0.06,0.135l0.061,0.134l0.062,0.134l0.064,0.132l0.064,0.132l0.066,0.13l0.067,0.129l0.067,0.128l0.069,0.126l0.07,0.125l0.07,0.123l0.072,0.122l0.072,0.12l0.072,0.118l0.074,0.116l0.074,0.114l0.074,0.112l0.076,0.11l0.075,0.107l0.076,0.105l0.076,0.103l0.077,0.1l0.077,0.098l0.076,0.095l0.077,0.092l0.077,0.089l0.077,0.087l0.076,0.083l0.076,0.08l0.081,0.082l24.077,24.076l0.037,0.038l0.035,0.032l0.034,0.033l0.035,0.032l0.035,0.031l0.036,0.031l0.035,0.03l0.037,0.03l0.036,0.029l0.036,0.029l0.037,0.028l0.037,0.027l0.038,0.028l0.037,0.026l0.038,0.026l0.038,0.025l0.039,0.025l0.038,0.025l0.039,0.024l0.039,0.023l0.04,0.023l0.039,0.022l0.04,0.022l0.04,0.021l0.04,0.021l0.041,0.02l0.04,0.02l0.041,0.019l0.041,0.019l0.041,0.018l0.042,0.017l0.041,0.018l0.042,0.016l0.042,0.016l0.042,0.016l0.042,0.015l0.043,0.014l0.043,0.014l0.042,0.014l0.043,0.013l0.043,0.012l0.043,0.012l0.044,0.011l0.043,0.011l0.044,0.01l0.039,0.009l0.092,0.019l0.088,0.016l0.089,0.014l0.088,0.011l0.089,0.01l0.089,0.007l0.09,0.006l0.089,0.003l0.089,0.001ZM26.673,32.922l-0.087,-0.001l-0.087,-0.001l-0.086,-0.003l-0.086,-0.004l-0.086,-0.005l-0.086,-0.006l-0.085,-0.007l-0.085,-0.008l-0.085,-0.009l-0.085,-0.01l-0.084,-0.011l-0.084,-0.013l-0.083,-0.013l-0.084,-0.014l-0.083,-0.016l-0.082,-0.016l-0.083,-0.018l-0.081,-0.018l-0.082,-0.019l-0.081,-0.021l-0.081,-0.021l-0.08,-0.022l-0.08,-0.024l-0.08,-0.024l-0.079,-0.025l-0.079,-0.026l-0.078,-0.027l-0.078,-0.028l-0.077,-0.029l-0.077,-0.03l-0.077,-0.03l-0.076,-0.032l-0.075,-0.033l-0.075,-0.033l-0.075,-0.034l-0.074,-0.035l-0.074,-0.036l-0.073,-0.037l-0.072,-0.038l-0.072,-0.038l-0.072,-0.04l-0.07,-0.04l-0.071,-0.041l-0.07,-0.042l-0.069,-0.043l-0.069,-0.043l-0.068,-0.044l-0.067,-0.045l-0.067,-0.046l-0.067,-0.047l-0.066,-0.047l-0.065,-0.048l-0.064,-0.049l-0.064,-0.05l-0.064,-0.05l-0.062,-0.051l-0.062,-0.052l-0.062,-0.053l-0.061,-0.053l-0.06,-0.054l-0.059,-0.055l-0.059,-0.055l-0.058,-0.057l-0.058,-0.056l-0.057,-0.058l-0.056,-0.058l-0.055,-0.059l-0.055,-0.059l-0.054,-0.061l-0.053,-0.06l-0.053,-0.062l-0.052,-0.062l-0.051,-0.063l-0.05,-0.063l-0.05,-0.064l-0.049,-0.064l-0.048,-0.066l-0.047,-0.066l-0.047,-0.066l-0.046,-0.067l-0.045,-0.067l-0.044,-0.069l-0.044,-0.068l-0.042,-0.07l-0.042,-0.069l-0.041,-0.071l-0.04,-0.071l-0.04,-0.071l-0.038,-0.072l-0.038,-0.073l-0.037,-0.073l-0.036,-0.073l-0.035,-0.074l-0.034,-0.075l-0.034,-0.075l-0.032,-0.075l-0.032,-0.077l-0.031,-0.076l-0.029,-0.077l-0.029,-0.077l-0.028,-0.078l-0.027,-0.079l-0.026,-0.078l-0.026,-0.079l-0.024,-0.08l-0.023,-0.08l-0.022,-0.08l-0.022,-0.081l-0.02,-0.081l-0.019,-0.082l-0.019,-0.082l-0.017,-0.082l-0.016,-0.083l-0.016,-0.083l-0.014,-0.083l-0.013,-0.083l-0.013,-0.084l-0.011,-0.085l-0.01,-0.084l-0.009,-0.085l-0.008,-0.085l-0.008,-0.086l-0.006,-0.085l-0.004,-0.086l-0.004,-0.086l-0.003,-0.087l-0.002,-0.086l0,-0.087l0,-0.087l0.002,-0.087l0.003,-0.086l0.004,-0.086l0.004,-0.086l0.006,-0.086l0.007,-0.085l0.009,-0.085l0.009,-0.085l0.01,-0.085l0.011,-0.084l0.013,-0.084l0.013,-0.084l0.014,-0.083l0.016,-0.083l0.016,-0.082l0.017,-0.083l0.019,-0.082l0.019,-0.081l0.02,-0.081l0.022,-0.081l0.022,-0.081l0.023,-0.08l0.024,-0.079l0.026,-0.08l0.026,-0.078l0.027,-0.078l0.028,-0.078l0.029,-0.078l0.029,-0.077l0.031,-0.076l0.032,-0.076l0.032,-0.076l0.034,-0.075l0.034,-0.074l0.035,-0.074l0.036,-0.074l0.037,-0.073l0.038,-0.072l0.038,-0.072l0.04,-0.072l0.04,-0.071l0.041,-0.07l0.042,-0.07l0.042,-0.069l0.044,-0.069l0.044,-0.068l0.045,-0.068l0.046,-0.067l0.047,-0.066l0.047,-0.066l0.048,-0.065l0.049,-0.065l0.05,-0.064l0.05,-0.063l0.051,-0.063l0.052,-0.062l0.053,-0.061l0.053,-0.061l0.054,-0.06l0.055,-0.06l0.055,-0.059l0.056,-0.058l0.057,-0.057l0.058,-0.057l0.058,-0.056l0.059,-0.056l0.059,-0.054l0.06,-0.054l0.061,-0.054l0.062,-0.052l0.062,-0.052l0.062,-0.051l0.064,-0.051l0.064,-0.049l0.064,-0.049l0.066,-0.048l0.065,-0.048l0.067,-0.046l0.067,-0.046l0.067,-0.045l0.068,-0.045l0.069,-0.043l0.07,-0.043l0.069,-0.041l0.071,-0.042l0.071,-0.04l0.071,-0.039l0.072,-0.039l0.073,-0.037l0.073,-0.037l0.073,-0.036l0.074,-0.035l0.075,-0.035l0.075,-0.033l0.075,-0.033l0.076,-0.031l0.077,-0.031l0.077,-0.03l0.077,-0.028l0.078,-0.028l0.078,-0.027l0.079,-0.027l0.079,-0.025l0.08,-0.024l0.08,-0.023l0.08,-0.022l0.081,-0.022l0.081,-0.02l0.082,-0.019l0.082,-0.019l0.082,-0.017l0.082,-0.017l0.083,-0.015l0.084,-0.014l0.083,-0.013l0.084,-0.013l0.085,-0.011l0.084,-0.01l0.085,-0.009l0.085,-0.009l0.085,-0.007l0.086,-0.006l0.086,-0.004l0.086,-0.004l0.087,-0.003l0.086,-0.002l0.087,0l0.087,0l0.086,0.002l0.087,0.003l0.086,0.004l0.086,0.004l0.085,0.006l0.086,0.007l0.085,0.009l0.085,0.009l0.084,0.01l0.084,0.011l0.085,0.013l0.083,0.013l0.083,0.014l0.083,0.015l0.083,0.017l0.082,0.017l0.082,0.019l0.082,0.019l0.081,0.02l0.08,0.022l0.081,0.022l0.08,0.023l0.08,0.024l0.079,0.025l0.078,0.027l0.079,0.027l0.077,0.028l0.078,0.028l0.077,0.03l0.076,0.031l0.076,0.031l0.076,0.033l0.075,0.033l0.074,0.035l0.075,0.035l0.073,0.036l0.073,0.037l0.073,0.037l0.072,0.039l0.071,0.039l0.071,0.04l0.071,0.042l0.069,0.041l0.07,0.043l0.068,0.043l0.068,0.045l0.068,0.045l0.067,0.046l0.066,0.046l0.066,0.048l0.065,0.048l0.065,0.049l0.064,0.049l0.063,0.051l0.063,0.051l0.062,0.052l0.062,0.052l0.06,0.054l0.061,0.054l0.059,0.054l0.059,0.056l0.058,0.056l0.058,0.057l0.056,0.057l0.056,0.058l0.056,0.059l0.055,0.06l0.054,0.06l0.053,0.061l0.053,0.061l0.051,0.062l0.052,0.063l0.05,0.063l0.05,0.064l0.049,0.065l0.048,0.065l0.047,0.066l0.047,0.066l0.046,0.067l0.045,0.068l0.044,0.068l0.043,0.069l0.043,0.069l0.042,0.07l0.041,0.07l0.04,0.071l0.04,0.072l0.038,0.072l0.038,0.072l0.037,0.073l0.036,0.074l0.035,0.074l0.034,0.074l0.033,0.075l0.033,0.076l0.032,0.076l0.03,0.077l0.03,0.076l0.029,0.078l0.028,0.078l0.027,0.078l0.026,0.078l0.025,0.08l0.025,0.079l0.023,0.08l0.022,0.081l0.021,0.081l0.021,0.081l0.019,0.081l0.018,0.082l0.018,0.083l0.016,0.082l0.016,0.083l0.014,0.083l0.013,0.084l0.013,0.084l0.011,0.084l0.01,0.085l0.009,0.085l0.008,0.085l0.007,0.085l0.006,0.086l0.005,0.086l0.004,0.086l0.003,0.086l0.001,0.087l0.001,0.087l-0.001,0.087l-0.001,0.086l-0.003,0.087l-0.004,0.086l-0.005,0.086l-0.006,0.085l-0.007,0.086l-0.008,0.085l-0.009,0.085l-0.01,0.084l-0.011,0.084l-0.013,0.085l-0.013,0.083l-0.014,0.083l-0.016,0.083l-0.016,0.083l-0.018,0.082l-0.018,0.082l-0.019,0.082l-0.021,0.081l-0.021,0.08l-0.022,0.081l-0.024,0.08l-0.024,0.08l-0.025,0.079l-0.026,0.078l-0.027,0.079l-0.028,0.078l-0.029,0.077l-0.03,0.077l-0.03,0.076l-0.032,0.077l-0.033,0.075l-0.033,0.075l-0.034,0.075l-0.035,0.074l-0.036,0.073l-0.037,0.073l-0.038,0.073l-0.038,0.072l-0.04,0.071l-0.04,0.071l-0.041,0.071l-0.042,0.069l-0.043,0.07l-0.043,0.068l-0.044,0.069l-0.045,0.067l-0.046,0.067l-0.047,0.066l-0.047,0.066l-0.048,0.066l-0.049,0.064l-0.05,0.064l-0.05,0.063l-0.051,0.063l-0.052,0.062l-0.053,0.062l-0.053,0.06l-0.054,0.061l-0.055,0.059l-0.055,0.059l-0.057,0.058l-0.056,0.058l-0.058,0.056l-0.058,0.057l-0.059,0.055l-0.059,0.055l-0.061,0.054l-0.06,0.053l-0.062,0.053l-0.062,0.052l-0.063,0.051l-0.063,0.05l-0.064,0.05l-0.065,0.049l-0.065,0.048l-0.066,0.047l-0.066,0.047l-0.067,0.046l-0.067,0.045l-0.069,0.044l-0.068,0.043l-0.07,0.043l-0.069,0.042l-0.071,0.041l-0.071,0.04l-0.071,0.04l-0.072,0.038l-0.073,0.038l-0.073,0.037l-0.073,0.036l-0.074,0.035l-0.075,0.034l-0.075,0.033l-0.076,0.033l-0.076,0.032l-0.076,0.03l-0.077,0.03l-0.077,0.029l-0.078,0.028l-0.078,0.027l-0.079,0.026l-0.079,0.025l-0.08,0.024l-0.08,0.024l-0.08,0.022l-0.081,0.021l-0.081,0.021l-0.082,0.019l-0.082,0.018l-0.082,0.018l-0.083,0.016l-0.083,0.016l-0.083,0.014l-0.083,0.013l-0.085,0.013l-0.084,0.011l-0.084,0.01l-0.085,0.009l-0.085,0.008l-0.086,0.007l-0.085,0.006l-0.086,0.005l-0.086,0.004l-0.087,0.003l-0.086,0.001l-0.087,0.001ZM26.673,29.96l0.049,0l0.049,-0.001l0.049,-0.002l0.049,-0.002l0.048,-0.003l0.049,-0.003l0.048,-0.004l0.048,-0.005l0.047,-0.005l0.048,-0.006l0.047,-0.006l0.047,-0.007l0.047,-0.007l0.047,-0.008l0.046,-0.009l0.046,-0.009l0.046,-0.01l0.046,-0.01l0.045,-0.011l0.046,-0.011l0.045,-0.012l0.045,-0.013l0.044,-0.013l0.045,-0.013l0.044,-0.014l0.044,-0.015l0.044,-0.015l0.043,-0.015l0.043,-0.017l0.043,-0.016l0.043,-0.017l0.043,-0.018l0.042,-0.018l0.042,-0.019l0.041,-0.019l0.042,-0.02l0.041,-0.02l0.041,-0.02l0.041,-0.022l0.04,-0.021l0.04,-0.022l0.04,-0.023l0.039,-0.023l0.039,-0.023l0.039,-0.024l0.039,-0.025l0.038,-0.024l0.038,-0.026l0.038,-0.026l0.037,-0.026l0.037,-0.026l0.036,-0.027l0.037,-0.028l0.036,-0.028l0.035,-0.028l0.036,-0.029l0.035,-0.029l0.034,-0.03l0.034,-0.03l0.034,-0.03l0.034,-0.031l0.033,-0.031l0.033,-0.032l0.032,-0.032l0.032,-0.032l0.032,-0.033l0.031,-0.033l0.031,-0.034l0.03,-0.033l0.03,-0.035l0.03,-0.034l0.029,-0.035l0.029,-0.036l0.028,-0.035l0.028,-0.036l0.028,-0.037l0.027,-0.036l0.026,-0.037l0.026,-0.037l0.026,-0.038l0.026,-0.038l0.024,-0.038l0.025,-0.039l0.024,-0.039l0.023,-0.039l0.023,-0.039l0.023,-0.04l0.022,-0.04l0.021,-0.041l0.022,-0.04l0.02,-0.041l0.02,-0.041l0.02,-0.042l0.019,-0.041l0.019,-0.042l0.018,-0.043l0.018,-0.042l0.017,-0.043l0.016,-0.043l0.017,-0.043l0.015,-0.043l0.015,-0.044l0.015,-0.044l0.014,-0.044l0.013,-0.045l0.013,-0.044l0.013,-0.045l0.012,-0.045l0.011,-0.046l0.011,-0.045l0.01,-0.046l0.01,-0.046l0.009,-0.046l0.009,-0.047l0.008,-0.046l0.007,-0.047l0.007,-0.047l0.006,-0.047l0.006,-0.048l0.005,-0.048l0.005,-0.047l0.004,-0.048l0.003,-0.049l0.003,-0.048l0.002,-0.049l0.002,-0.049l0.001,-0.049l0,-0.049l0,-0.049l-0.001,-0.05l-0.002,-0.049l-0.002,-0.048l-0.003,-0.049l-0.003,-0.048l-0.004,-0.048l-0.005,-0.048l-0.005,-0.048l-0.006,-0.047l-0.006,-0.048l-0.007,-0.047l-0.007,-0.046l-0.008,-0.047l-0.009,-0.046l-0.009,-0.047l-0.01,-0.046l-0.01,-0.045l-0.011,-0.046l-0.011,-0.046l-0.012,-0.045l-0.013,-0.044l-0.013,-0.045l-0.013,-0.044l-0.014,-0.044l-0.015,-0.045l-0.015,-0.043l-0.015,-0.044l-0.017,-0.043l-0.016,-0.043l-0.017,-0.043l-0.018,-0.042l-0.018,-0.042l-0.019,-0.042l-0.019,-0.042l-0.02,-0.042l-0.02,-0.041l-0.02,-0.04l-0.022,-0.041l-0.021,-0.041l-0.022,-0.04l-0.023,-0.039l-0.023,-0.04l-0.023,-0.039l-0.024,-0.039l-0.025,-0.038l-0.024,-0.039l-0.026,-0.037l-0.026,-0.038l-0.026,-0.038l-0.026,-0.036l-0.027,-0.037l-0.028,-0.036l-0.028,-0.036l-0.028,-0.036l-0.029,-0.035l-0.029,-0.035l-0.03,-0.035l-0.03,-0.034l-0.03,-0.034l-0.031,-0.033l-0.031,-0.033l-0.032,-0.033l-0.032,-0.033l-0.032,-0.032l-0.033,-0.031l-0.033,-0.031l-0.034,-0.031l-0.033,-0.031l-0.035,-0.03l-0.034,-0.029l-0.035,-0.029l-0.036,-0.029l-0.035,-0.029l-0.036,-0.028l-0.036,-0.027l-0.037,-0.027l-0.037,-0.027l-0.037,-0.026l-0.038,-0.026l-0.038,-0.025l-0.038,-0.025l-0.039,-0.024l-0.039,-0.024l-0.039,-0.024l-0.039,-0.023l-0.04,-0.022l-0.04,-0.022l-0.04,-0.022l-0.041,-0.021l-0.041,-0.021l-0.041,-0.02l-0.041,-0.019l-0.042,-0.02l-0.042,-0.018l-0.042,-0.018l-0.043,-0.018l-0.043,-0.017l-0.043,-0.017l-0.043,-0.016l-0.043,-0.016l-0.044,-0.015l-0.044,-0.014l-0.044,-0.014l-0.045,-0.014l-0.044,-0.013l-0.045,-0.012l-0.045,-0.012l-0.046,-0.011l-0.045,-0.011l-0.046,-0.011l-0.046,-0.009l-0.046,-0.009l-0.046,-0.009l-0.047,-0.008l-0.047,-0.007l-0.047,-0.007l-0.047,-0.007l-0.048,-0.005l-0.047,-0.006l-0.048,-0.004l-0.048,-0.004l-0.049,-0.003l-0.048,-0.003l-0.049,-0.002l-0.049,-0.002l-0.049,-0.001l-0.049,0l-0.049,0l-0.05,0.001l-0.048,0.002l-0.049,0.002l-0.049,0.003l-0.048,0.003l-0.048,0.004l-0.048,0.004l-0.048,0.006l-0.047,0.005l-0.047,0.007l-0.047,0.007l-0.047,0.007l-0.047,0.008l-0.046,0.009l-0.046,0.009l-0.046,0.01l-0.046,0.01l-0.046,0.011l-0.045,0.011l-0.045,0.012l-0.045,0.012l-0.045,0.013l-0.044,0.014l-0.044,0.014l-0.044,0.014l-0.044,0.015l-0.044,0.016l-0.043,0.016l-0.043,0.017l-0.043,0.017l-0.042,0.018l-0.042,0.018l-0.042,0.018l-0.042,0.02l-0.041,0.019l-0.041,0.02l-0.041,0.021l-0.041,0.021l-0.04,0.022l-0.04,0.022l-0.04,0.022l-0.039,0.023l-0.04,0.024l-0.038,0.024l-0.039,0.024l-0.038,0.025l-0.038,0.025l-0.038,0.026l-0.037,0.026l-0.037,0.027l-0.037,0.027l-0.036,0.027l-0.036,0.028l-0.036,0.029l-0.035,0.029l-0.035,0.029l-0.035,0.029l-0.034,0.03l-0.034,0.031l-0.033,0.031l-0.033,0.031l-0.033,0.031l-0.033,0.032l-0.031,0.033l-0.032,0.032l-0.031,0.034l-0.031,0.033l-0.03,0.034l-0.03,0.034l-0.03,0.035l-0.029,0.035l-0.029,0.035l-0.028,0.036l-0.028,0.036l-0.028,0.036l-0.027,0.037l-0.027,0.036l-0.026,0.038l-0.026,0.038l-0.025,0.037l-0.025,0.039l-0.024,0.038l-0.024,0.039l-0.023,0.039l-0.024,0.04l-0.022,0.039l-0.022,0.04l-0.022,0.041l-0.021,0.041l-0.02,0.04l-0.021,0.041l-0.019,0.042l-0.019,0.042l-0.019,0.042l-0.018,0.042l-0.018,0.042l-0.017,0.043l-0.017,0.043l-0.016,0.043l-0.015,0.044l-0.016,0.043l-0.014,0.045l-0.014,0.044l-0.014,0.044l-0.013,0.045l-0.012,0.045l-0.012,0.044l-0.011,0.046l-0.011,0.046l-0.01,0.045l-0.01,0.046l-0.009,0.047l-0.009,0.046l-0.008,0.047l-0.007,0.046l-0.007,0.048l-0.007,0.047l-0.005,0.047l-0.005,0.048l-0.005,0.048l-0.004,0.048l-0.003,0.048l-0.003,0.049l-0.002,0.048l-0.002,0.049l-0.001,0.05l0,0.049l0,0.049l0.001,0.049l0.002,0.049l0.002,0.049l0.003,0.048l0.003,0.049l0.004,0.048l0.004,0.047l0.006,0.048l0.005,0.048l0.007,0.047l0.007,0.047l0.007,0.047l0.008,0.046l0.009,0.047l0.009,0.046l0.01,0.046l0.01,0.046l0.011,0.046l0.011,0.045l0.012,0.045l0.012,0.045l0.013,0.044l0.014,0.045l0.014,0.044l0.014,0.044l0.016,0.044l0.015,0.043l0.016,0.043l0.017,0.043l0.017,0.043l0.018,0.042l0.018,0.043l0.019,0.042l0.019,0.041l0.019,0.042l0.021,0.041l0.02,0.041l0.021,0.04l0.022,0.041l0.022,0.04l0.023,0.04l0.022,0.039l0.024,0.039l0.024,0.039l0.024,0.039l0.025,0.038l0.025,0.038l0.026,0.038l0.027,0.037l0.026,0.037l0.027,0.036l0.028,0.037l0.028,0.036l0.028,0.035l0.029,0.036l0.029,0.035l0.03,0.034l0.03,0.035l0.03,0.033l0.031,0.034l0.031,0.033l0.032,0.033l0.031,0.032l0.033,0.032l0.033,0.032l0.033,0.031l0.033,0.031l0.034,0.03l0.035,0.03l0.034,0.03l0.035,0.029l0.035,0.029l0.036,0.028l0.036,0.028l0.036,0.028l0.037,0.027l0.037,0.026l0.037,0.026l0.038,0.026l0.038,0.026l0.038,0.024l0.039,0.025l0.038,0.024l0.04,0.023l0.039,0.023l0.04,0.023l0.04,0.022l0.04,0.021l0.041,0.022l0.041,0.02l0.041,0.02l0.041,0.02l0.042,0.019l0.042,0.019l0.042,0.018l0.043,0.018l0.042,0.017l0.043,0.016l0.044,0.017l0.043,0.015l0.044,0.015l0.044,0.015l0.044,0.014l0.044,0.013l0.045,0.013l0.045,0.013l0.045,0.012l0.045,0.011l0.046,0.011l0.046,0.01l0.046,0.01l0.046,0.009l0.046,0.009l0.047,0.008l0.047,0.007l0.047,0.007l0.047,0.006l0.048,0.006l0.047,0.005l0.048,0.005l0.048,0.004l0.048,0.003l0.049,0.003l0.049,0.002l0.049,0.002l0.049,0.001l0.049,0ZM46.297,71.539l-0.159,-0.002l-0.16,-0.006l-0.159,-0.009l-0.16,-0.013l-0.159,-0.017l-0.158,-0.021l-0.158,-0.025l-0.158,-0.028l-0.153,-0.032l-0.083,-0.018l-0.078,-0.019l-0.078,-0.019l-0.078,-0.02l-0.077,-0.022l-0.078,-0.022l-0.077,-0.023l-0.077,-0.025l-0.077,-0.025l-0.076,-0.026l-0.076,-0.027l-0.077,-0.028l-0.075,-0.029l-0.076,-0.03l-0.075,-0.031l-0.075,-0.032l-0.074,-0.032l-0.075,-0.034l-0.074,-0.035l-0.073,-0.036l-0.073,-0.036l-0.073,-0.038l-0.073,-0.038l-0.072,-0.04l-0.072,-0.04l-0.071,-0.042l-0.071,-0.042l-0.07,-0.043l-0.07,-0.045l-0.07,-0.045l-0.069,-0.046l-0.069,-0.047l-0.068,-0.048l-0.068,-0.049l-0.067,-0.05l-0.066,-0.051l-0.067,-0.052l-0.065,-0.053l-0.065,-0.053l-0.065,-0.055l-0.064,-0.055l-0.063,-0.057l-0.063,-0.057l-0.062,-0.059l-0.062,-0.059l-0.057,-0.057l-24.093,-24.092l-0.108,-0.109l-0.111,-0.118l-0.11,-0.119l-0.108,-0.122l-0.106,-0.124l-0.106,-0.126l-0.104,-0.129l-0.102,-0.13l-0.101,-0.133l-0.1,-0.134l-0.099,-0.136l-0.097,-0.139l-0.095,-0.14l-0.095,-0.141l-0.093,-0.144l-0.092,-0.145l-0.09,-0.147l-0.089,-0.148l-0.088,-0.149l-0.086,-0.151l-0.085,-0.153l-0.084,-0.154l-0.082,-0.154l-0.081,-0.156l-0.079,-0.158l-0.078,-0.158l-0.076,-0.159l-0.075,-0.16l-0.073,-0.161l-0.072,-0.162l-0.07,-0.163l-0.069,-0.163l-0.067,-0.165l-0.065,-0.164l-0.064,-0.165l-0.062,-0.166l-0.061,-0.166l-0.058,-0.167l-0.057,-0.167l-0.055,-0.167l-0.053,-0.168l-0.052,-0.167l-0.049,-0.168l-0.048,-0.168l-0.046,-0.168l-0.044,-0.168l-0.041,-0.167l-0.04,-0.168l-0.038,-0.168l-0.035,-0.167l-0.034,-0.167l-0.031,-0.167l-0.029,-0.166l-0.027,-0.167l-0.024,-0.165l-0.023,-0.165l-0.019,-0.165l-0.018,-0.165l-0.015,-0.163l-0.012,-0.163l-0.009,-0.163l-0.008,-0.162l-0.004,-0.162l-0.001,-0.153l0,-15.56l0,-0.081l0.002,-0.085l0.003,-0.085l0.004,-0.085l0.004,-0.085l0.006,-0.085l0.007,-0.084l0.008,-0.084l0.01,-0.084l0.01,-0.083l0.011,-0.083l0.012,-0.083l0.013,-0.082l0.015,-0.083l0.015,-0.082l0.016,-0.081l0.017,-0.081l0.019,-0.081l0.019,-0.081l0.02,-0.08l0.021,-0.079l0.022,-0.08l0.023,-0.079l0.024,-0.078l0.025,-0.078l0.026,-0.078l0.027,-0.077l0.028,-0.077l0.028,-0.076l0.03,-0.076l0.03,-0.076l0.032,-0.075l0.032,-0.074l0.033,-0.074l0.034,-0.074l0.035,-0.073l0.035,-0.073l0.037,-0.072l0.037,-0.071l0.038,-0.071l0.039,-0.071l0.04,-0.07l0.041,-0.069l0.041,-0.069l0.042,-0.068l0.046,-0.072l0.086,-0.13l0.091,-0.132l0.094,-0.129l0.098,-0.127l0.1,-0.125l0.104,-0.122l0.106,-0.119l0.108,-0.117l0.112,-0.114l0.114,-0.112l0.117,-0.108l0.12,-0.107l0.121,-0.103l0.125,-0.1l0.127,-0.098l0.129,-0.094l0.132,-0.091l0.13,-0.086l0.072,-0.046l0.068,-0.042l0.069,-0.041l0.069,-0.041l0.07,-0.04l0.071,-0.039l0.071,-0.038l0.071,-0.037l0.072,-0.037l0.073,-0.035l0.073,-0.035l0.074,-0.034l0.074,-0.033l0.074,-0.032l0.075,-0.032l0.076,-0.03l0.076,-0.03l0.076,-0.028l0.077,-0.028l0.077,-0.027l0.078,-0.026l0.078,-0.025l0.078,-0.024l0.079,-0.023l0.08,-0.022l0.079,-0.021l0.08,-0.02l0.081,-0.019l0.081,-0.019l0.081,-0.017l0.081,-0.016l0.082,-0.015l0.082,-0.015l0.083,-0.013l0.083,-0.012l0.083,-0.011l0.083,-0.01l0.084,-0.01l0.084,-0.008l0.084,-0.007l0.085,-0.006l0.085,-0.004l0.085,-0.004l0.085,-0.003l0.085,-0.002l0.081,0l15.56,0l0.153,0.001l0.162,0.005l0.162,0.007l0.162,0.009l0.164,0.012l0.163,0.015l0.165,0.018l0.164,0.019l0.166,0.023l0.165,0.024l0.166,0.027l0.167,0.029l0.167,0.031l0.167,0.034l0.167,0.035l0.168,0.038l0.167,0.04l0.168,0.041l0.168,0.044l0.168,0.046l0.168,0.048l0.167,0.049l0.168,0.052l0.167,0.053l0.168,0.055l0.167,0.057l0.166,0.058l0.166,0.061l0.166,0.062l0.165,0.064l0.165,0.065l0.164,0.067l0.164,0.069l0.162,0.07l0.162,0.072l0.161,0.073l0.161,0.075l0.159,0.076l0.158,0.078l0.157,0.079l0.156,0.081l0.155,0.082l0.154,0.084l0.152,0.085l0.152,0.086l0.149,0.088l0.148,0.089l0.147,0.091l0.145,0.092l0.144,0.093l0.141,0.094l0.14,0.096l0.139,0.097l0.136,0.099l0.135,0.1l0.132,0.101l0.131,0.102l0.128,0.104l0.126,0.106l0.124,0.106l0.122,0.108l0.12,0.11l0.117,0.111l0.11,0.108l24.092,24.092l0.058,0.058l0.059,0.061l0.058,0.063l0.057,0.062l0.057,0.064l0.056,0.064l0.054,0.064l0.054,0.065l0.052,0.066l0.052,0.066l0.051,0.067l0.05,0.067l0.049,0.068l0.048,0.068l0.047,0.069l0.046,0.069l0.045,0.069l0.045,0.07l0.043,0.071l0.042,0.071l0.042,0.071l0.04,0.072l0.039,0.072l0.039,0.072l0.038,0.073l0.036,0.074l0.036,0.073l0.035,0.074l0.033,0.074l0.033,0.075l0.032,0.075l0.031,0.075l0.03,0.075l0.029,0.076l0.028,0.076l0.027,0.077l0.026,0.076l0.025,0.077l0.024,0.077l0.023,0.077l0.023,0.077l0.021,0.078l0.02,0.078l0.02,0.078l0.018,0.078l0.019,0.083l0.031,0.152l0.028,0.158l0.025,0.158l0.021,0.159l0.017,0.159l0.013,0.159l0.01,0.16l0.005,0.159l0.002,0.16l-0.002,0.16l-0.005,0.159l-0.01,0.16l-0.013,0.159l-0.017,0.159l-0.021,0.158l-0.025,0.158l-0.028,0.158l-0.031,0.153l-0.019,0.083l-0.018,0.078l-0.02,0.078l-0.02,0.078l-0.021,0.077l-0.023,0.078l-0.023,0.077l-0.024,0.077l-0.025,0.077l-0.026,0.076l-0.027,0.077l-0.028,0.075l-0.029,0.076l-0.03,0.076l-0.031,0.075l-0.032,0.075l-0.033,0.074l-0.033,0.075l-0.035,0.074l-0.036,0.073l-0.036,0.073l-0.038,0.073l-0.039,0.073l-0.039,0.072l-0.04,0.071l-0.042,0.072l-0.042,0.071l-0.043,0.07l-0.045,0.07l-0.045,0.07l-0.046,0.069l-0.047,0.069l-0.048,0.068l-0.049,0.068l-0.05,0.067l-0.051,0.067l-0.052,0.066l-0.052,0.065l-0.054,0.065l-0.054,0.065l-0.056,0.064l-0.057,0.063l-0.057,0.063l-0.058,0.062l-0.059,0.062l-0.058,0.058l-18.591,18.589l-0.058,0.057l-0.061,0.059l-0.062,0.059l-0.063,0.057l-0.063,0.057l-0.064,0.055l-0.065,0.055l-0.065,0.053l-0.066,0.053l-0.066,0.052l-0.066,0.051l-0.068,0.05l-0.067,0.049l-0.068,0.048l-0.069,0.047l-0.069,0.046l-0.07,0.045l-0.07,0.045l-0.071,0.043l-0.07,0.042l-0.072,0.042l-0.072,0.04l-0.072,0.04l-0.072,0.038l-0.073,0.038l-0.073,0.036l-0.074,0.036l-0.074,0.035l-0.074,0.034l-0.075,0.032l-0.074,0.032l-0.075,0.031l-0.076,0.03l-0.076,0.029l-0.076,0.028l-0.076,0.027l-0.076,0.026l-0.077,0.025l-0.077,0.025l-0.078,0.023l-0.077,0.022l-0.078,0.022l-0.078,0.02l-0.078,0.019l-0.078,0.019l-0.082,0.018l-0.153,0.032l-0.158,0.028l-0.158,0.025l-0.159,0.021l-0.159,0.017l-0.159,0.013l-0.159,0.009l-0.16,0.006l-0.16,0.002Z" style="fill:#3f3f3f;"/></svg>