<?xml version="1.0" standalone="no"?><!DOCTYPE svg PUBLIC "-//W3C//DTD SVG 1.1//EN" "http://www.w3.org/Graphics/SVG/1.1/DTD/svg11.dtd"><svg width="100%" height="100%" viewBox="0 0 842 596" version="1.1" xmlns="http://www.w3.org/2000/svg" xmlns:xlink="http://www.w3.org/1999/xlink" xml:space="preserve" style="fill-rule:evenodd;clip-rule:evenodd;stroke-linecap:round;stroke-linejoin:round;stroke-miterlimit:10;"><g id="Ebene 1"><g><text x="145.201px" y="481.858px" style="font-family:Open Sans;font-size:20px;font-weight:700;fill:#3f3f3f;">T</text><text x="156.887px" y="481.858px" style="font-family:Open Sans;font-size:20px;font-weight:700;fill:#3f3f3f;">op</text></g><path d="M178.066,155.903l-0.165,-0.003l-0.164,-0.021l-0.161,-0.038l-0.155,-0.056l-0.149,-0.072l-0.14,-0.088l-0.13,-0.102l-0.117,-0.116l-12.712,-13.925l-1.153,-1.154l1.243,-1.232l0.146,-0.148l0.145,-0.151l0.142,-0.152l0.141,-0.153l0.139,-0.156l0.137,-0.157l0.135,-0.159l0.134,-0.16l0.131,-0.163l0.129,-0.163l0.128,-0.166l0.125,-0.166l0.124,-0.169l0.121,-0.17l0.12,-0.171l0.117,-0.173l0.115,-0.175l0.113,-0.176l0.111,-0.177l0.109,-0.179l0.107,-0.181l0.105,-0.181l0.102,-0.184l0.101,-0.184l0.098,-0.186l0.096,-0.187l0.093,-0.188l0.092,-0.19l0.089,-0.191l0.086,-0.193l0.085,-0.193l0.082,-0.195l0.08,-0.196l0.077,-0.197l0.075,-0.198l0.073,-0.2l0.07,-0.201l0.068,-0.201l0.065,-0.203l0.063,-0.204l0.061,-0.205l0.058,-0.206l0.055,-0.208l0.053,-0.208l0.05,-0.209l0.048,-0.21l0.045,-0.211l0.043,-0.215l0.02,-0.104l0.02,-0.107l0.019,-0.107l0.018,-0.107l0.018,-0.107l0.017,-0.108l0.016,-0.108l0.016,-0.108l0.015,-0.108l0.014,-0.108l0.014,-0.109l0.013,-0.109l0.012,-0.109l0.012,-0.109l0.011,-0.11l0.01,-0.11l0.009,-0.11l0.009,-0.11l0.008,-0.11l0.008,-0.111l0.007,-0.111l0.006,-0.111l0.005,-0.111l0.005,-0.111l0.004,-0.112l0.003,-0.112l0.002,-0.112l0.002,-0.112l0.001,-0.112l0.001,-0.113l-0.001,-0.111l-0.001,-0.111l-0.002,-0.111l-0.002,-0.11l-0.003,-0.111l-0.004,-0.11l-0.005,-0.11l-0.005,-0.11l-0.006,-0.11l-0.006,-0.109l-0.008,-0.109l-0.007,-0.109l-0.009,-0.109l-0.009,-0.107l-0.021,-0.219l-0.023,-0.216l-0.026,-0.215l-0.029,-0.214l-0.031,-0.213l-0.034,-0.213l-0.036,-0.212l-0.039,-0.21l-0.042,-0.21l-0.044,-0.209l-0.047,-0.208l-0.049,-0.207l-0.051,-0.206l-0.055,-0.205l-0.056,-0.203l-0.059,-0.203l-0.061,-0.202l-0.064,-0.201l-0.066,-0.2l-0.069,-0.198l-0.071,-0.198l-0.073,-0.196l-0.076,-0.195l-0.078,-0.194l-0.08,-0.193l-0.082,-0.192l-0.085,-0.191l-0.087,-0.189l-0.089,-0.188l-0.092,-0.187l-0.093,-0.185l-0.096,-0.184l-0.098,-0.183l-0.1,-0.182l-0.102,-0.18l-0.105,-0.179l-0.106,-0.178l-0.109,-0.176l-0.11,-0.175l-0.113,-0.173l-0.114,-0.172l-0.117,-0.17l-0.119,-0.169l-0.12,-0.168l-0.123,-0.166l-0.124,-0.164l-0.127,-0.163l-0.128,-0.161l-0.13,-0.16l-0.132,-0.158l-0.134,-0.157l-0.136,-0.155l-0.138,-0.153l-0.139,-0.151l-0.142,-0.15l-0.142,-0.149l-0.145,-0.146l-0.147,-0.145l-0.148,-0.143l-0.15,-0.141l-0.151,-0.139l-0.154,-0.138l-0.154,-0.136l-0.157,-0.134l-0.158,-0.132l-0.16,-0.13l-0.161,-0.128l-0.163,-0.127l-0.165,-0.124l-0.165,-0.123l-0.168,-0.12l-0.169,-0.119l-0.17,-0.117l-0.172,-0.114l-0.173,-0.113l-0.175,-0.111l-0.176,-0.108l-0.178,-0.106l-0.179,-0.105l-0.18,-0.102l-0.182,-0.1l-0.183,-0.098l-0.184,-0.096l-0.185,-0.093l-0.187,-0.092l-0.188,-0.089l-0.19,-0.087l-0.19,-0.085l-0.192,-0.082l-0.193,-0.08l-0.194,-0.078l-0.195,-0.076l-0.196,-0.073l-0.198,-0.071l-0.199,-0.069l-0.199,-0.066l-0.201,-0.064l-0.202,-0.061l-0.203,-0.059l-0.204,-0.057l-0.205,-0.054l-0.206,-0.051l-0.206,-0.049l-0.208,-0.047l-0.209,-0.044l-0.21,-0.042l-0.211,-0.039l-0.211,-0.036l-0.213,-0.034l-0.213,-0.031l-0.214,-0.029l-0.215,-0.026l-0.216,-0.023l-0.22,-0.021l-0.106,-0.009l-0.109,-0.009l-0.109,-0.008l-0.109,-0.007l-0.11,-0.007l-0.109,-0.005l-0.11,-0.006l-0.11,-0.004l-0.11,-0.004l-0.111,-0.003l-0.11,-0.003l-0.111,-0.001l-0.111,-0.001l-0.111,-0.001l-0.112,0.001l-0.111,0.001l-0.11,0.001l-0.111,0.003l-0.11,0.003l-0.111,0.004l-0.11,0.004l-0.109,0.006l-0.11,0.005l-0.11,0.007l-0.109,0.007l-0.109,0.008l-0.109,0.009l-0.106,0.009l-0.219,0.021l-0.216,0.023l-0.215,0.026l-0.214,0.029l-0.214,0.031l-0.212,0.034l-0.212,0.036l-0.211,0.039l-0.209,0.042l-0.209,0.044l-0.208,0.046l-0.207,0.05l-0.206,0.051l-0.205,0.054l-0.204,0.057l-0.202,0.059l-0.202,0.061l-0.201,0.064l-0.2,0.066l-0.198,0.069l-0.198,0.071l-0.196,0.073l-0.195,0.076l-0.194,0.078l-0.193,0.08l-0.192,0.082l-0.191,0.085l-0.189,0.087l-0.188,0.089l-0.187,0.092l-0.185,0.093l-0.184,0.096l-0.183,0.098l-0.182,0.1l-0.18,0.102l-0.179,0.105l-0.178,0.106l-0.176,0.108l-0.175,0.111l-0.173,0.113l-0.172,0.114l-0.17,0.117l-0.169,0.118l-0.168,0.121l-0.165,0.123l-0.165,0.124l-0.163,0.127l-0.161,0.128l-0.16,0.13l-0.158,0.132l-0.156,0.134l-0.155,0.136l-0.154,0.138l-0.151,0.139l-0.15,0.141l-0.148,0.143l-0.147,0.145l-0.144,0.146l-0.143,0.149l-0.142,0.15l-0.139,0.151l-0.138,0.153l-0.135,0.155l-0.134,0.157l-0.132,0.158l-0.131,0.16l-0.128,0.161l-0.126,0.163l-0.125,0.164l-0.123,0.166l-0.12,0.168l-0.119,0.169l-0.116,0.17l-0.115,0.172l-0.113,0.173l-0.11,0.175l-0.109,0.176l-0.106,0.178l-0.104,0.179l-0.103,0.18l-0.1,0.182l-0.098,0.183l-0.095,0.184l-0.094,0.185l-0.091,0.187l-0.09,0.188l-0.087,0.189l-0.084,0.191l-0.083,0.192l-0.08,0.193l-0.078,0.194l-0.076,0.195l-0.073,0.196l-0.071,0.198l-0.068,0.198l-0.067,0.2l-0.063,0.201l-0.062,0.202l-0.059,0.203l-0.056,0.204l-0.054,0.204l-0.052,0.206l-0.049,0.207l-0.047,0.208l-0.044,0.209l-0.041,0.21l-0.039,0.21l-0.037,0.212l-0.034,0.213l-0.031,0.213l-0.028,0.214l-0.026,0.215l-0.024,0.216l-0.021,0.219l-0.009,0.107l-0.008,0.109l-0.008,0.109l-0.008,0.109l-0.006,0.109l-0.006,0.11l-0.005,0.11l-0.005,0.11l-0.004,0.11l-0.003,0.111l-0.002,0.11l-0.002,0.111l-0.001,0.111l0,0.111l0,0.111l0.001,0.111l0.002,0.111l0.002,0.111l0.003,0.11l0.004,0.11l0.005,0.11l0.005,0.11l0.006,0.11l0.006,0.109l0.008,0.11l0.008,0.109l0.008,0.109l0.009,0.106l0.021,0.219l0.024,0.216l0.026,0.215l0.028,0.214l0.031,0.214l0.034,0.212l0.037,0.212l0.039,0.21l0.041,0.21l0.044,0.209l0.047,0.208l0.049,0.207l0.052,0.206l0.054,0.204l0.056,0.204l0.059,0.203l0.062,0.202l0.063,0.201l0.067,0.2l0.068,0.198l0.071,0.198l0.073,0.196l0.076,0.195l0.078,0.194l0.08,0.193l0.083,0.192l0.084,0.19l0.087,0.19l0.09,0.188l0.091,0.186l0.094,0.186l0.095,0.184l0.098,0.183l0.1,0.182l0.103,0.18l0.104,0.179l0.106,0.177l0.109,0.177l0.11,0.174l0.113,0.174l0.115,0.172l0.116,0.17l0.119,0.169l0.12,0.167l0.123,0.166l0.124,0.165l0.127,0.163l0.128,0.161l0.13,0.16l0.133,0.158l0.134,0.156l0.135,0.155l0.138,0.153l0.139,0.152l0.142,0.15l0.143,0.148l0.144,0.147l0.147,0.144l0.148,0.143l0.15,0.141l0.151,0.14l0.154,0.137l0.155,0.136l0.156,0.134l0.158,0.132l0.16,0.131l0.161,0.128l0.163,0.126l0.164,0.125l0.166,0.122l0.168,0.121l0.169,0.119l0.17,0.116l0.172,0.115l0.173,0.112l0.175,0.111l0.176,0.108l0.178,0.107l0.179,0.104l0.18,0.102l0.182,0.101l0.183,0.097l0.184,0.096l0.185,0.094l0.187,0.091l0.188,0.089l0.189,0.087l0.191,0.085l0.192,0.083l0.193,0.08l0.194,0.078l0.195,0.075l0.196,0.074l0.198,0.071l0.198,0.068l0.2,0.066l0.201,0.064l0.202,0.062l0.202,0.059l0.204,0.056l0.205,0.054l0.206,0.052l0.207,0.049l0.208,0.047l0.209,0.044l0.209,0.041l0.211,0.039l0.212,0.037l0.212,0.033l0.214,0.032l0.214,0.028l0.215,0.026l0.216,0.024l0.219,0.02l0.106,0.009l0.109,0.009l0.109,0.008l0.109,0.007l0.11,0.007l0.11,0.006l0.109,0.005l0.11,0.005l0.111,0.003l0.11,0.004l0.111,0.002l0.111,0.002l0.11,0.001l0.111,0l0.12,0l0.12,-0.001l0.119,-0.002l0.119,-0.003l0.119,-0.004l0.118,-0.004l0.119,-0.006l0.118,-0.006l0.118,-0.006l0.117,-0.008l0.118,-0.009l0.117,-0.009l0.117,-0.01l0.117,-0.01l0.116,-0.012l0.116,-0.012l0.116,-0.013l0.116,-0.014l0.116,-0.015l0.115,-0.015l0.115,-0.016l0.115,-0.017l0.114,-0.018l0.114,-0.018l0.114,-0.019l0.114,-0.02l0.114,-0.021l0.113,-0.021l0.113,-0.022l0.112,-0.023l0.113,-0.024l0.112,-0.024l0.112,-0.025l0.111,-0.026l0.112,-0.027l0.111,-0.027l0.11,-0.028l0.111,-0.028l0.11,-0.03l0.11,-0.03l0.109,-0.031l0.11,-0.031l0.109,-0.032l0.108,-0.033l0.108,-0.034l0.109,-0.034l0.107,-0.035l0.108,-0.036l0.107,-0.036l0.106,-0.037l0.107,-0.038l0.106,-0.039l0.106,-0.039l0.105,-0.039l0.105,-0.041l0.105,-0.041l0.105,-0.042l0.104,-0.042l0.104,-0.043l0.103,-0.044l0.103,-0.045l0.103,-0.045l0.102,-0.046l0.107,-0.048l0.154,-0.06l0.159,-0.043l0.164,-0.026l0.165,-0.008l0.165,0.01l0.163,0.028l0.158,0.045l0.154,0.063l0.145,0.078l0.136,0.094l0.125,0.107l0.113,0.121l0.099,0.132l0.085,0.142l0.068,0.151l0.052,0.157l0.034,0.161l0.017,0.165l-0.001,0.165l-0.019,0.164l-0.037,0.161l-0.054,0.156l-0.07,0.15l-0.086,0.141l-0.101,0.131l-0.114,0.119l-0.127,0.106l-0.137,0.092l-0.147,0.076l-0.116,0.053l-0.12,0.054l-0.122,0.053l-0.121,0.053l-0.122,0.051l-0.122,0.051l-0.123,0.05l-0.124,0.049l-0.123,0.049l-0.124,0.048l-0.125,0.047l-0.124,0.046l-0.126,0.045l-0.125,0.044l-0.126,0.044l-0.126,0.043l-0.127,0.042l-0.127,0.042l-0.127,0.04l-0.128,0.04l-0.128,0.038l-0.129,0.038l-0.129,0.038l-0.129,0.036l-0.13,0.035l-0.129,0.035l-0.131,0.034l-0.13,0.033l-0.131,0.032l-0.131,0.031l-0.132,0.031l-0.132,0.029l-0.132,0.029l-0.133,0.028l-0.132,0.027l-0.133,0.026l-0.134,0.025l-0.134,0.024l-0.134,0.024l-0.134,0.022l-0.135,0.022l-0.135,0.021l-0.135,0.02l-0.135,0.019l-0.136,0.018l-0.136,0.017l-0.137,0.016l-0.136,0.016l-0.137,0.014l-0.137,0.014l-0.138,0.012l-0.137,0.012l-0.138,0.011l-0.138,0.01l-0.139,0.009l-0.138,0.008l-0.139,0.007l-0.139,0.006l-0.139,0.005l-0.14,0.005l-0.14,0.003l-0.14,0.002l-0.14,0.002l-0.14,0l-0.131,0l-0.13,-0.001l-0.13,-0.003l-0.13,-0.002l-0.13,-0.004l-0.13,-0.005l-0.129,-0.005l-0.129,-0.006l-0.129,-0.007l-0.129,-0.008l-0.128,-0.008l-0.128,-0.01l-0.129,-0.01l-0.13,-0.011l-0.253,-0.024l-0.254,-0.027l-0.253,-0.031l-0.252,-0.034l-0.252,-0.037l-0.25,-0.039l-0.25,-0.043l-0.248,-0.046l-0.247,-0.049l-0.246,-0.052l-0.245,-0.055l-0.244,-0.058l-0.243,-0.061l-0.242,-0.064l-0.24,-0.067l-0.24,-0.069l-0.238,-0.073l-0.237,-0.075l-0.235,-0.078l-0.234,-0.081l-0.233,-0.083l-0.232,-0.087l-0.23,-0.089l-0.229,-0.092l-0.227,-0.094l-0.226,-0.098l-0.225,-0.1l-0.223,-0.102l-0.222,-0.105l-0.22,-0.108l-0.219,-0.11l-0.217,-0.113l-0.215,-0.116l-0.214,-0.118l-0.213,-0.12l-0.21,-0.123l-0.21,-0.125l-0.207,-0.128l-0.206,-0.13l-0.204,-0.133l-0.202,-0.135l-0.201,-0.137l-0.199,-0.14l-0.197,-0.142l-0.195,-0.144l-0.194,-0.147l-0.192,-0.148l-0.189,-0.151l-0.188,-0.154l-0.187,-0.155l-0.184,-0.158l-0.182,-0.16l-0.18,-0.162l-0.179,-0.164l-0.176,-0.166l-0.174,-0.168l-0.173,-0.17l-0.17,-0.173l-0.168,-0.174l-0.167,-0.176l-0.164,-0.179l-0.162,-0.18l-0.159,-0.182l-0.158,-0.185l-0.155,-0.186l-0.154,-0.188l-0.151,-0.19l-0.149,-0.191l-0.146,-0.194l-0.144,-0.195l-0.142,-0.197l-0.14,-0.199l-0.137,-0.201l-0.135,-0.202l-0.133,-0.204l-0.13,-0.206l-0.128,-0.208l-0.125,-0.209l-0.123,-0.211l-0.121,-0.212l-0.118,-0.214l-0.115,-0.216l-0.113,-0.217l-0.11,-0.218l-0.108,-0.22l-0.105,-0.222l-0.103,-0.223l-0.1,-0.225l-0.097,-0.226l-0.094,-0.227l-0.092,-0.229l-0.089,-0.23l-0.087,-0.232l-0.083,-0.233l-0.081,-0.234l-0.078,-0.236l-0.076,-0.236l-0.072,-0.239l-0.07,-0.239l-0.066,-0.24l-0.064,-0.242l-0.061,-0.243l-0.058,-0.244l-0.055,-0.245l-0.052,-0.246l-0.049,-0.247l-0.046,-0.249l-0.043,-0.249l-0.04,-0.25l-0.036,-0.252l-0.034,-0.252l-0.031,-0.253l-0.027,-0.255l-0.024,-0.252l-0.011,-0.131l-0.011,-0.128l-0.009,-0.128l-0.008,-0.129l-0.008,-0.128l-0.007,-0.129l-0.006,-0.129l-0.006,-0.13l-0.004,-0.129l-0.004,-0.13l-0.003,-0.13l-0.002,-0.13l-0.001,-0.13l0,-0.131l0,-0.13l0.001,-0.131l0.002,-0.13l0.003,-0.13l0.004,-0.129l0.004,-0.13l0.006,-0.129l0.006,-0.129l0.007,-0.129l0.008,-0.129l0.008,-0.129l0.009,-0.128l0.011,-0.128l0.011,-0.13l0.024,-0.253l0.027,-0.254l0.031,-0.254l0.034,-0.252l0.036,-0.251l0.04,-0.251l0.043,-0.249l0.046,-0.249l0.049,-0.247l0.052,-0.246l0.055,-0.245l0.058,-0.244l0.061,-0.243l0.064,-0.242l0.066,-0.24l0.07,-0.239l0.072,-0.239l0.076,-0.236l0.078,-0.236l0.081,-0.234l0.083,-0.233l0.087,-0.232l0.089,-0.23l0.092,-0.229l0.094,-0.227l0.097,-0.226l0.1,-0.225l0.103,-0.223l0.105,-0.222l0.108,-0.22l0.11,-0.219l0.113,-0.217l0.115,-0.215l0.118,-0.214l0.121,-0.213l0.123,-0.21l0.125,-0.21l0.128,-0.207l0.13,-0.206l0.133,-0.204l0.135,-0.202l0.137,-0.201l0.14,-0.199l0.142,-0.197l0.144,-0.196l0.146,-0.193l0.149,-0.192l0.151,-0.19l0.153,-0.188l0.156,-0.186l0.158,-0.184l0.159,-0.182l0.162,-0.181l0.164,-0.178l0.167,-0.176l0.168,-0.175l0.17,-0.172l0.172,-0.17l0.175,-0.169l0.176,-0.166l0.179,-0.164l0.18,-0.162l0.182,-0.16l0.184,-0.157l0.186,-0.156l0.188,-0.153l0.19,-0.151l0.192,-0.149l0.194,-0.146l0.195,-0.145l0.197,-0.142l0.199,-0.139l0.201,-0.138l0.202,-0.135l0.204,-0.132l0.206,-0.131l0.207,-0.127l0.21,-0.126l0.21,-0.123l0.213,-0.12l0.214,-0.118l0.215,-0.115l0.217,-0.113l0.219,-0.111l0.22,-0.107l0.222,-0.105l0.223,-0.103l0.225,-0.1l0.226,-0.097l0.227,-0.095l0.229,-0.092l0.23,-0.089l0.232,-0.086l0.233,-0.084l0.234,-0.081l0.235,-0.078l0.237,-0.075l0.238,-0.073l0.24,-0.069l0.24,-0.067l0.242,-0.064l0.243,-0.06l0.244,-0.058l0.245,-0.055l0.246,-0.052l0.247,-0.049l0.248,-0.046l0.25,-0.043l0.25,-0.04l0.252,-0.037l0.252,-0.034l0.253,-0.03l0.254,-0.028l0.253,-0.024l0.13,-0.011l0.128,-0.01l0.129,-0.009l0.128,-0.009l0.129,-0.008l0.129,-0.007l0.129,-0.006l0.13,-0.005l0.129,-0.005l0.13,-0.003l0.13,-0.003l0.13,-0.002l0.13,-0.001l0.131,-0.001l0.13,0.001l0.13,0.001l0.13,0.002l0.13,0.003l0.13,0.003l0.13,0.005l0.129,0.005l0.129,0.006l0.129,0.007l0.129,0.008l0.128,0.009l0.129,0.009l0.128,0.01l0.13,0.011l0.253,0.024l0.254,0.028l0.253,0.03l0.253,0.034l0.251,0.037l0.251,0.04l0.249,0.043l0.248,0.046l0.248,0.049l0.246,0.052l0.245,0.055l0.244,0.058l0.243,0.06l0.242,0.064l0.24,0.067l0.239,0.069l0.238,0.073l0.237,0.075l0.236,0.078l0.234,0.081l0.233,0.084l0.231,0.086l0.231,0.089l0.229,0.092l0.227,0.095l0.226,0.097l0.225,0.1l0.223,0.103l0.222,0.105l0.22,0.107l0.218,0.111l0.218,0.113l0.215,0.115l0.214,0.118l0.212,0.12l0.211,0.123l0.209,0.126l0.208,0.127l0.206,0.131l0.204,0.132l0.202,0.135l0.201,0.138l0.199,0.139l0.197,0.142l0.195,0.145l0.194,0.146l0.192,0.149l0.19,0.151l0.188,0.153l0.186,0.156l0.184,0.157l0.182,0.16l0.18,0.162l0.179,0.164l0.176,0.166l0.175,0.169l0.172,0.17l0.17,0.172l0.169,0.175l0.166,0.176l0.164,0.178l0.162,0.181l0.159,0.182l0.158,0.184l0.156,0.186l0.153,0.188l0.151,0.19l0.149,0.192l0.146,0.193l0.145,0.196l0.142,0.197l0.139,0.199l0.138,0.201l0.135,0.202l0.132,0.204l0.13,0.206l0.128,0.207l0.126,0.21l0.122,0.21l0.121,0.213l0.118,0.214l0.115,0.215l0.113,0.217l0.11,0.219l0.108,0.22l0.105,0.222l0.103,0.223l0.1,0.225l0.097,0.226l0.095,0.227l0.091,0.229l0.09,0.23l0.086,0.232l0.084,0.233l0.081,0.234l0.078,0.236l0.075,0.236l0.072,0.238l0.07,0.24l0.067,0.24l0.063,0.242l0.061,0.243l0.058,0.244l0.055,0.245l0.052,0.246l0.049,0.247l0.046,0.249l0.043,0.249l0.04,0.251l0.037,0.251l0.033,0.252l0.031,0.254l0.027,0.254l0.024,0.253l0.012,0.13l0.01,0.128l0.009,0.128l0.009,0.129l0.007,0.129l0.007,0.129l0.006,0.129l0.006,0.129l0.004,0.13l0.004,0.129l0.003,0.13l0.002,0.13l0.001,0.131l0.001,0.13l-0.001,0.132l-0.001,0.132l-0.002,0.132l-0.003,0.132l-0.004,0.131l-0.005,0.131l-0.005,0.131l-0.006,0.131l-0.007,0.13l-0.008,0.13l-0.009,0.131l-0.01,0.129l-0.01,0.13l-0.011,0.13l-0.012,0.129l-0.013,0.129l-0.014,0.129l-0.014,0.128l-0.016,0.128l-0.016,0.129l-0.017,0.127l-0.017,0.128l-0.019,0.127l-0.019,0.127l-0.02,0.127l-0.021,0.127l-0.022,0.126l-0.022,0.126l-0.023,0.126l-0.024,0.128l-0.05,0.247l-0.053,0.249l-0.057,0.248l-0.059,0.247l-0.063,0.246l-0.065,0.244l-0.068,0.243l-0.072,0.242l-0.074,0.241l-0.077,0.239l-0.08,0.238l-0.083,0.237l-0.086,0.235l-0.088,0.234l-0.091,0.233l-0.095,0.231l-0.096,0.229l-0.1,0.229l-0.102,0.226l-0.105,0.226l-0.108,0.223l-0.11,0.223l-0.114,0.22l-0.115,0.219l-0.118,0.218l-0.121,0.216l-0.123,0.214l-0.126,0.212l-0.129,0.211l-0.131,0.209l-0.133,0.207l-0.136,0.206l-0.138,0.204l-0.141,0.202l-0.143,0.2l-0.145,0.198l-0.148,0.197l-0.15,0.195l-0.152,0.192l-0.155,0.191l-0.156,0.189l-0.16,0.187l-0.154,0.177l11.868,13.001l0.104,0.128l0.09,0.139l0.075,0.147l0.058,0.155l0.042,0.16l0.023,0.163l0.006,0.165l-0.012,0.165l-0.029,0.163l-0.048,0.158l-0.064,0.152l-0.08,0.145l-0.095,0.135l-0.109,0.124l-0.122,0.111l-0.133,0.098l-0.144,0.082l-0.151,0.067l-0.157,0.05l-0.162,0.032l-0.165,0.015Z" style="fill:#3f3f3f;"/><path d="M131.937,242.842l-0.191,-0.011l-0.189,-0.035l-0.183,-0.057l-0.174,-0.078l-0.164,-0.099l-0.151,-0.119l-0.136,-0.135l-0.118,-0.151l-0.099,-0.164l-0.079,-0.175l-0.057,-0.183l-0.034,-0.188l-0.012,-0.192l0,-4.31l0.001,-0.134l0.001,-0.137l0.002,-0.137l0.003,-0.136l0.004,-0.136l0.005,-0.136l0.005,-0.135l0.007,-0.136l0.007,-0.135l0.008,-0.135l0.009,-0.135l0.01,-0.135l0.011,-0.134l0.011,-0.134l0.012,-0.134l0.014,-0.134l0.014,-0.133l0.014,-0.133l0.016,-0.133l0.016,-0.133l0.018,-0.133l0.018,-0.132l0.019,-0.132l0.019,-0.132l0.021,-0.131l0.021,-0.131l0.022,-0.131l0.023,-0.131l0.024,-0.13l0.024,-0.13l0.026,-0.13l0.026,-0.13l0.027,-0.129l0.027,-0.129l0.029,-0.129l0.029,-0.128l0.03,-0.128l0.031,-0.128l0.031,-0.127l0.033,-0.128l0.033,-0.126l0.033,-0.127l0.035,-0.126l0.035,-0.126l0.037,-0.126l0.037,-0.128l0.075,-0.247l0.079,-0.248l0.082,-0.247l0.085,-0.246l0.088,-0.244l0.09,-0.243l0.094,-0.242l0.096,-0.24l0.099,-0.239l0.102,-0.237l0.105,-0.235l0.108,-0.234l0.11,-0.233l0.113,-0.231l0.116,-0.229l0.118,-0.228l0.121,-0.226l0.124,-0.224l0.126,-0.223l0.129,-0.221l0.132,-0.22l0.134,-0.217l0.136,-0.216l0.139,-0.214l0.142,-0.213l0.144,-0.21l0.147,-0.209l0.148,-0.207l0.152,-0.204l0.154,-0.203l0.156,-0.202l0.158,-0.199l0.161,-0.197l0.163,-0.195l0.165,-0.193l0.168,-0.192l0.17,-0.189l0.172,-0.187l0.174,-0.185l0.177,-0.183l0.178,-0.18l0.181,-0.179l0.183,-0.177l0.185,-0.174l0.187,-0.172l0.189,-0.17l0.191,-0.167l0.194,-0.166l0.195,-0.163l0.197,-0.161l0.199,-0.158l0.201,-0.156l0.203,-0.154l0.205,-0.151l0.207,-0.149l0.209,-0.147l0.21,-0.144l0.212,-0.141l0.215,-0.139l0.215,-0.137l0.218,-0.134l0.219,-0.131l0.221,-0.129l0.223,-0.127l0.225,-0.123l0.226,-0.121l0.228,-0.119l0.229,-0.116l0.231,-0.113l0.232,-0.11l0.234,-0.107l0.236,-0.105l0.237,-0.102l0.239,-0.099l0.24,-0.097l0.241,-0.093l0.243,-0.091l0.245,-0.088l0.245,-0.085l0.247,-0.081l0.249,-0.079l0.247,-0.076l0.128,-0.037l0.125,-0.036l0.126,-0.036l0.127,-0.034l0.126,-0.034l0.127,-0.033l0.127,-0.032l0.128,-0.032l0.127,-0.031l0.129,-0.03l0.128,-0.029l0.129,-0.028l0.129,-0.028l0.129,-0.027l0.13,-0.026l0.129,-0.025l0.131,-0.025l0.13,-0.024l0.13,-0.022l0.132,-0.023l0.131,-0.021l0.131,-0.02l0.132,-0.02l0.132,-0.019l0.132,-0.018l0.132,-0.017l0.133,-0.017l0.133,-0.015l0.133,-0.015l0.134,-0.014l0.134,-0.013l0.134,-0.013l0.134,-0.011l0.134,-0.011l0.135,-0.01l0.134,-0.009l0.135,-0.008l0.136,-0.007l0.135,-0.006l0.136,-0.006l0.136,-0.005l0.136,-0.004l0.136,-0.003l0.137,-0.002l0.136,-0.001l0.135,0l21.494,0l0.134,0l0.137,0.001l0.136,0.002l0.136,0.003l0.137,0.004l0.135,0.005l0.136,0.006l0.136,0.006l0.135,0.007l0.135,0.008l0.135,0.009l0.134,0.01l0.135,0.011l0.134,0.011l0.134,0.013l0.133,0.013l0.134,0.014l0.133,0.015l0.133,0.015l0.133,0.017l0.132,0.017l0.133,0.018l0.131,0.019l0.132,0.02l0.132,0.02l0.131,0.021l0.131,0.023l0.13,0.022l0.131,0.024l0.13,0.025l0.13,0.025l0.129,0.026l0.13,0.027l0.129,0.028l0.128,0.028l0.129,0.029l0.128,0.03l0.128,0.031l0.127,0.032l0.127,0.032l0.127,0.033l0.127,0.034l0.126,0.034l0.126,0.036l0.126,0.036l0.128,0.037l0.247,0.076l0.248,0.079l0.247,0.081l0.246,0.085l0.244,0.088l0.243,0.091l0.242,0.093l0.24,0.097l0.238,0.099l0.237,0.102l0.236,0.105l0.234,0.107l0.233,0.11l0.231,0.113l0.229,0.116l0.228,0.119l0.226,0.121l0.224,0.123l0.223,0.127l0.221,0.129l0.22,0.131l0.217,0.134l0.216,0.137l0.214,0.139l0.213,0.141l0.21,0.144l0.209,0.147l0.207,0.149l0.204,0.151l0.203,0.154l0.202,0.156l0.199,0.158l0.197,0.161l0.195,0.163l0.193,0.165l0.192,0.168l0.189,0.17l0.187,0.172l0.185,0.174l0.183,0.177l0.181,0.178l0.178,0.181l0.177,0.183l0.174,0.185l0.172,0.187l0.17,0.189l0.168,0.192l0.165,0.193l0.163,0.195l0.161,0.197l0.158,0.199l0.156,0.202l0.154,0.203l0.152,0.204l0.148,0.207l0.147,0.209l0.144,0.21l0.142,0.213l0.139,0.214l0.136,0.216l0.134,0.217l0.132,0.22l0.129,0.221l0.126,0.223l0.124,0.224l0.121,0.226l0.118,0.228l0.116,0.229l0.113,0.231l0.11,0.233l0.108,0.234l0.105,0.235l0.102,0.237l0.099,0.239l0.096,0.24l0.094,0.242l0.091,0.242l0.087,0.245l0.085,0.245l0.082,0.248l0.079,0.248l0.075,0.247l0.038,0.128l0.036,0.126l0.035,0.126l0.035,0.126l0.034,0.126l0.033,0.127l0.032,0.128l0.032,0.127l0.03,0.128l0.03,0.128l0.03,0.128l0.028,0.129l0.028,0.129l0.027,0.129l0.026,0.13l0.025,0.13l0.024,0.13l0.024,0.13l0.023,0.131l0.022,0.131l0.022,0.131l0.02,0.131l0.02,0.132l0.019,0.132l0.018,0.132l0.017,0.133l0.016,0.133l0.016,0.133l0.015,0.133l0.014,0.133l0.013,0.134l0.012,0.134l0.012,0.134l0.01,0.134l0.01,0.135l0.009,0.135l0.008,0.135l0.008,0.135l0.006,0.136l0.006,0.135l0.004,0.136l0.004,0.136l0.003,0.136l0.002,0.137l0.002,0.137l0,0.134l0,4.31l-0.011,0.192l-0.035,0.188l-0.057,0.183l-0.079,0.175l-0.099,0.164l-0.118,0.151l-0.135,0.135l-0.151,0.119l-0.164,0.099l-0.175,0.078l-0.183,0.057l-0.189,0.035l-0.191,0.011l-0.191,-0.011l-0.189,-0.035l-0.183,-0.057l-0.174,-0.078l-0.164,-0.099l-0.151,-0.119l-0.136,-0.135l-0.118,-0.151l-0.099,-0.164l-0.079,-0.175l-0.057,-0.183l-0.034,-0.188l-0.012,-0.192l0,-4.305l0,-0.119l-0.001,-0.117l-0.002,-0.116l-0.003,-0.116l-0.003,-0.116l-0.004,-0.116l-0.005,-0.116l-0.005,-0.115l-0.007,-0.116l-0.006,-0.115l-0.008,-0.114l-0.008,-0.115l-0.009,-0.114l-0.01,-0.114l-0.011,-0.114l-0.011,-0.114l-0.012,-0.114l-0.012,-0.113l-0.014,-0.113l-0.014,-0.113l-0.014,-0.113l-0.016,-0.112l-0.016,-0.112l-0.017,-0.112l-0.017,-0.112l-0.018,-0.111l-0.019,-0.112l-0.019,-0.111l-0.021,-0.11l-0.02,-0.111l-0.022,-0.11l-0.022,-0.11l-0.023,-0.11l-0.023,-0.11l-0.025,-0.109l-0.024,-0.109l-0.026,-0.109l-0.026,-0.108l-0.027,-0.109l-0.027,-0.108l-0.028,-0.107l-0.029,-0.108l-0.029,-0.107l-0.03,-0.107l-0.031,-0.107l-0.031,-0.104l-0.065,-0.214l-0.067,-0.211l-0.069,-0.21l-0.073,-0.209l-0.074,-0.207l-0.077,-0.206l-0.079,-0.206l-0.082,-0.203l-0.085,-0.203l-0.086,-0.201l-0.089,-0.201l-0.092,-0.198l-0.093,-0.198l-0.096,-0.196l-0.099,-0.195l-0.1,-0.194l-0.103,-0.192l-0.105,-0.191l-0.108,-0.189l-0.109,-0.188l-0.112,-0.186l-0.114,-0.185l-0.116,-0.184l-0.119,-0.182l-0.12,-0.181l-0.123,-0.179l-0.124,-0.177l-0.127,-0.176l-0.129,-0.174l-0.13,-0.173l-0.133,-0.171l-0.135,-0.17l-0.137,-0.168l-0.139,-0.166l-0.14,-0.164l-0.143,-0.163l-0.145,-0.161l-0.146,-0.159l-0.148,-0.157l-0.151,-0.156l-0.152,-0.154l-0.154,-0.152l-0.155,-0.15l-0.158,-0.149l-0.159,-0.146l-0.161,-0.145l-0.163,-0.142l-0.164,-0.141l-0.166,-0.139l-0.168,-0.137l-0.17,-0.134l-0.171,-0.133l-0.172,-0.131l-0.175,-0.129l-0.176,-0.126l-0.177,-0.125l-0.179,-0.123l-0.181,-0.12l-0.182,-0.118l-0.183,-0.116l-0.186,-0.114l-0.186,-0.112l-0.188,-0.11l-0.189,-0.107l-0.191,-0.105l-0.192,-0.103l-0.194,-0.101l-0.195,-0.098l-0.196,-0.096l-0.198,-0.094l-0.198,-0.091l-0.201,-0.089l-0.201,-0.087l-0.203,-0.084l-0.204,-0.082l-0.205,-0.079l-0.206,-0.077l-0.207,-0.075l-0.209,-0.072l-0.21,-0.069l-0.211,-0.068l-0.214,-0.065l-0.104,-0.03l-0.107,-0.031l-0.107,-0.03l-0.107,-0.029l-0.108,-0.029l-0.107,-0.028l-0.108,-0.028l-0.109,-0.026l-0.108,-0.027l-0.109,-0.025l-0.109,-0.025l-0.109,-0.024l-0.11,-0.023l-0.11,-0.023l-0.11,-0.022l-0.11,-0.022l-0.111,-0.021l-0.111,-0.02l-0.111,-0.019l-0.111,-0.019l-0.111,-0.018l-0.112,-0.018l-0.112,-0.016l-0.112,-0.017l-0.113,-0.015l-0.113,-0.015l-0.112,-0.014l-0.113,-0.013l-0.114,-0.012l-0.113,-0.012l-0.114,-0.012l-0.114,-0.01l-0.114,-0.01l-0.114,-0.009l-0.115,-0.008l-0.115,-0.008l-0.115,-0.007l-0.115,-0.006l-0.116,-0.006l-0.115,-0.004l-0.116,-0.004l-0.116,-0.004l-0.116,-0.002l-0.116,-0.002l-0.117,-0.001l-0.119,0l-21.484,0l-0.12,0l-0.116,0.001l-0.116,0.002l-0.117,0.002l-0.116,0.004l-0.116,0.004l-0.115,0.004l-0.116,0.006l-0.115,0.006l-0.115,0.007l-0.115,0.008l-0.114,0.008l-0.115,0.009l-0.114,0.01l-0.114,0.01l-0.113,0.012l-0.114,0.012l-0.113,0.012l-0.113,0.013l-0.113,0.014l-0.113,0.015l-0.112,0.015l-0.113,0.017l-0.111,0.016l-0.112,0.018l-0.112,0.018l-0.111,0.019l-0.111,0.019l-0.111,0.02l-0.11,0.021l-0.111,0.022l-0.11,0.022l-0.109,0.023l-0.11,0.023l-0.109,0.024l-0.109,0.025l-0.109,0.025l-0.109,0.027l-0.108,0.026l-0.108,0.028l-0.108,0.028l-0.107,0.029l-0.108,0.029l-0.107,0.03l-0.106,0.031l-0.104,0.03l-0.215,0.065l-0.211,0.068l-0.209,0.069l-0.209,0.072l-0.208,0.075l-0.206,0.077l-0.205,0.079l-0.204,0.082l-0.202,0.084l-0.202,0.087l-0.2,0.089l-0.199,0.091l-0.197,0.094l-0.197,0.096l-0.194,0.098l-0.194,0.101l-0.192,0.103l-0.191,0.105l-0.189,0.107l-0.188,0.11l-0.187,0.112l-0.185,0.114l-0.183,0.116l-0.183,0.118l-0.18,0.12l-0.179,0.123l-0.178,0.125l-0.176,0.126l-0.174,0.129l-0.173,0.131l-0.171,0.133l-0.169,0.134l-0.168,0.137l-0.166,0.139l-0.164,0.141l-0.163,0.142l-0.161,0.145l-0.159,0.146l-0.158,0.149l-0.155,0.15l-0.154,0.152l-0.152,0.154l-0.151,0.155l-0.148,0.158l-0.146,0.159l-0.145,0.161l-0.143,0.163l-0.14,0.164l-0.139,0.166l-0.137,0.168l-0.135,0.17l-0.133,0.171l-0.13,0.172l-0.129,0.175l-0.127,0.176l-0.124,0.177l-0.123,0.179l-0.12,0.181l-0.119,0.182l-0.116,0.183l-0.114,0.186l-0.111,0.186l-0.11,0.188l-0.107,0.189l-0.106,0.191l-0.102,0.192l-0.101,0.194l-0.098,0.195l-0.096,0.196l-0.094,0.198l-0.092,0.198l-0.089,0.201l-0.086,0.201l-0.084,0.203l-0.082,0.203l-0.08,0.206l-0.077,0.206l-0.074,0.207l-0.072,0.209l-0.07,0.21l-0.067,0.211l-0.065,0.214l-0.031,0.104l-0.03,0.107l-0.03,0.107l-0.03,0.107l-0.028,0.107l-0.029,0.108l-0.027,0.108l-0.027,0.109l-0.026,0.108l-0.025,0.109l-0.025,0.109l-0.024,0.109l-0.024,0.11l-0.023,0.11l-0.022,0.11l-0.021,0.11l-0.021,0.111l-0.02,0.11l-0.02,0.111l-0.019,0.112l-0.018,0.111l-0.017,0.112l-0.017,0.112l-0.016,0.112l-0.015,0.113l-0.015,0.112l-0.014,0.113l-0.013,0.113l-0.013,0.113l-0.012,0.114l-0.011,0.114l-0.01,0.114l-0.01,0.114l-0.009,0.114l-0.009,0.115l-0.007,0.115l-0.007,0.115l-0.006,0.115l-0.006,0.115l-0.005,0.116l-0.004,0.116l-0.003,0.116l-0.002,0.116l-0.002,0.116l-0.001,0.117l-0.001,0.119l0,4.305l-0.011,0.192l-0.035,0.188l-0.057,0.183l-0.079,0.175l-0.099,0.164l-0.118,0.151l-0.135,0.135l-0.151,0.119l-0.164,0.099l-0.175,0.078l-0.183,0.057l-0.189,0.035l-0.191,0.011Z" style="fill:#3f3f3f;"/><path d="M162.506,218.925l-0.198,-0.001l-0.197,-0.004l-0.198,-0.006l-0.196,-0.009l-0.196,-0.011l-0.195,-0.014l-0.195,-0.016l-0.194,-0.018l-0.193,-0.021l-0.193,-0.023l-0.191,-0.026l-0.192,-0.028l-0.19,-0.03l-0.19,-0.033l-0.188,-0.035l-0.188,-0.037l-0.188,-0.039l-0.186,-0.042l-0.186,-0.044l-0.184,-0.047l-0.184,-0.048l-0.183,-0.051l-0.182,-0.053l-0.181,-0.055l-0.18,-0.057l-0.179,-0.059l-0.178,-0.062l-0.177,-0.063l-0.177,-0.066l-0.175,-0.068l-0.174,-0.07l-0.173,-0.072l-0.172,-0.074l-0.17,-0.076l-0.17,-0.078l-0.169,-0.08l-0.167,-0.082l-0.166,-0.083l-0.166,-0.086l-0.163,-0.088l-0.163,-0.09l-0.162,-0.091l-0.16,-0.094l-0.159,-0.095l-0.158,-0.097l-0.156,-0.099l-0.155,-0.101l-0.154,-0.103l-0.153,-0.104l-0.151,-0.106l-0.15,-0.108l-0.149,-0.11l-0.147,-0.111l-0.145,-0.113l-0.145,-0.115l-0.143,-0.117l-0.141,-0.118l-0.14,-0.12l-0.139,-0.121l-0.137,-0.123l-0.136,-0.125l-0.134,-0.126l-0.132,-0.128l-0.131,-0.13l-0.13,-0.131l-0.128,-0.132l-0.126,-0.134l-0.125,-0.136l-0.123,-0.137l-0.121,-0.139l-0.12,-0.14l-0.118,-0.141l-0.117,-0.143l-0.115,-0.145l-0.113,-0.145l-0.111,-0.147l-0.11,-0.149l-0.108,-0.15l-0.106,-0.151l-0.105,-0.153l-0.102,-0.154l-0.101,-0.155l-0.099,-0.156l-0.097,-0.158l-0.096,-0.159l-0.093,-0.16l-0.092,-0.162l-0.089,-0.163l-0.088,-0.163l-0.086,-0.166l-0.084,-0.166l-0.082,-0.167l-0.08,-0.169l-0.078,-0.17l-0.076,-0.17l-0.074,-0.172l-0.071,-0.173l-0.07,-0.174l-0.068,-0.175l-0.066,-0.177l-0.064,-0.177l-0.061,-0.178l-0.059,-0.179l-0.058,-0.18l-0.055,-0.181l-0.053,-0.182l-0.05,-0.183l-0.049,-0.184l-0.046,-0.185l-0.044,-0.185l-0.042,-0.186l-0.04,-0.188l-0.037,-0.188l-0.035,-0.189l-0.032,-0.189l-0.031,-0.191l-0.028,-0.191l-0.025,-0.192l-0.024,-0.192l-0.02,-0.194l-0.019,-0.194l-0.016,-0.194l-0.014,-0.196l-0.011,-0.195l-0.008,-0.197l-0.007,-0.197l-0.003,-0.198l-0.002,-0.193l0,-6.471l0.002,-0.193l0.003,-0.198l0.007,-0.197l0.008,-0.196l0.011,-0.196l0.014,-0.195l0.016,-0.195l0.019,-0.194l0.02,-0.193l0.024,-0.193l0.025,-0.192l0.028,-0.191l0.031,-0.19l0.032,-0.19l0.035,-0.189l0.037,-0.188l0.04,-0.187l0.042,-0.186l0.044,-0.186l0.046,-0.184l0.049,-0.184l0.05,-0.183l0.053,-0.182l0.055,-0.181l0.058,-0.18l0.059,-0.179l0.061,-0.179l0.064,-0.177l0.066,-0.176l0.068,-0.175l0.07,-0.174l0.071,-0.173l0.074,-0.172l0.076,-0.171l0.078,-0.169l0.08,-0.169l0.082,-0.167l0.084,-0.167l0.086,-0.165l0.088,-0.164l0.089,-0.162l0.092,-0.162l0.094,-0.16l0.095,-0.159l0.097,-0.158l0.099,-0.156l0.101,-0.156l0.102,-0.153l0.105,-0.153l0.106,-0.151l0.108,-0.15l0.11,-0.149l0.111,-0.147l0.113,-0.146l0.115,-0.144l0.117,-0.143l0.118,-0.141l0.12,-0.14l0.121,-0.139l0.123,-0.137l0.125,-0.136l0.126,-0.134l0.128,-0.132l0.13,-0.131l0.131,-0.13l0.132,-0.128l0.134,-0.126l0.136,-0.125l0.137,-0.123l0.139,-0.121l0.14,-0.12l0.141,-0.118l0.143,-0.117l0.145,-0.115l0.145,-0.113l0.147,-0.111l0.149,-0.11l0.15,-0.108l0.151,-0.106l0.153,-0.105l0.153,-0.102l0.156,-0.101l0.156,-0.099l0.158,-0.097l0.159,-0.096l0.16,-0.093l0.162,-0.092l0.162,-0.089l0.164,-0.088l0.165,-0.086l0.167,-0.084l0.167,-0.082l0.169,-0.08l0.169,-0.078l0.171,-0.076l0.172,-0.074l0.173,-0.072l0.174,-0.069l0.175,-0.068l0.176,-0.066l0.178,-0.064l0.178,-0.061l0.179,-0.06l0.18,-0.057l0.181,-0.055l0.182,-0.053l0.183,-0.05l0.184,-0.049l0.184,-0.046l0.186,-0.044l0.186,-0.042l0.187,-0.04l0.189,-0.037l0.188,-0.035l0.19,-0.033l0.19,-0.03l0.192,-0.028l0.191,-0.025l0.193,-0.024l0.193,-0.021l0.194,-0.018l0.195,-0.016l0.195,-0.014l0.196,-0.011l0.196,-0.009l0.198,-0.006l0.197,-0.004l0.198,-0.001l0.198,0.001l0.198,0.004l0.197,0.006l0.197,0.009l0.196,0.011l0.195,0.014l0.194,0.016l0.194,0.018l0.194,0.021l0.192,0.024l0.192,0.025l0.191,0.028l0.191,0.03l0.189,0.033l0.189,0.035l0.188,0.037l0.187,0.04l0.187,0.042l0.185,0.044l0.185,0.046l0.184,0.049l0.183,0.05l0.182,0.053l0.181,0.055l0.18,0.057l0.179,0.06l0.178,0.061l0.177,0.064l0.176,0.066l0.175,0.068l0.174,0.069l0.173,0.072l0.172,0.074l0.171,0.076l0.17,0.078l0.168,0.08l0.168,0.082l0.166,0.084l0.165,0.086l0.164,0.088l0.163,0.089l0.161,0.092l0.161,0.093l0.159,0.096l0.157,0.097l0.157,0.099l0.155,0.101l0.154,0.102l0.153,0.105l0.151,0.106l0.15,0.108l0.148,0.11l0.147,0.111l0.146,0.113l0.144,0.115l0.143,0.117l0.142,0.118l0.14,0.12l0.138,0.121l0.138,0.123l0.135,0.125l0.134,0.126l0.133,0.128l0.131,0.13l0.129,0.131l0.128,0.132l0.127,0.134l0.124,0.136l0.123,0.137l0.122,0.139l0.12,0.14l0.118,0.141l0.116,0.143l0.115,0.144l0.113,0.146l0.112,0.147l0.11,0.149l0.108,0.15l0.106,0.151l0.104,0.152l0.103,0.154l0.101,0.156l0.099,0.156l0.097,0.158l0.095,0.159l0.094,0.16l0.091,0.162l0.09,0.162l0.088,0.164l0.085,0.165l0.084,0.167l0.082,0.167l0.08,0.169l0.078,0.169l0.076,0.171l0.074,0.172l0.072,0.173l0.07,0.174l0.068,0.175l0.065,0.176l0.064,0.177l0.062,0.179l0.059,0.179l0.057,0.18l0.055,0.181l0.053,0.182l0.051,0.183l0.048,0.184l0.047,0.184l0.044,0.186l0.042,0.186l0.039,0.187l0.037,0.188l0.035,0.189l0.033,0.19l0.03,0.19l0.028,0.191l0.026,0.192l0.023,0.193l0.021,0.193l0.019,0.194l0.016,0.195l0.013,0.195l0.011,0.196l0.009,0.196l0.006,0.197l0.004,0.198l0.001,0.193l0,6.471l-0.001,0.193l-0.004,0.198l-0.006,0.197l-0.009,0.197l-0.011,0.195l-0.013,0.196l-0.016,0.194l-0.019,0.194l-0.021,0.194l-0.023,0.192l-0.026,0.192l-0.028,0.191l-0.03,0.191l-0.033,0.189l-0.035,0.189l-0.037,0.188l-0.039,0.188l-0.042,0.186l-0.044,0.186l-0.047,0.184l-0.048,0.184l-0.051,0.183l-0.053,0.182l-0.055,0.181l-0.057,0.18l-0.059,0.179l-0.062,0.178l-0.064,0.177l-0.065,0.177l-0.068,0.175l-0.07,0.174l-0.072,0.173l-0.074,0.172l-0.076,0.17l-0.078,0.17l-0.08,0.169l-0.082,0.167l-0.084,0.166l-0.085,0.166l-0.088,0.163l-0.09,0.163l-0.091,0.162l-0.094,0.16l-0.095,0.159l-0.097,0.158l-0.099,0.156l-0.101,0.155l-0.103,0.154l-0.104,0.153l-0.106,0.151l-0.108,0.15l-0.11,0.149l-0.112,0.147l-0.113,0.145l-0.115,0.145l-0.116,0.143l-0.118,0.141l-0.12,0.14l-0.122,0.139l-0.123,0.137l-0.124,0.136l-0.127,0.134l-0.128,0.132l-0.129,0.131l-0.131,0.13l-0.133,0.128l-0.134,0.126l-0.135,0.125l-0.138,0.123l-0.138,0.121l-0.14,0.12l-0.142,0.118l-0.143,0.117l-0.144,0.115l-0.146,0.113l-0.147,0.111l-0.148,0.11l-0.15,0.108l-0.151,0.106l-0.153,0.104l-0.154,0.103l-0.155,0.101l-0.157,0.099l-0.157,0.097l-0.159,0.095l-0.161,0.094l-0.161,0.091l-0.163,0.09l-0.164,0.088l-0.165,0.086l-0.166,0.083l-0.168,0.082l-0.168,0.08l-0.17,0.078l-0.171,0.076l-0.172,0.074l-0.173,0.072l-0.174,0.07l-0.175,0.068l-0.176,0.066l-0.177,0.063l-0.178,0.062l-0.179,0.059l-0.18,0.057l-0.181,0.055l-0.182,0.053l-0.183,0.051l-0.184,0.048l-0.185,0.047l-0.185,0.044l-0.187,0.042l-0.187,0.039l-0.188,0.037l-0.189,0.035l-0.189,0.033l-0.191,0.03l-0.191,0.028l-0.192,0.026l-0.192,0.023l-0.194,0.021l-0.194,0.018l-0.194,0.016l-0.196,0.014l-0.195,0.011l-0.197,0.009l-0.197,0.006l-0.198,0.004l-0.198,0.001ZM162.506,215.751l0.158,-0.001l0.158,-0.003l0.157,-0.005l0.156,-0.007l0.156,-0.009l0.155,-0.01l0.155,-0.013l0.154,-0.015l0.153,-0.016l0.153,-0.019l0.152,-0.02l0.152,-0.022l0.151,-0.024l0.15,-0.026l0.15,-0.028l0.149,-0.03l0.148,-0.031l0.148,-0.033l0.147,-0.035l0.146,-0.037l0.146,-0.038l0.144,-0.04l0.145,-0.042l0.143,-0.044l0.143,-0.045l0.141,-0.047l0.142,-0.049l0.14,-0.05l0.139,-0.052l0.139,-0.054l0.138,-0.055l0.137,-0.057l0.136,-0.059l0.135,-0.06l0.135,-0.062l0.134,-0.063l0.132,-0.065l0.132,-0.067l0.131,-0.068l0.13,-0.069l0.129,-0.071l0.128,-0.073l0.127,-0.074l0.126,-0.076l0.126,-0.077l0.124,-0.078l0.123,-0.08l0.122,-0.082l0.121,-0.083l0.12,-0.084l0.119,-0.086l0.118,-0.087l0.117,-0.088l0.116,-0.09l0.115,-0.091l0.113,-0.093l0.113,-0.094l0.111,-0.095l0.11,-0.097l0.109,-0.097l0.108,-0.099l0.106,-0.101l0.105,-0.101l0.105,-0.103l0.102,-0.104l0.102,-0.106l0.1,-0.106l0.099,-0.108l0.098,-0.109l0.097,-0.11l0.095,-0.111l0.094,-0.113l0.093,-0.113l0.091,-0.115l0.09,-0.116l0.088,-0.116l0.087,-0.118l0.086,-0.119l0.084,-0.12l0.083,-0.122l0.082,-0.122l0.08,-0.123l0.078,-0.124l0.077,-0.125l0.076,-0.126l0.074,-0.128l0.073,-0.128l0.071,-0.129l0.069,-0.13l0.068,-0.131l0.067,-0.131l0.065,-0.133l0.063,-0.134l0.062,-0.134l0.06,-0.136l0.059,-0.136l0.057,-0.137l0.055,-0.138l0.054,-0.138l0.052,-0.14l0.05,-0.14l0.049,-0.141l0.047,-0.142l0.045,-0.143l0.044,-0.143l0.042,-0.144l0.04,-0.145l0.039,-0.146l0.036,-0.146l0.035,-0.147l0.033,-0.148l0.032,-0.148l0.029,-0.149l0.028,-0.15l0.026,-0.15l0.024,-0.151l0.022,-0.152l0.02,-0.152l0.019,-0.153l0.016,-0.153l0.015,-0.154l0.013,-0.155l0.01,-0.155l0.009,-0.156l0.007,-0.156l0.005,-0.157l0.003,-0.158l0.001,-0.163l0,-6.451l-0.001,-0.163l-0.003,-0.157l-0.005,-0.157l-0.007,-0.156l-0.009,-0.156l-0.01,-0.155l-0.013,-0.155l-0.015,-0.154l-0.016,-0.154l-0.019,-0.152l-0.02,-0.153l-0.022,-0.151l-0.024,-0.151l-0.026,-0.151l-0.028,-0.149l-0.029,-0.149l-0.032,-0.149l-0.033,-0.147l-0.035,-0.147l-0.036,-0.147l-0.039,-0.145l-0.04,-0.145l-0.042,-0.144l-0.044,-0.143l-0.045,-0.143l-0.047,-0.142l-0.049,-0.141l-0.05,-0.14l-0.052,-0.14l-0.054,-0.138l-0.055,-0.138l-0.057,-0.137l-0.059,-0.137l-0.06,-0.135l-0.062,-0.134l-0.063,-0.134l-0.065,-0.133l-0.067,-0.132l-0.068,-0.13l-0.069,-0.13l-0.071,-0.129l-0.073,-0.129l-0.074,-0.127l-0.076,-0.126l-0.077,-0.125l-0.078,-0.124l-0.08,-0.123l-0.082,-0.123l-0.083,-0.121l-0.084,-0.12l-0.086,-0.119l-0.087,-0.118l-0.088,-0.117l-0.09,-0.115l-0.091,-0.115l-0.093,-0.114l-0.094,-0.112l-0.095,-0.111l-0.097,-0.11l-0.098,-0.109l-0.099,-0.108l-0.1,-0.107l-0.102,-0.105l-0.103,-0.104l-0.104,-0.103l-0.105,-0.101l-0.106,-0.101l-0.108,-0.099l-0.109,-0.098l-0.11,-0.096l-0.112,-0.096l-0.112,-0.093l-0.113,-0.093l-0.115,-0.091l-0.116,-0.09l-0.117,-0.089l-0.118,-0.087l-0.119,-0.085l-0.12,-0.085l-0.121,-0.083l-0.122,-0.081l-0.123,-0.08l-0.124,-0.079l-0.126,-0.077l-0.126,-0.075l-0.127,-0.074l-0.128,-0.073l-0.129,-0.071l-0.13,-0.07l-0.131,-0.068l-0.132,-0.066l-0.132,-0.065l-0.134,-0.064l-0.135,-0.062l-0.135,-0.06l-0.136,-0.058l-0.137,-0.057l-0.138,-0.056l-0.139,-0.053l-0.139,-0.052l-0.14,-0.051l-0.142,-0.049l-0.141,-0.047l-0.143,-0.045l-0.143,-0.044l-0.145,-0.041l-0.144,-0.041l-0.146,-0.038l-0.146,-0.037l-0.147,-0.035l-0.148,-0.033l-0.148,-0.031l-0.149,-0.03l-0.15,-0.027l-0.15,-0.026l-0.151,-0.024l-0.152,-0.022l-0.152,-0.021l-0.153,-0.018l-0.153,-0.017l-0.154,-0.014l-0.155,-0.013l-0.155,-0.011l-0.156,-0.009l-0.156,-0.007l-0.157,-0.005l-0.158,-0.003l-0.158,-0.001l-0.158,0.001l-0.157,0.003l-0.157,0.005l-0.156,0.007l-0.156,0.009l-0.155,0.011l-0.155,0.013l-0.154,0.014l-0.153,0.017l-0.153,0.018l-0.153,0.021l-0.151,0.022l-0.151,0.024l-0.15,0.026l-0.15,0.027l-0.149,0.03l-0.149,0.031l-0.147,0.033l-0.147,0.035l-0.146,0.037l-0.146,0.038l-0.145,0.041l-0.144,0.041l-0.143,0.044l-0.143,0.045l-0.142,0.047l-0.141,0.049l-0.14,0.051l-0.14,0.052l-0.138,0.053l-0.138,0.056l-0.137,0.057l-0.137,0.058l-0.135,0.06l-0.134,0.062l-0.134,0.064l-0.133,0.065l-0.131,0.066l-0.131,0.068l-0.13,0.07l-0.129,0.071l-0.129,0.073l-0.127,0.074l-0.126,0.075l-0.125,0.077l-0.124,0.079l-0.123,0.08l-0.123,0.081l-0.121,0.083l-0.12,0.085l-0.119,0.085l-0.118,0.087l-0.116,0.089l-0.116,0.09l-0.115,0.091l-0.113,0.093l-0.113,0.093l-0.111,0.096l-0.11,0.096l-0.109,0.098l-0.108,0.099l-0.106,0.1l-0.106,0.102l-0.104,0.103l-0.103,0.104l-0.101,0.106l-0.101,0.106l-0.099,0.108l-0.098,0.109l-0.096,0.11l-0.095,0.111l-0.094,0.112l-0.093,0.114l-0.091,0.115l-0.09,0.115l-0.088,0.117l-0.088,0.118l-0.085,0.119l-0.085,0.12l-0.082,0.121l-0.082,0.123l-0.08,0.123l-0.079,0.124l-0.077,0.125l-0.075,0.126l-0.074,0.127l-0.073,0.128l-0.071,0.13l-0.07,0.13l-0.068,0.13l-0.066,0.132l-0.065,0.133l-0.064,0.134l-0.061,0.134l-0.061,0.135l-0.058,0.137l-0.057,0.137l-0.056,0.137l-0.053,0.139l-0.052,0.14l-0.051,0.14l-0.048,0.141l-0.048,0.142l-0.045,0.143l-0.043,0.143l-0.042,0.144l-0.041,0.145l-0.038,0.145l-0.037,0.147l-0.035,0.147l-0.033,0.147l-0.031,0.149l-0.029,0.149l-0.028,0.149l-0.026,0.151l-0.024,0.151l-0.022,0.151l-0.021,0.153l-0.018,0.152l-0.017,0.154l-0.014,0.154l-0.013,0.155l-0.011,0.155l-0.009,0.156l-0.007,0.156l-0.005,0.157l-0.003,0.157l-0.001,0.163l0,6.451l0.001,0.163l0.003,0.158l0.005,0.157l0.007,0.156l0.009,0.156l0.011,0.155l0.013,0.155l0.014,0.154l0.017,0.153l0.018,0.153l0.021,0.152l0.022,0.152l0.024,0.151l0.026,0.15l0.028,0.15l0.029,0.149l0.031,0.148l0.033,0.148l0.035,0.147l0.037,0.146l0.038,0.146l0.041,0.145l0.042,0.144l0.043,0.143l0.045,0.143l0.048,0.142l0.048,0.141l0.051,0.14l0.052,0.14l0.053,0.138l0.056,0.138l0.057,0.137l0.058,0.136l0.061,0.136l0.061,0.134l0.064,0.134l0.065,0.133l0.066,0.131l0.068,0.131l0.07,0.13l0.071,0.129l0.073,0.128l0.074,0.128l0.075,0.126l0.077,0.125l0.079,0.124l0.08,0.123l0.082,0.122l0.082,0.122l0.085,0.12l0.085,0.119l0.088,0.118l0.088,0.116l0.09,0.116l0.091,0.115l0.093,0.113l0.094,0.113l0.095,0.111l0.096,0.11l0.098,0.109l0.099,0.108l0.101,0.106l0.101,0.106l0.103,0.104l0.104,0.103l0.106,0.101l0.106,0.101l0.108,0.099l0.109,0.098l0.11,0.096l0.111,0.095l0.112,0.094l0.114,0.093l0.115,0.091l0.115,0.09l0.117,0.088l0.118,0.087l0.119,0.086l0.12,0.084l0.121,0.083l0.123,0.082l0.123,0.08l0.124,0.078l0.125,0.077l0.126,0.076l0.127,0.074l0.129,0.073l0.129,0.071l0.13,0.069l0.13,0.068l0.132,0.067l0.133,0.065l0.134,0.063l0.134,0.062l0.135,0.06l0.137,0.059l0.137,0.057l0.138,0.055l0.138,0.054l0.14,0.052l0.14,0.05l0.141,0.049l0.142,0.047l0.143,0.045l0.143,0.044l0.144,0.042l0.145,0.04l0.145,0.038l0.147,0.037l0.147,0.035l0.147,0.033l0.149,0.031l0.149,0.03l0.15,0.028l0.15,0.026l0.151,0.024l0.151,0.022l0.153,0.02l0.153,0.019l0.153,0.016l0.154,0.015l0.155,0.013l0.155,0.01l0.156,0.009l0.156,0.007l0.157,0.005l0.157,0.003l0.158,0.001Z" style="fill:#3f3f3f;"/><path d="M161.942,321.678l-13.306,-10.75l-0.091,-0.08l-0.084,-0.086l-0.077,-0.093l-0.069,-0.099l-0.061,-0.105l-0.053,-0.109l-0.043,-0.112l-0.034,-0.116l-0.025,-0.118l-0.015,-0.12l-0.006,-0.121l0.005,-0.121l0.014,-0.12l0.023,-0.118l0.033,-0.116l0.042,-0.114l0.052,-0.109l0.06,-0.105l0.068,-0.1l0.076,-0.094l0.083,-0.087l0.09,-0.081l0.096,-0.073l0.102,-0.065l0.106,-0.057l0.111,-0.047l0.115,-0.039l0.117,-0.03l0.119,-0.02l0.12,-0.01l0.121,-0.001l0.121,0.009l0.119,0.019l0.117,0.028l0.115,0.038l0.111,0.047l0.108,0.055l0.102,0.064l0.097,0.073l11.468,9.265l12.101,-9.289l0.099,-0.069l0.104,-0.062l0.108,-0.053l0.113,-0.044l0.116,-0.034l0.118,-0.026l0.119,-0.016l0.121,-0.006l0.121,0.004l0.12,0.013l0.118,0.023l0.117,0.033l0.113,0.041l0.11,0.051l0.105,0.059l0.1,0.068l0.095,0.075l0.087,0.083l0.082,0.09l0.073,0.096l0.066,0.101l0.057,0.106l0.048,0.111l0.04,0.114l0.03,0.117l0.021,0.119l0.01,0.121l0.002,0.12l-0.009,0.121l-0.018,0.119l-0.028,0.118l-0.037,0.115l-0.046,0.111l-0.055,0.108l-0.063,0.103l-0.072,0.097l-0.079,0.091l-0.086,0.085l-0.093,0.077l-13.975,10.727Z" style="fill:#3f3f3f;"/><path d="M149.594,431.356l-0.121,-0.004l-0.12,-0.013l-0.118,-0.023l-0.117,-0.032l-0.113,-0.042l-0.11,-0.051l-0.105,-0.059l-0.1,-0.067l-0.095,-0.076l-0.088,-0.083l-0.081,-0.089l-0.073,-0.096l-0.066,-0.102l-0.057,-0.106l-0.048,-0.111l-0.04,-0.114l-0.03,-0.117l-0.021,-0.119l-0.01,-0.12l-0.002,-0.121l0.009,-0.12l0.018,-0.12l0.028,-0.117l0.037,-0.115l0.046,-0.112l0.055,-0.107l0.063,-0.103l0.072,-0.098l0.079,-0.091l0.086,-0.084l0.093,-0.078l13.975,-10.727l13.306,10.75l0.091,0.08l0.084,0.087l0.077,0.093l0.069,0.099l0.061,0.104l0.053,0.109l0.043,0.113l0.034,0.116l0.025,0.118l0.015,0.12l0.006,0.12l-0.005,0.121l-0.014,0.12l-0.023,0.119l-0.033,0.116l-0.042,0.113l-0.052,0.109l-0.06,0.105l-0.068,0.1l-0.076,0.094l-0.083,0.088l-0.09,0.08l-0.096,0.073l-0.102,0.065l-0.106,0.057l-0.111,0.048l-0.115,0.039l-0.117,0.029l-0.119,0.02l-0.12,0.011l-0.121,0l-0.121,-0.009l-0.119,-0.019l-0.117,-0.028l-0.115,-0.038l-0.111,-0.046l-0.108,-0.056l-0.102,-0.064l-0.097,-0.072l-11.468,-9.266l-12.101,9.289l-0.099,0.07l-0.104,0.061l-0.108,0.053l-0.113,0.044l-0.116,0.035l-0.118,0.025l-0.119,0.016l-0.121,0.006Z" style="fill:#3f3f3f;"/><path d="M162.224,452.325l-0.134,-0.012l-0.133,-0.024l-0.13,-0.036l-0.126,-0.047l-0.121,-0.058l-0.115,-0.069l-0.109,-0.079l-0.102,-0.089l-0.093,-0.097l-0.084,-0.106l-0.074,-0.112l-0.063,-0.118l-0.053,-0.124l-0.042,-0.128l-0.03,-0.131l-0.018,-0.134l-0.006,-0.134l0,-30.978l0.006,-0.135l0.018,-0.133l0.03,-0.131l0.042,-0.128l0.053,-0.124l0.063,-0.119l0.074,-0.112l0.084,-0.105l0.093,-0.097l0.102,-0.089l0.109,-0.079l0.115,-0.069l0.121,-0.058l0.126,-0.048l0.13,-0.036l0.133,-0.024l0.134,-0.012l0.134,0l0.134,0.012l0.133,0.024l0.13,0.036l0.126,0.048l0.121,0.058l0.115,0.069l0.109,0.079l0.102,0.089l0.093,0.097l0.084,0.105l0.074,0.112l0.063,0.119l0.053,0.124l0.042,0.128l0.03,0.131l0.018,0.133l0.006,0.135l0,30.978l-0.006,0.134l-0.018,0.134l-0.03,0.131l-0.042,0.128l-0.053,0.124l-0.063,0.118l-0.074,0.112l-0.084,0.106l-0.093,0.097l-0.102,0.089l-0.109,0.079l-0.115,0.069l-0.121,0.058l-0.126,0.047l-0.13,0.036l-0.133,0.024l-0.134,0.012l-0.134,0Z" style="fill:#3f3f3f;"/><path d="M175.979,380.177l-0.114,-0.002l-0.113,-0.013l-0.112,-0.023l-0.109,-0.032l-0.106,-0.043l-0.101,-0.052l-0.097,-0.06l-0.091,-0.069l-0.084,-0.077l-26.776,-26.776l-0.077,-0.084l-0.069,-0.091l-0.06,-0.096l-0.052,-0.102l-0.042,-0.106l-0.033,-0.109l-0.023,-0.112l-0.013,-0.113l-0.002,-0.114l0.007,-0.113l0.018,-0.113l0.028,-0.11l0.038,-0.108l0.047,-0.104l0.056,-0.099l0.065,-0.094l0.073,-0.087l0.081,-0.081l0.087,-0.073l0.094,-0.065l0.099,-0.056l0.104,-0.047l0.107,-0.038l0.111,-0.027l0.112,-0.018l0.114,-0.008l0.114,0.003l0.113,0.012l0.112,0.023l0.109,0.033l0.106,0.042l0.101,0.052l0.097,0.061l0.09,0.069l0.084,0.077l26.776,26.776l0.077,0.084l0.069,0.091l0.061,0.096l0.052,0.102l0.042,0.105l0.033,0.109l0.023,0.112l0.013,0.113l0.002,0.114l-0.008,0.114l-0.017,0.113l-0.028,0.11l-0.038,0.108l-0.047,0.103l-0.056,0.099l-0.065,0.094l-0.073,0.088l-0.081,0.08l-0.087,0.073l-0.094,0.065l-0.099,0.056l-0.104,0.048l-0.107,0.037l-0.111,0.028l-0.112,0.018l-0.114,0.007Z" style="fill:#3f3f3f;"/><path d="M149.18,380.143l-0.114,-0.008l-0.112,-0.018l-0.111,-0.027l-0.107,-0.038l-0.104,-0.047l-0.099,-0.056l-0.094,-0.065l-0.087,-0.073l-0.081,-0.081l-0.073,-0.087l-0.065,-0.094l-0.056,-0.099l-0.047,-0.104l-0.038,-0.108l-0.028,-0.11l-0.017,-0.113l-0.008,-0.113l0.002,-0.114l0.013,-0.113l0.023,-0.112l0.033,-0.109l0.042,-0.106l0.052,-0.102l0.061,-0.096l0.069,-0.091l0.077,-0.084l26.707,-26.707l0.084,-0.077l0.09,-0.069l0.097,-0.06l0.101,-0.052l0.106,-0.043l0.109,-0.032l0.112,-0.023l0.113,-0.013l0.114,-0.002l0.114,0.007l0.112,0.018l0.111,0.028l0.107,0.037l0.104,0.048l0.099,0.056l0.094,0.065l0.087,0.073l0.081,0.08l0.073,0.088l0.065,0.093l0.056,0.1l0.047,0.103l0.038,0.108l0.028,0.11l0.018,0.113l0.007,0.114l-0.002,0.114l-0.013,0.113l-0.023,0.111l-0.033,0.11l-0.042,0.105l-0.052,0.102l-0.06,0.096l-0.069,0.091l-0.077,0.084l-26.707,26.707l-0.084,0.077l-0.091,0.069l-0.097,0.061l-0.101,0.051l-0.106,0.043l-0.109,0.033l-0.112,0.023l-0.113,0.012l-0.114,0.003Z" style="fill:#3f3f3f;"/><path d="M315.244,241.057l14.58,-18.045l-14.58,-18.995" style="fill:none;stroke-width:3px;stroke:#3f3f3f;"/><path d="M271.063,204.017l-14.58,18.045l14.58,18.995" style="fill:none;stroke-width:3px;stroke:#3f3f3f;"/><path d="M293.335,157.716l0.09,-0.001l0.089,-0.003l0.089,-0.006l0.09,-0.007l0.088,-0.009l0.089,-0.012l0.089,-0.014l0.088,-0.016l0.092,-0.019l0.039,-0.008l0.044,-0.011l0.043,-0.011l0.043,-0.011l0.043,-0.012l0.044,-0.012l0.042,-0.013l0.043,-0.014l0.043,-0.014l0.042,-0.014l0.043,-0.015l0.042,-0.016l0.042,-0.016l0.041,-0.016l0.042,-0.017l0.042,-0.018l0.041,-0.018l0.041,-0.019l0.041,-0.019l0.04,-0.02l0.041,-0.02l0.04,-0.021l0.04,-0.021l0.04,-0.022l0.039,-0.022l0.039,-0.023l0.04,-0.023l0.038,-0.024l0.039,-0.024l0.038,-0.025l0.039,-0.026l0.037,-0.026l0.038,-0.026l0.037,-0.027l0.037,-0.028l0.037,-0.028l0.037,-0.029l0.036,-0.029l0.036,-0.03l0.036,-0.03l0.035,-0.031l0.036,-0.031l0.034,-0.032l0.035,-0.032l0.034,-0.033l0.038,-0.037l18.578,-18.577l0.037,-0.037l0.033,-0.034l0.032,-0.035l0.032,-0.035l0.032,-0.035l0.03,-0.035l0.031,-0.036l0.029,-0.036l0.03,-0.036l0.028,-0.037l0.028,-0.037l0.028,-0.037l0.027,-0.037l0.026,-0.038l0.026,-0.038l0.026,-0.038l0.025,-0.038l0.024,-0.039l0.024,-0.039l0.023,-0.039l0.023,-0.039l0.022,-0.04l0.022,-0.04l0.022,-0.04l0.02,-0.04l0.02,-0.041l0.02,-0.04l0.019,-0.041l0.019,-0.041l0.018,-0.041l0.018,-0.042l0.017,-0.042l0.016,-0.041l0.016,-0.042l0.016,-0.042l0.015,-0.043l0.014,-0.042l0.014,-0.043l0.014,-0.042l0.013,-0.043l0.012,-0.044l0.012,-0.043l0.011,-0.043l0.011,-0.043l0.011,-0.044l0.008,-0.039l0.019,-0.093l0.016,-0.088l0.014,-0.088l0.011,-0.089l0.01,-0.089l0.007,-0.089l0.006,-0.089l0.003,-0.089l0.001,-0.09l-0.001,-0.089l-0.003,-0.09l-0.006,-0.089l-0.007,-0.089l-0.01,-0.089l-0.011,-0.089l-0.014,-0.088l-0.016,-0.088l-0.019,-0.092l-0.008,-0.04l-0.011,-0.043l-0.011,-0.044l-0.011,-0.043l-0.012,-0.043l-0.012,-0.043l-0.013,-0.043l-0.014,-0.043l-0.014,-0.043l-0.014,-0.042l-0.015,-0.042l-0.016,-0.043l-0.016,-0.042l-0.016,-0.041l-0.017,-0.042l-0.018,-0.041l-0.018,-0.042l-0.019,-0.041l-0.019,-0.041l-0.02,-0.04l-0.02,-0.041l-0.02,-0.04l-0.022,-0.04l-0.022,-0.04l-0.022,-0.039l-0.023,-0.04l-0.023,-0.039l-0.024,-0.039l-0.024,-0.038l-0.025,-0.039l-0.026,-0.038l-0.026,-0.038l-0.026,-0.037l-0.027,-0.038l-0.028,-0.037l-0.028,-0.037l-0.028,-0.036l-0.03,-0.037l-0.029,-0.036l-0.031,-0.035l-0.03,-0.036l-0.032,-0.035l-0.032,-0.035l-0.032,-0.035l-0.033,-0.034l-0.037,-0.037l-24.077,-24.076l-0.082,-0.081l-0.08,-0.076l-0.084,-0.076l-0.086,-0.077l-0.089,-0.077l-0.092,-0.077l-0.095,-0.077l-0.098,-0.076l-0.1,-0.077l-0.103,-0.076l-0.105,-0.076l-0.108,-0.076l-0.109,-0.075l-0.112,-0.075l-0.115,-0.074l-0.116,-0.073l-0.118,-0.073l-0.119,-0.072l-0.122,-0.071l-0.123,-0.071l-0.125,-0.069l-0.126,-0.069l-0.128,-0.068l-0.129,-0.067l-0.131,-0.065l-0.131,-0.065l-0.133,-0.064l-0.133,-0.062l-0.135,-0.061l-0.135,-0.06l-0.136,-0.059l-0.136,-0.057l-0.137,-0.056l-0.138,-0.055l-0.138,-0.053l-0.138,-0.052l-0.139,-0.05l-0.139,-0.049l-0.138,-0.047l-0.139,-0.046l-0.138,-0.044l-0.139,-0.042l-0.138,-0.041l-0.137,-0.039l-0.137,-0.037l-0.137,-0.036l-0.135,-0.034l-0.135,-0.032l-0.134,-0.03l-0.133,-0.028l-0.132,-0.027l-0.131,-0.024l-0.129,-0.023l-0.129,-0.02l-0.126,-0.019l-0.125,-0.017l-0.123,-0.015l-0.122,-0.013l-0.119,-0.01l-0.118,-0.009l-0.115,-0.007l-0.113,-0.005l-0.111,-0.003l-0.115,-0.001l-15.536,0l-0.053,0l-0.048,0.001l-0.047,0.002l-0.047,0.002l-0.047,0.003l-0.047,0.003l-0.047,0.004l-0.046,0.004l-0.047,0.005l-0.046,0.006l-0.046,0.006l-0.046,0.007l-0.045,0.007l-0.046,0.008l-0.045,0.008l-0.045,0.009l-0.045,0.01l-0.044,0.01l-0.044,0.011l-0.045,0.011l-0.044,0.011l-0.043,0.013l-0.044,0.012l-0.043,0.014l-0.043,0.013l-0.043,0.015l-0.043,0.015l-0.042,0.015l-0.043,0.016l-0.041,0.016l-0.042,0.017l-0.042,0.017l-0.041,0.018l-0.041,0.018l-0.041,0.019l-0.04,0.019l-0.041,0.02l-0.04,0.021l-0.039,0.02l-0.04,0.021l-0.039,0.022l-0.039,0.022l-0.039,0.023l-0.038,0.023l-0.038,0.024l-0.034,0.021l-0.079,0.052l-0.073,0.051l-0.072,0.053l-0.071,0.054l-0.07,0.056l-0.068,0.058l-0.067,0.059l-0.066,0.061l-0.063,0.063l-0.063,0.064l-0.061,0.065l-0.059,0.067l-0.058,0.068l-0.056,0.07l-0.055,0.071l-0.052,0.072l-0.052,0.074l-0.051,0.078l-0.022,0.034l-0.023,0.038l-0.023,0.039l-0.023,0.038l-0.022,0.039l-0.022,0.039l-0.021,0.04l-0.021,0.04l-0.02,0.04l-0.02,0.04l-0.019,0.04l-0.019,0.041l-0.018,0.041l-0.018,0.041l-0.017,0.042l-0.017,0.042l-0.017,0.042l-0.015,0.042l-0.016,0.042l-0.015,0.043l-0.014,0.043l-0.014,0.043l-0.013,0.043l-0.013,0.044l-0.012,0.044l-0.012,0.044l-0.011,0.044l-0.01,0.044l-0.01,0.045l-0.01,0.045l-0.009,0.045l-0.008,0.045l-0.008,0.045l-0.007,0.046l-0.007,0.046l-0.006,0.045l-0.006,0.046l-0.005,0.047l-0.004,0.046l-0.004,0.047l-0.004,0.047l-0.002,0.047l-0.002,0.047l-0.002,0.048l-0.001,0.047l0,0.053l0,15.536l0.001,0.115l0.003,0.111l0.005,0.113l0.006,0.115l0.009,0.118l0.011,0.12l0.013,0.121l0.015,0.123l0.017,0.125l0.018,0.127l0.021,0.128l0.023,0.13l0.024,0.131l0.027,0.132l0.028,0.132l0.03,0.135l0.032,0.135l0.034,0.135l0.035,0.137l0.038,0.137l0.039,0.137l0.04,0.138l0.043,0.138l0.044,0.139l0.046,0.138l0.047,0.139l0.049,0.139l0.05,0.138l0.052,0.139l0.053,0.138l0.054,0.137l0.056,0.137l0.058,0.137l0.058,0.136l0.06,0.135l0.062,0.135l0.062,0.133l0.064,0.133l0.064,0.131l0.066,0.13l0.067,0.129l0.067,0.128l0.069,0.126l0.07,0.125l0.07,0.123l0.072,0.122l0.072,0.12l0.072,0.118l0.074,0.116l0.074,0.114l0.074,0.112l0.076,0.11l0.075,0.107l0.076,0.106l0.076,0.102l0.077,0.101l0.076,0.097l0.077,0.095l0.077,0.092l0.077,0.09l0.077,0.086l0.076,0.083l0.076,0.081l0.081,0.082l24.077,24.076l0.037,0.037l0.035,0.033l0.034,0.032l0.035,0.032l0.035,0.031l0.036,0.031l0.035,0.03l0.037,0.03l0.036,0.029l0.036,0.029l0.037,0.028l0.037,0.028l0.038,0.027l0.037,0.026l0.038,0.026l0.038,0.026l0.039,0.025l0.038,0.024l0.039,0.024l0.039,0.023l0.039,0.023l0.04,0.022l0.04,0.022l0.04,0.021l0.04,0.021l0.04,0.02l0.041,0.02l0.041,0.019l0.041,0.019l0.041,0.018l0.042,0.018l0.041,0.017l0.042,0.016l0.042,0.016l0.042,0.016l0.042,0.015l0.043,0.014l0.043,0.014l0.042,0.014l0.043,0.013l0.043,0.012l0.043,0.012l0.044,0.011l0.043,0.011l0.044,0.011l0.039,0.008l0.092,0.019l0.088,0.016l0.089,0.014l0.088,0.012l0.089,0.009l0.089,0.007l0.09,0.006l0.089,0.003l0.089,0.001ZM273.711,122.061l-0.087,0l-0.087,-0.002l-0.086,-0.003l-0.086,-0.004l-0.086,-0.005l-0.086,-0.005l-0.085,-0.008l-0.085,-0.008l-0.085,-0.009l-0.085,-0.01l-0.084,-0.011l-0.084,-0.013l-0.084,-0.013l-0.083,-0.014l-0.083,-0.016l-0.082,-0.016l-0.083,-0.017l-0.081,-0.019l-0.082,-0.019l-0.081,-0.02l-0.081,-0.022l-0.08,-0.022l-0.08,-0.023l-0.08,-0.024l-0.079,-0.026l-0.079,-0.026l-0.078,-0.027l-0.078,-0.028l-0.077,-0.029l-0.077,-0.029l-0.077,-0.031l-0.076,-0.032l-0.075,-0.032l-0.075,-0.034l-0.075,-0.034l-0.074,-0.035l-0.074,-0.036l-0.073,-0.037l-0.072,-0.038l-0.072,-0.038l-0.072,-0.04l-0.071,-0.04l-0.07,-0.041l-0.07,-0.042l-0.069,-0.042l-0.069,-0.044l-0.068,-0.044l-0.068,-0.045l-0.066,-0.046l-0.067,-0.047l-0.066,-0.047l-0.065,-0.048l-0.064,-0.049l-0.064,-0.05l-0.064,-0.05l-0.062,-0.051l-0.063,-0.052l-0.061,-0.053l-0.061,-0.053l-0.06,-0.054l-0.059,-0.055l-0.059,-0.055l-0.058,-0.056l-0.058,-0.057l-0.057,-0.058l-0.056,-0.058l-0.055,-0.059l-0.055,-0.059l-0.054,-0.06l-0.053,-0.061l-0.053,-0.062l-0.052,-0.062l-0.051,-0.062l-0.05,-0.064l-0.05,-0.064l-0.049,-0.064l-0.048,-0.066l-0.048,-0.065l-0.046,-0.067l-0.046,-0.067l-0.045,-0.067l-0.044,-0.068l-0.044,-0.069l-0.042,-0.069l-0.042,-0.07l-0.041,-0.071l-0.041,-0.07l-0.039,-0.072l-0.038,-0.072l-0.038,-0.072l-0.037,-0.074l-0.036,-0.073l-0.035,-0.074l-0.034,-0.075l-0.034,-0.075l-0.032,-0.075l-0.032,-0.076l-0.031,-0.077l-0.029,-0.077l-0.029,-0.077l-0.028,-0.078l-0.027,-0.078l-0.026,-0.079l-0.026,-0.079l-0.024,-0.08l-0.023,-0.08l-0.022,-0.08l-0.022,-0.081l-0.02,-0.081l-0.019,-0.081l-0.019,-0.082l-0.017,-0.083l-0.017,-0.082l-0.015,-0.083l-0.014,-0.084l-0.014,-0.083l-0.012,-0.084l-0.011,-0.085l-0.01,-0.084l-0.009,-0.085l-0.009,-0.085l-0.007,-0.085l-0.006,-0.086l-0.004,-0.086l-0.004,-0.086l-0.003,-0.087l-0.002,-0.086l0,-0.087l0,-0.087l0.002,-0.086l0.003,-0.087l0.004,-0.086l0.004,-0.086l0.006,-0.085l0.007,-0.086l0.009,-0.085l0.009,-0.085l0.01,-0.084l0.011,-0.085l0.012,-0.084l0.014,-0.083l0.014,-0.084l0.015,-0.083l0.017,-0.082l0.017,-0.083l0.019,-0.082l0.019,-0.081l0.02,-0.081l0.022,-0.081l0.022,-0.08l0.023,-0.08l0.024,-0.08l0.026,-0.079l0.026,-0.079l0.027,-0.078l0.028,-0.078l0.029,-0.077l0.029,-0.077l0.031,-0.077l0.032,-0.076l0.032,-0.075l0.034,-0.076l0.034,-0.074l0.035,-0.074l0.036,-0.074l0.037,-0.073l0.037,-0.072l0.039,-0.072l0.039,-0.072l0.041,-0.071l0.041,-0.07l0.042,-0.07l0.042,-0.069l0.044,-0.069l0.044,-0.068l0.045,-0.068l0.046,-0.067l0.046,-0.066l0.048,-0.066l0.048,-0.065l0.049,-0.065l0.05,-0.064l0.05,-0.063l0.051,-0.063l0.052,-0.062l0.053,-0.061l0.053,-0.061l0.054,-0.06l0.055,-0.06l0.055,-0.058l0.056,-0.059l0.057,-0.057l0.058,-0.057l0.058,-0.056l0.059,-0.055l0.059,-0.055l0.06,-0.054l0.061,-0.053l0.062,-0.053l0.062,-0.052l0.062,-0.051l0.064,-0.05l0.064,-0.05l0.064,-0.049l0.065,-0.048l0.066,-0.048l0.067,-0.046l0.067,-0.046l0.067,-0.045l0.068,-0.044l0.069,-0.044l0.069,-0.043l0.07,-0.041l0.071,-0.041l0.071,-0.041l0.071,-0.039l0.072,-0.038l0.073,-0.038l0.073,-0.037l0.073,-0.036l0.074,-0.035l0.075,-0.034l0.075,-0.034l0.075,-0.032l0.076,-0.032l0.077,-0.031l0.077,-0.029l0.077,-0.029l0.078,-0.028l0.078,-0.027l0.079,-0.026l0.079,-0.025l0.08,-0.025l0.08,-0.023l0.08,-0.022l0.081,-0.021l0.081,-0.021l0.082,-0.019l0.081,-0.019l0.083,-0.017l0.082,-0.016l0.083,-0.016l0.084,-0.014l0.083,-0.013l0.084,-0.013l0.085,-0.011l0.084,-0.01l0.085,-0.009l0.085,-0.008l0.085,-0.007l0.086,-0.006l0.086,-0.005l0.086,-0.004l0.086,-0.003l0.087,-0.001l0.087,-0.001l0.087,0.001l0.086,0.001l0.087,0.003l0.086,0.004l0.086,0.005l0.085,0.006l0.086,0.007l0.085,0.008l0.085,0.009l0.084,0.01l0.084,0.011l0.084,0.013l0.084,0.013l0.083,0.014l0.083,0.016l0.083,0.016l0.082,0.017l0.082,0.019l0.082,0.019l0.081,0.021l0.08,0.021l0.081,0.022l0.08,0.023l0.079,0.025l0.079,0.025l0.079,0.026l0.079,0.027l0.077,0.028l0.078,0.029l0.077,0.029l0.076,0.031l0.076,0.032l0.076,0.032l0.075,0.034l0.074,0.034l0.074,0.035l0.074,0.036l0.073,0.037l0.073,0.038l0.072,0.038l0.071,0.039l0.071,0.041l0.07,0.041l0.07,0.041l0.07,0.043l0.068,0.044l0.068,0.044l0.068,0.045l0.067,0.046l0.066,0.046l0.066,0.048l0.065,0.048l0.065,0.049l0.064,0.05l0.063,0.05l0.063,0.051l0.062,0.052l0.061,0.053l0.061,0.053l0.06,0.054l0.06,0.055l0.059,0.055l0.058,0.056l0.058,0.057l0.056,0.057l0.056,0.058l0.056,0.059l0.055,0.06l0.054,0.06l0.053,0.061l0.052,0.061l0.052,0.062l0.052,0.063l0.05,0.063l0.05,0.064l0.049,0.065l0.048,0.065l0.047,0.066l0.047,0.066l0.045,0.067l0.046,0.068l0.044,0.068l0.043,0.069l0.043,0.069l0.042,0.07l0.041,0.07l0.04,0.071l0.04,0.072l0.038,0.072l0.038,0.072l0.037,0.073l0.036,0.074l0.035,0.074l0.034,0.074l0.033,0.076l0.033,0.075l0.032,0.076l0.03,0.077l0.03,0.077l0.029,0.077l0.028,0.078l0.027,0.078l0.026,0.079l0.025,0.079l0.024,0.08l0.024,0.08l0.022,0.08l0.021,0.081l0.021,0.081l0.019,0.081l0.018,0.082l0.018,0.083l0.016,0.082l0.015,0.083l0.015,0.084l0.013,0.083l0.012,0.084l0.012,0.085l0.01,0.084l0.009,0.085l0.008,0.085l0.007,0.086l0.006,0.085l0.005,0.086l0.004,0.086l0.003,0.087l0.001,0.086l0.001,0.087l-0.001,0.087l-0.001,0.086l-0.003,0.087l-0.004,0.086l-0.005,0.086l-0.006,0.086l-0.007,0.085l-0.008,0.085l-0.009,0.085l-0.01,0.084l-0.012,0.085l-0.012,0.084l-0.013,0.083l-0.015,0.084l-0.015,0.083l-0.016,0.082l-0.018,0.083l-0.018,0.082l-0.019,0.081l-0.021,0.081l-0.021,0.081l-0.022,0.08l-0.024,0.08l-0.024,0.08l-0.025,0.079l-0.026,0.079l-0.027,0.078l-0.028,0.078l-0.029,0.077l-0.03,0.077l-0.03,0.077l-0.032,0.076l-0.033,0.075l-0.033,0.075l-0.034,0.075l-0.035,0.074l-0.036,0.073l-0.037,0.074l-0.038,0.072l-0.038,0.072l-0.04,0.072l-0.04,0.07l-0.041,0.071l-0.042,0.07l-0.043,0.069l-0.043,0.069l-0.044,0.068l-0.046,0.067l-0.045,0.067l-0.047,0.067l-0.047,0.065l-0.048,0.066l-0.049,0.064l-0.05,0.064l-0.05,0.064l-0.052,0.062l-0.051,0.062l-0.053,0.062l-0.053,0.061l-0.054,0.06l-0.055,0.059l-0.056,0.059l-0.056,0.058l-0.056,0.058l-0.058,0.057l-0.058,0.056l-0.059,0.055l-0.059,0.055l-0.061,0.054l-0.06,0.053l-0.062,0.053l-0.062,0.052l-0.063,0.051l-0.063,0.05l-0.064,0.05l-0.065,0.049l-0.065,0.048l-0.066,0.047l-0.066,0.047l-0.067,0.046l-0.068,0.045l-0.068,0.044l-0.068,0.044l-0.07,0.042l-0.07,0.042l-0.07,0.041l-0.071,0.04l-0.071,0.04l-0.072,0.038l-0.073,0.038l-0.073,0.037l-0.073,0.036l-0.075,0.035l-0.074,0.034l-0.075,0.034l-0.076,0.032l-0.076,0.032l-0.076,0.031l-0.077,0.029l-0.077,0.029l-0.078,0.028l-0.078,0.027l-0.079,0.026l-0.08,0.026l-0.079,0.024l-0.08,0.023l-0.081,0.022l-0.08,0.022l-0.081,0.02l-0.082,0.019l-0.082,0.019l-0.082,0.017l-0.083,0.016l-0.083,0.016l-0.083,0.014l-0.084,0.013l-0.084,0.013l-0.084,0.011l-0.084,0.01l-0.085,0.009l-0.085,0.008l-0.086,0.008l-0.085,0.005l-0.086,0.005l-0.086,0.004l-0.087,0.003l-0.086,0.002l-0.087,0ZM273.711,119.099l0.049,0l0.049,-0.001l0.049,-0.002l0.049,-0.002l0.048,-0.003l0.049,-0.003l0.048,-0.004l0.048,-0.005l0.047,-0.005l0.048,-0.005l0.047,-0.007l0.047,-0.007l0.047,-0.007l0.046,-0.008l0.047,-0.009l0.046,-0.009l0.046,-0.01l0.046,-0.01l0.045,-0.011l0.046,-0.011l0.045,-0.012l0.045,-0.012l0.044,-0.013l0.045,-0.014l0.044,-0.014l0.044,-0.014l0.044,-0.016l0.043,-0.015l0.043,-0.016l0.043,-0.017l0.043,-0.017l0.042,-0.018l0.043,-0.018l0.042,-0.019l0.041,-0.019l0.042,-0.019l0.041,-0.021l0.041,-0.02l0.04,-0.021l0.041,-0.022l0.04,-0.022l0.04,-0.023l0.039,-0.023l0.039,-0.023l0.039,-0.024l0.039,-0.024l0.038,-0.025l0.038,-0.025l0.038,-0.026l0.037,-0.026l0.037,-0.027l0.036,-0.027l0.037,-0.028l0.036,-0.028l0.035,-0.028l0.036,-0.029l0.035,-0.029l0.034,-0.03l0.034,-0.03l0.034,-0.03l0.034,-0.031l0.033,-0.031l0.033,-0.032l0.032,-0.032l0.032,-0.032l0.032,-0.033l0.031,-0.033l0.031,-0.033l0.03,-0.034l0.03,-0.035l0.03,-0.034l0.029,-0.035l0.029,-0.035l0.028,-0.036l0.028,-0.036l0.028,-0.036l0.027,-0.037l0.026,-0.037l0.026,-0.037l0.026,-0.038l0.025,-0.038l0.025,-0.038l0.025,-0.039l0.024,-0.039l0.023,-0.039l0.023,-0.039l0.023,-0.04l0.022,-0.04l0.021,-0.04l0.022,-0.041l0.02,-0.041l0.02,-0.041l0.02,-0.041l0.019,-0.042l0.019,-0.042l0.018,-0.042l0.018,-0.043l0.017,-0.042l0.016,-0.043l0.017,-0.044l0.015,-0.043l0.015,-0.044l0.015,-0.044l0.014,-0.044l0.013,-0.044l0.013,-0.045l0.013,-0.045l0.012,-0.045l0.011,-0.045l0.011,-0.046l0.01,-0.046l0.01,-0.046l0.009,-0.046l0.009,-0.046l0.008,-0.047l0.007,-0.047l0.007,-0.047l0.006,-0.047l0.006,-0.048l0.005,-0.047l0.005,-0.048l0.004,-0.048l0.003,-0.049l0.003,-0.048l0.002,-0.049l0.002,-0.048l0,-0.05l0.001,-0.049l-0.001,-0.049l0,-0.049l-0.002,-0.049l-0.002,-0.049l-0.003,-0.048l-0.003,-0.049l-0.004,-0.048l-0.005,-0.048l-0.005,-0.047l-0.006,-0.048l-0.006,-0.047l-0.007,-0.047l-0.007,-0.047l-0.008,-0.047l-0.009,-0.046l-0.009,-0.047l-0.01,-0.045l-0.01,-0.046l-0.011,-0.046l-0.011,-0.045l-0.012,-0.045l-0.013,-0.045l-0.013,-0.045l-0.013,-0.044l-0.014,-0.044l-0.015,-0.044l-0.015,-0.044l-0.015,-0.043l-0.017,-0.044l-0.016,-0.043l-0.017,-0.043l-0.018,-0.042l-0.018,-0.042l-0.019,-0.042l-0.019,-0.042l-0.02,-0.041l-0.02,-0.041l-0.02,-0.041l-0.022,-0.041l-0.021,-0.04l-0.022,-0.04l-0.023,-0.04l-0.023,-0.04l-0.023,-0.039l-0.024,-0.038l-0.025,-0.039l-0.025,-0.038l-0.025,-0.038l-0.026,-0.038l-0.026,-0.037l-0.026,-0.037l-0.027,-0.037l-0.028,-0.036l-0.028,-0.036l-0.028,-0.036l-0.029,-0.035l-0.029,-0.035l-0.03,-0.035l-0.03,-0.034l-0.03,-0.034l-0.031,-0.033l-0.031,-0.033l-0.032,-0.033l-0.032,-0.033l-0.032,-0.031l-0.033,-0.032l-0.033,-0.031l-0.034,-0.031l-0.034,-0.031l-0.034,-0.029l-0.034,-0.03l-0.035,-0.029l-0.036,-0.029l-0.035,-0.028l-0.036,-0.028l-0.036,-0.028l-0.037,-0.027l-0.037,-0.026l-0.037,-0.027l-0.038,-0.026l-0.038,-0.025l-0.038,-0.025l-0.039,-0.024l-0.039,-0.024l-0.039,-0.023l-0.039,-0.023l-0.04,-0.023l-0.04,-0.022l-0.04,-0.022l-0.041,-0.021l-0.041,-0.02l-0.041,-0.02l-0.041,-0.02l-0.042,-0.019l-0.042,-0.019l-0.042,-0.018l-0.043,-0.018l-0.043,-0.017l-0.043,-0.017l-0.043,-0.016l-0.043,-0.015l-0.044,-0.015l-0.044,-0.015l-0.044,-0.014l-0.045,-0.014l-0.044,-0.012l-0.045,-0.013l-0.045,-0.012l-0.046,-0.011l-0.045,-0.011l-0.046,-0.01l-0.046,-0.01l-0.046,-0.009l-0.046,-0.009l-0.047,-0.008l-0.047,-0.007l-0.047,-0.007l-0.047,-0.006l-0.048,-0.006l-0.047,-0.005l-0.048,-0.005l-0.048,-0.004l-0.049,-0.003l-0.048,-0.003l-0.049,-0.002l-0.049,-0.002l-0.049,-0.001l-0.049,0l-0.05,0l-0.049,0.001l-0.049,0.002l-0.048,0.002l-0.049,0.003l-0.048,0.003l-0.048,0.004l-0.048,0.005l-0.048,0.005l-0.047,0.006l-0.047,0.006l-0.047,0.007l-0.047,0.007l-0.047,0.008l-0.046,0.009l-0.046,0.009l-0.047,0.01l-0.045,0.01l-0.046,0.011l-0.045,0.011l-0.045,0.012l-0.045,0.013l-0.045,0.012l-0.044,0.014l-0.045,0.014l-0.043,0.015l-0.044,0.015l-0.044,0.015l-0.043,0.016l-0.043,0.017l-0.043,0.017l-0.042,0.018l-0.042,0.018l-0.042,0.019l-0.042,0.019l-0.041,0.019l-0.041,0.021l-0.041,0.02l-0.041,0.021l-0.04,0.022l-0.04,0.022l-0.04,0.023l-0.039,0.023l-0.04,0.023l-0.039,0.024l-0.038,0.024l-0.038,0.025l-0.038,0.025l-0.038,0.026l-0.037,0.027l-0.037,0.026l-0.037,0.027l-0.036,0.028l-0.036,0.028l-0.036,0.028l-0.035,0.029l-0.035,0.029l-0.035,0.03l-0.034,0.029l-0.034,0.031l-0.033,0.031l-0.033,0.031l-0.033,0.032l-0.033,0.032l-0.032,0.032l-0.031,0.033l-0.031,0.033l-0.031,0.033l-0.031,0.034l-0.03,0.034l-0.029,0.035l-0.029,0.035l-0.029,0.035l-0.028,0.036l-0.028,0.036l-0.028,0.036l-0.027,0.037l-0.027,0.037l-0.026,0.037l-0.026,0.038l-0.025,0.038l-0.025,0.038l-0.024,0.039l-0.024,0.038l-0.024,0.039l-0.023,0.04l-0.022,0.04l-0.022,0.04l-0.022,0.04l-0.021,0.041l-0.021,0.041l-0.02,0.041l-0.019,0.041l-0.019,0.042l-0.019,0.042l-0.018,0.042l-0.018,0.042l-0.017,0.043l-0.017,0.043l-0.016,0.043l-0.015,0.044l-0.016,0.044l-0.014,0.044l-0.014,0.044l-0.014,0.044l-0.013,0.045l-0.012,0.045l-0.012,0.045l-0.011,0.045l-0.011,0.046l-0.011,0.046l-0.009,0.045l-0.009,0.047l-0.009,0.046l-0.008,0.047l-0.007,0.047l-0.007,0.047l-0.007,0.047l-0.005,0.047l-0.006,0.048l-0.004,0.048l-0.004,0.048l-0.003,0.049l-0.003,0.048l-0.002,0.049l-0.002,0.049l-0.001,0.049l0,0.049l0,0.049l0.001,0.05l0.002,0.048l0.002,0.049l0.003,0.048l0.003,0.049l0.004,0.048l0.004,0.048l0.006,0.048l0.005,0.047l0.007,0.047l0.007,0.047l0.007,0.047l0.008,0.047l0.009,0.046l0.009,0.046l0.009,0.046l0.011,0.046l0.011,0.046l0.011,0.045l0.012,0.045l0.012,0.045l0.013,0.045l0.014,0.044l0.014,0.044l0.014,0.044l0.016,0.044l0.015,0.043l0.016,0.044l0.017,0.042l0.017,0.043l0.018,0.043l0.018,0.042l0.019,0.042l0.019,0.042l0.019,0.041l0.02,0.041l0.021,0.041l0.021,0.041l0.022,0.04l0.022,0.04l0.022,0.04l0.023,0.039l0.024,0.039l0.024,0.039l0.024,0.039l0.025,0.038l0.025,0.038l0.026,0.038l0.026,0.037l0.027,0.037l0.027,0.037l0.028,0.036l0.028,0.036l0.028,0.036l0.029,0.035l0.029,0.035l0.029,0.034l0.031,0.035l0.03,0.034l0.031,0.033l0.031,0.033l0.031,0.033l0.032,0.032l0.033,0.032l0.033,0.032l0.033,0.031l0.033,0.031l0.034,0.03l0.034,0.03l0.035,0.03l0.035,0.029l0.035,0.029l0.036,0.028l0.036,0.028l0.036,0.028l0.037,0.027l0.037,0.027l0.037,0.026l0.038,0.026l0.038,0.025l0.038,0.025l0.039,0.024l0.038,0.024l0.04,0.023l0.039,0.023l0.04,0.023l0.04,0.022l0.04,0.022l0.041,0.021l0.041,0.02l0.041,0.021l0.041,0.019l0.042,0.019l0.042,0.019l0.042,0.018l0.043,0.018l0.042,0.017l0.043,0.017l0.044,0.016l0.043,0.015l0.044,0.016l0.044,0.014l0.044,0.014l0.044,0.014l0.045,0.013l0.045,0.012l0.045,0.012l0.045,0.011l0.046,0.011l0.046,0.01l0.046,0.01l0.046,0.009l0.046,0.009l0.047,0.008l0.047,0.007l0.047,0.007l0.047,0.007l0.048,0.005l0.047,0.005l0.048,0.005l0.048,0.004l0.048,0.003l0.049,0.003l0.048,0.002l0.049,0.002l0.05,0.001l0.049,0ZM293.335,160.678l-0.159,-0.002l-0.16,-0.005l-0.159,-0.01l-0.16,-0.013l-0.159,-0.017l-0.158,-0.021l-0.158,-0.025l-0.158,-0.028l-0.153,-0.031l-0.083,-0.019l-0.078,-0.018l-0.078,-0.02l-0.078,-0.02l-0.077,-0.022l-0.078,-0.022l-0.077,-0.023l-0.077,-0.024l-0.077,-0.025l-0.076,-0.027l-0.077,-0.027l-0.076,-0.028l-0.075,-0.029l-0.076,-0.03l-0.075,-0.031l-0.075,-0.031l-0.074,-0.033l-0.075,-0.034l-0.074,-0.035l-0.073,-0.035l-0.073,-0.037l-0.073,-0.038l-0.073,-0.038l-0.072,-0.039l-0.072,-0.041l-0.071,-0.041l-0.071,-0.043l-0.07,-0.043l-0.07,-0.044l-0.07,-0.046l-0.069,-0.046l-0.069,-0.047l-0.068,-0.048l-0.068,-0.049l-0.067,-0.05l-0.067,-0.051l-0.066,-0.052l-0.065,-0.052l-0.065,-0.054l-0.065,-0.055l-0.064,-0.055l-0.063,-0.057l-0.063,-0.057l-0.062,-0.058l-0.062,-0.06l-0.057,-0.056l-24.093,-24.092l-0.108,-0.11l-0.111,-0.117l-0.11,-0.12l-0.108,-0.122l-0.106,-0.124l-0.106,-0.126l-0.104,-0.128l-0.102,-0.131l-0.101,-0.132l-0.1,-0.135l-0.099,-0.136l-0.097,-0.138l-0.095,-0.14l-0.095,-0.142l-0.093,-0.144l-0.092,-0.145l-0.09,-0.146l-0.089,-0.149l-0.088,-0.149l-0.086,-0.151l-0.085,-0.153l-0.084,-0.153l-0.082,-0.155l-0.081,-0.156l-0.079,-0.157l-0.078,-0.159l-0.076,-0.159l-0.075,-0.16l-0.073,-0.161l-0.072,-0.162l-0.07,-0.163l-0.069,-0.163l-0.067,-0.164l-0.066,-0.165l-0.063,-0.165l-0.062,-0.166l-0.061,-0.166l-0.058,-0.167l-0.057,-0.167l-0.055,-0.167l-0.054,-0.167l-0.051,-0.168l-0.049,-0.168l-0.048,-0.168l-0.046,-0.168l-0.044,-0.167l-0.041,-0.168l-0.04,-0.168l-0.038,-0.167l-0.035,-0.168l-0.034,-0.167l-0.031,-0.167l-0.029,-0.166l-0.027,-0.166l-0.024,-0.166l-0.023,-0.165l-0.019,-0.165l-0.018,-0.164l-0.015,-0.164l-0.012,-0.163l-0.01,-0.163l-0.007,-0.162l-0.004,-0.161l-0.001,-0.154l0,-15.56l0,-0.081l0.002,-0.085l0.003,-0.085l0.003,-0.085l0.005,-0.085l0.006,-0.085l0.007,-0.084l0.008,-0.084l0.009,-0.083l0.011,-0.084l0.011,-0.083l0.012,-0.083l0.013,-0.082l0.014,-0.082l0.016,-0.083l0.016,-0.081l0.017,-0.081l0.018,-0.081l0.02,-0.08l0.02,-0.081l0.021,-0.079l0.022,-0.079l0.023,-0.079l0.024,-0.079l0.025,-0.078l0.026,-0.078l0.027,-0.077l0.028,-0.077l0.028,-0.076l0.03,-0.076l0.03,-0.075l0.032,-0.075l0.032,-0.075l0.033,-0.074l0.034,-0.074l0.035,-0.073l0.035,-0.072l0.037,-0.072l0.037,-0.072l0.038,-0.071l0.039,-0.071l0.04,-0.07l0.041,-0.069l0.041,-0.069l0.042,-0.068l0.046,-0.072l0.086,-0.13l0.091,-0.132l0.094,-0.129l0.098,-0.127l0.1,-0.124l0.103,-0.122l0.107,-0.12l0.108,-0.117l0.112,-0.114l0.114,-0.111l0.117,-0.109l0.119,-0.106l0.122,-0.103l0.125,-0.101l0.127,-0.097l0.129,-0.095l0.132,-0.091l0.13,-0.086l0.072,-0.045l0.068,-0.043l0.069,-0.041l0.069,-0.041l0.07,-0.04l0.071,-0.038l0.071,-0.039l0.071,-0.037l0.072,-0.036l0.073,-0.036l0.073,-0.035l0.074,-0.034l0.074,-0.033l0.074,-0.032l0.075,-0.031l0.076,-0.031l0.076,-0.029l0.076,-0.029l0.077,-0.028l0.077,-0.027l0.078,-0.025l0.078,-0.025l0.078,-0.024l0.079,-0.024l0.08,-0.022l0.079,-0.021l0.08,-0.02l0.081,-0.019l0.081,-0.018l0.081,-0.018l0.081,-0.016l0.082,-0.015l0.082,-0.014l0.083,-0.014l0.083,-0.012l0.083,-0.011l0.083,-0.01l0.084,-0.009l0.084,-0.008l0.084,-0.007l0.085,-0.006l0.085,-0.005l0.084,-0.004l0.086,-0.003l0.085,-0.001l0.081,-0.001l15.559,0l0.154,0.001l0.162,0.005l0.162,0.007l0.162,0.009l0.163,0.013l0.164,0.015l0.165,0.017l0.164,0.02l0.166,0.022l0.165,0.024l0.166,0.027l0.167,0.029l0.167,0.032l0.167,0.033l0.167,0.036l0.167,0.037l0.168,0.04l0.168,0.042l0.168,0.043l0.168,0.046l0.167,0.048l0.168,0.049l0.168,0.052l0.167,0.053l0.168,0.055l0.167,0.057l0.166,0.059l0.166,0.06l0.166,0.062l0.165,0.064l0.165,0.065l0.164,0.067l0.164,0.069l0.162,0.07l0.162,0.072l0.161,0.073l0.161,0.075l0.159,0.077l0.158,0.077l0.157,0.08l0.156,0.08l0.155,0.083l0.154,0.083l0.152,0.085l0.151,0.087l0.15,0.087l0.148,0.089l0.147,0.091l0.145,0.092l0.143,0.093l0.142,0.094l0.14,0.096l0.139,0.097l0.136,0.099l0.134,0.1l0.133,0.101l0.131,0.103l0.128,0.103l0.126,0.106l0.124,0.107l0.122,0.108l0.12,0.109l0.117,0.111l0.109,0.108l24.093,24.092l0.057,0.058l0.06,0.062l0.058,0.062l0.057,0.063l0.057,0.063l0.055,0.064l0.055,0.064l0.054,0.066l0.052,0.065l0.052,0.066l0.051,0.067l0.05,0.067l0.049,0.068l0.048,0.068l0.047,0.069l0.046,0.069l0.045,0.07l0.045,0.07l0.043,0.07l0.042,0.071l0.042,0.071l0.04,0.072l0.039,0.072l0.039,0.073l0.038,0.073l0.036,0.073l0.036,0.073l0.034,0.074l0.034,0.075l0.033,0.074l0.032,0.075l0.031,0.075l0.03,0.076l0.029,0.075l0.028,0.076l0.027,0.077l0.026,0.076l0.025,0.077l0.024,0.077l0.023,0.077l0.023,0.078l0.021,0.077l0.02,0.078l0.02,0.078l0.018,0.078l0.019,0.083l0.031,0.153l0.028,0.158l0.025,0.158l0.021,0.158l0.017,0.159l0.013,0.159l0.01,0.16l0.005,0.159l0.002,0.16l-0.002,0.16l-0.005,0.159l-0.01,0.16l-0.013,0.159l-0.017,0.159l-0.021,0.158l-0.025,0.159l-0.028,0.158l-0.031,0.152l-0.019,0.083l-0.018,0.078l-0.02,0.078l-0.02,0.078l-0.021,0.078l-0.023,0.077l-0.023,0.077l-0.024,0.077l-0.025,0.077l-0.026,0.076l-0.027,0.077l-0.028,0.076l-0.029,0.076l-0.03,0.075l-0.031,0.075l-0.032,0.075l-0.033,0.075l-0.034,0.074l-0.034,0.074l-0.036,0.073l-0.036,0.073l-0.038,0.073l-0.039,0.073l-0.039,0.072l-0.04,0.072l-0.042,0.071l-0.042,0.071l-0.043,0.071l-0.045,0.069l-0.045,0.07l-0.046,0.069l-0.047,0.069l-0.048,0.068l-0.049,0.068l-0.05,0.067l-0.051,0.067l-0.052,0.066l-0.052,0.066l-0.054,0.065l-0.055,0.064l-0.055,0.064l-0.057,0.064l-0.057,0.062l-0.058,0.062l-0.06,0.062l-0.057,0.058l-18.591,18.59l-0.058,0.056l-0.061,0.06l-0.062,0.058l-0.063,0.057l-0.064,0.057l-0.063,0.055l-0.065,0.055l-0.065,0.054l-0.066,0.052l-0.066,0.052l-0.067,0.051l-0.067,0.05l-0.067,0.049l-0.069,0.048l-0.068,0.047l-0.069,0.046l-0.07,0.046l-0.07,0.044l-0.071,0.043l-0.07,0.043l-0.072,0.041l-0.072,0.041l-0.072,0.039l-0.072,0.038l-0.073,0.038l-0.073,0.037l-0.074,0.035l-0.074,0.035l-0.074,0.034l-0.075,0.033l-0.074,0.031l-0.076,0.031l-0.075,0.03l-0.076,0.029l-0.076,0.028l-0.076,0.027l-0.077,0.027l-0.076,0.025l-0.077,0.024l-0.078,0.023l-0.077,0.022l-0.078,0.022l-0.078,0.02l-0.078,0.02l-0.078,0.018l-0.082,0.019l-0.153,0.031l-0.158,0.028l-0.158,0.025l-0.159,0.021l-0.159,0.017l-0.159,0.013l-0.159,0.01l-0.16,0.005l-0.16,0.002Z" style="fill:#3f3f3f;"/></g></svg>